<svg width="141" height="75" viewBox="0 0 141 75" fill="none" xmlns="http://www.w3.org/2000/svg">
<path fill-rule="evenodd" clip-rule="evenodd" d="M48.1273 29.1526H64.6618C64.8141 29.1526 64.9601 29.213 65.0678 29.3207C65.1755 29.4284 65.236 29.5744 65.236 29.7267V73.5209C65.236 73.6732 65.1755 73.8192 65.0678 73.9269C64.9601 74.0346 64.8141 74.095 64.6618 74.095H48.1273C47.9751 74.095 47.829 74.0346 47.7214 73.9269C47.6137 73.8192 47.5532 73.6732 47.5532 73.5209V29.7267C47.5532 29.5744 47.6137 29.4284 47.7214 29.3207C47.829 29.213 47.9751 29.1526 48.1273 29.1526ZM64.0877 30.3008H48.7015V72.9468H64.0877V30.3008Z" fill="white"/>
<path fill-rule="evenodd" clip-rule="evenodd" d="M60.8502 16.7846L77.3567 1.06454C77.4381 0.987898 77.5402 0.936712 77.6504 0.917261C77.7605 0.897809 77.8738 0.910941 77.9766 0.955047C78.0794 0.999152 78.1671 1.07231 78.2288 1.16554C78.2906 1.25876 78.3238 1.368 78.3243 1.47982V73.5209C78.3243 73.6732 78.2638 73.8192 78.1562 73.9269C78.0485 74.0346 77.9025 74.095 77.7502 74.095H61.2157C61.0634 74.095 60.9174 74.0346 60.8097 73.9269C60.7021 73.8192 60.6415 73.6732 60.6415 73.5209V17.2267C60.6416 17.1423 60.6602 17.059 60.696 16.9827C60.7319 16.9063 60.7841 16.8388 60.849 16.785L60.8502 16.7846ZM77.1772 2.81751L61.7909 17.4705V72.9468H77.1772V2.81751Z" fill="white"/>
<path fill-rule="evenodd" clip-rule="evenodd" d="M74.4042 30.9981L79.4886 24.712L84.6063 18.345C84.6607 18.2776 84.7298 18.2234 84.8081 18.1865C84.8865 18.1496 84.9723 18.1309 85.0589 18.1318C85.1455 18.1327 85.2308 18.1533 85.3084 18.1918C85.386 18.2304 85.4538 18.2861 85.5069 18.3546L90.6169 24.712L95.728 31.0314C95.8102 31.133 95.8548 31.2598 95.8543 31.3904H95.8563V73.5209C95.8563 73.6732 95.7958 73.8192 95.6881 73.9269C95.5804 74.0346 95.4344 74.095 95.2821 74.095H74.8253C74.673 74.095 74.527 74.0346 74.4193 73.9269C74.3116 73.8192 74.2512 73.6732 74.2512 73.5209V31.3904C74.2507 31.245 74.3053 31.1048 74.4042 30.9981ZM80.3812 25.4296L75.3975 31.5918V72.9468H94.7076V31.591L89.7247 25.4288L85.0525 19.6169L80.3812 25.4296Z" fill="white"/>
<path fill-rule="evenodd" clip-rule="evenodd" d="M91.576 49.3021H102.025V45.5703C102.025 45.4181 102.085 45.272 102.193 45.1644C102.301 45.0567 102.447 44.9962 102.599 44.9962H111.682C111.834 44.9962 111.98 45.0567 112.088 45.1644C112.195 45.272 112.256 45.4181 112.256 45.5703V73.5209C112.256 73.6732 112.195 73.8192 112.088 73.9269C111.98 74.0346 111.834 74.095 111.682 74.095H91.5764C91.4241 74.095 91.2781 74.0346 91.1704 73.9269C91.0627 73.8192 91.0023 73.6732 91.0023 73.5209V49.8762C91.0023 49.7239 91.0627 49.5779 91.1704 49.4702C91.2781 49.3626 91.4241 49.3021 91.5764 49.3021H91.576ZM102.599 50.4503H92.1501V72.9468H111.107V46.1444H103.173V49.8762C103.173 50.0285 103.112 50.1745 103.005 50.2822C102.897 50.3898 102.751 50.4503 102.599 50.4503Z" fill="white"/>
<path fill-rule="evenodd" clip-rule="evenodd" d="M107.032 35.007H109.558V31.4475C109.558 31.2952 109.618 31.1492 109.726 31.0415C109.833 30.9339 109.979 30.8734 110.132 30.8734H122.062C122.214 30.8734 122.361 30.9339 122.468 31.0415C122.576 31.1492 122.636 31.2952 122.636 31.4475V35.007H125.162C125.315 35.007 125.461 35.0675 125.568 35.1751C125.676 35.2828 125.737 35.4288 125.737 35.5811V73.5209C125.737 73.6732 125.676 73.8192 125.568 73.9269C125.461 74.0346 125.315 74.095 125.162 74.095H107.032C106.879 74.095 106.733 74.0346 106.626 73.9269C106.518 73.8192 106.457 73.6732 106.457 73.5209V35.5811C106.457 35.4288 106.518 35.2828 106.626 35.1751C106.733 35.0675 106.879 35.007 107.032 35.007ZM110.132 36.1552H107.606V72.9468H124.588V36.1552H122.062C121.91 36.1552 121.764 36.0947 121.656 35.9871C121.549 35.8794 121.488 35.7334 121.488 35.5811V32.0216H110.706V35.5811C110.706 35.7334 110.645 35.8794 110.538 35.9871C110.43 36.0947 110.284 36.1552 110.132 36.1552Z" fill="white"/>
<path fill-rule="evenodd" clip-rule="evenodd" d="M31.2479 44.3076H52.8244C52.9766 44.3076 53.1227 44.3681 53.2303 44.4758C53.338 44.5835 53.3985 44.7295 53.3985 44.8818V48.3265C53.3985 48.4787 53.338 48.6248 53.2303 48.7324C53.1227 48.8401 52.9766 48.9006 52.8244 48.9006H51.3317V73.5205C51.3317 73.6728 51.2712 73.8188 51.1635 73.9265C51.0558 74.0342 50.9098 74.0947 50.7575 74.0947H31.2479C31.0957 74.0947 30.9497 74.0342 30.842 73.9265C30.7344 73.8188 30.6738 73.6728 30.6738 73.5205V48.901H29.1812C29.0289 48.901 28.8829 48.8405 28.7752 48.7328C28.6675 48.6251 28.6071 48.4791 28.6071 48.3268V44.8821C28.6071 44.7299 28.6675 44.5839 28.7752 44.4762C28.8829 44.3685 29.0289 44.308 29.1812 44.308L31.2479 44.3076ZM50.7575 45.4559H29.7553V47.7523H31.2479C31.4002 47.7523 31.5462 47.8128 31.6539 47.9205C31.7616 48.0282 31.8221 48.1742 31.8221 48.3265V72.9464H50.1834V48.3268C50.1834 48.1746 50.2439 48.0286 50.3516 47.9209C50.4592 47.8132 50.6053 47.7527 50.7575 47.7527H52.2502V45.4563L50.7575 45.4559Z" fill="white"/>
<path fill-rule="evenodd" clip-rule="evenodd" d="M19.7102 23.3433H21.6721V20.0811C21.6721 19.9289 21.7326 19.7829 21.8402 19.6752C21.9479 19.5675 22.0939 19.507 22.2462 19.507H24.0834V17.4976C24.0834 17.3454 24.1438 17.1993 24.2515 17.0917C24.3592 16.984 24.5052 16.9235 24.6575 16.9235H26.2409V3.11681C26.2409 2.96454 26.3014 2.81852 26.4091 2.71086C26.5167 2.60319 26.6628 2.54269 26.815 2.54269H29.1398C29.2921 2.54269 29.4381 2.60319 29.5458 2.71086C29.6534 2.81852 29.7139 2.96454 29.7139 3.11681V16.9231H31.2973C31.4496 16.9231 31.5956 16.9836 31.7033 17.0913C31.8109 17.199 31.8714 17.345 31.8714 17.4973V19.5067H33.7086C33.8609 19.5067 34.0069 19.5671 34.1146 19.6748C34.2222 19.7825 34.2827 19.9285 34.2827 20.0808V23.3429H36.2447C36.3969 23.3429 36.543 23.4034 36.6506 23.511C36.7583 23.6187 36.8188 23.7647 36.8188 23.917V73.5206C36.8188 73.6728 36.7583 73.8188 36.6506 73.9265C36.543 74.0342 36.3969 74.0947 36.2447 74.0947H19.7102C19.5579 74.0947 19.4119 74.0342 19.3042 73.9265C19.1965 73.8188 19.136 73.6728 19.136 73.5206V23.917C19.136 23.7647 19.1965 23.6187 19.3042 23.511C19.4119 23.4034 19.5579 23.3429 19.7102 23.3429V23.3433ZM22.2462 24.4915H20.2843V72.9468H35.6705V24.4915H33.7086C33.5563 24.4915 33.4103 24.431 33.3026 24.3234C33.195 24.2157 33.1345 24.0697 33.1345 23.9174V20.6553H31.2973C31.145 20.6553 30.999 20.5948 30.8913 20.4871C30.7837 20.3794 30.7232 20.2334 30.7232 20.0811V18.0717H29.1398C28.9875 18.0717 28.8415 18.0113 28.7338 17.9036C28.6262 17.7959 28.5657 17.6499 28.5657 17.4976V3.69092H27.3891V17.4976C27.3891 17.6499 27.3287 17.7959 27.221 17.9036C27.1133 18.0113 26.9673 18.0717 26.815 18.0717H25.2316V20.0811C25.2316 20.2334 25.1711 20.3794 25.0634 20.4871C24.9558 20.5948 24.8097 20.6553 24.6575 20.6553H22.8203V23.9174C22.8203 23.9929 22.8054 24.0677 22.7765 24.1374C22.7475 24.2072 22.7051 24.2706 22.6516 24.3239C22.5981 24.3772 22.5347 24.4195 22.4649 24.4482C22.395 24.477 22.3202 24.4917 22.2447 24.4915H22.2462Z" fill="white"/>
<path fill-rule="evenodd" clip-rule="evenodd" d="M0.573017 49.8249H6.19933V46.4338C6.19933 46.2815 6.25981 46.1355 6.36748 46.0278C6.47514 45.9202 6.62118 45.8597 6.77344 45.8597H16.0741C16.2264 45.8597 16.3724 45.9202 16.4801 46.0278C16.5878 46.1355 16.6482 46.2815 16.6482 46.4338V49.8249H22.2745C22.4268 49.8249 22.5728 49.8854 22.6805 49.993C22.7882 50.1007 22.8487 50.2467 22.8487 50.399V73.5209C22.8487 73.6732 22.7882 73.8192 22.6805 73.9269C22.5728 74.0345 22.4268 74.095 22.2745 74.095H0.573017C0.420752 74.095 0.27472 74.0345 0.167052 73.9269C0.059385 73.8192 -0.00109863 73.6732 -0.00109863 73.5209V50.399C-0.00109863 50.2467 0.059385 50.1007 0.167052 49.993C0.27472 49.8854 0.420752 49.8249 0.573017 49.8249ZM6.77344 50.9731H1.14713V72.9468H21.7004V50.9731H16.0741C15.9219 50.9731 15.7758 50.9126 15.6682 50.805C15.5605 50.6973 15.5 50.5513 15.5 50.399V47.0079H7.34756V50.399C7.34756 50.5513 7.28707 50.6973 7.17941 50.805C7.07174 50.9126 6.92571 50.9731 6.77344 50.9731Z" fill="white"/>
<path fill-rule="evenodd" clip-rule="evenodd" d="M122.159 56.5807L130.189 50.7921C130.288 50.7211 130.407 50.6836 130.529 50.6848C130.651 50.6861 130.769 50.726 130.867 50.799L138.886 56.5807H140.426C140.578 56.5807 140.724 56.6412 140.832 56.7488C140.94 56.8565 141 57.0025 141 57.1548V59.9871C141 60.1394 140.94 60.2854 140.832 60.3931C140.724 60.5007 140.578 60.5612 140.426 60.5612H139.604V73.5202C139.604 73.6724 139.543 73.8185 139.436 73.9261C139.328 74.0338 139.182 74.0943 139.03 74.0943H122.016C121.863 74.0943 121.717 74.0338 121.61 73.9261C121.502 73.8185 121.441 73.6724 121.441 73.5202V60.562H120.619C120.467 60.562 120.321 60.5015 120.213 60.3938C120.106 60.2862 120.045 60.1401 120.045 59.9879V57.1556C120.045 57.0033 120.106 56.8573 120.213 56.7496C120.321 56.6419 120.467 56.5815 120.619 56.5815L122.159 56.5807ZM130.522 51.9614L122.714 57.5896C122.61 57.6797 122.477 57.7292 122.34 57.7289H121.192V59.413H122.014C122.166 59.413 122.312 59.4735 122.42 59.5812C122.527 59.6888 122.588 59.8348 122.588 59.9871V72.946H138.454V59.9879C138.454 59.8356 138.514 59.6896 138.622 59.5819C138.729 59.4742 138.875 59.4138 139.028 59.4138H139.85V57.7297H138.702V57.7278C138.582 57.7276 138.465 57.6898 138.368 57.6198L130.522 51.9614Z" fill="white"/>
</svg>
