<svg width="269" height="148" viewBox="0 0 269 148" fill="none" xmlns="http://www.w3.org/2000/svg">
<path d="M169.295 113.805H116.242V130.44H169.295V113.805Z" fill="#7E933D"/>
<path d="M79.1672 106.278V128.268H97.2807L104.542 117.744H236.811V106.278H79.1672Z" fill="#131902"/>
<path d="M78.036 36.649C77.9947 35.9128 77.3738 35.3458 76.6368 35.3761C69.4793 35.67 35.4881 37.2286 28.499 40.589C23.1505 43.1606 17.2889 52.7708 13.1559 59.2415C10.1937 63.8788 3.6489 74.1774 2.32545 79.4413C1.20436 83.8997 0.529283 93.1529 0.606585 97.7498L2.47601 122.054H33.2804L36.3652 114.027C38.3775 108.79 43.4078 105.335 49.0177 105.335H79.6274V64.9991L78.036 36.649Z" fill="#97B954"/>
<path d="M24.8481 43.278C20.6087 47.3244 16.3623 54.2217 13.1561 59.2411C10.4132 63.5344 4.6006 72.6804 2.70285 78.1907C2.66723 78.2931 2.6385 78.3898 2.60571 78.4898C3.54427 78.2295 4.98751 77.6997 5.43109 76.8122C6.10577 75.4624 6.97309 70.847 17.6797 53.4135C20.9421 48.1019 24.1168 44.9924 24.8481 43.278Z" fill="#455A64"/>
<path d="M62.2141 41.4794C54.3386 41.9294 37.2637 43.0805 31.8084 44.9511C24.7007 47.3883 16.7244 66.1951 16.3472 67.0207L10.9692 80.7769C10.8397 81.1662 11.1295 81.5673 11.5395 81.5673H25.4332C25.9586 81.5673 26.4798 81.4734 26.972 81.2901L63.519 67.6739C65.1719 67.0579 66.2683 65.4795 66.2683 63.7153V45.3109C66.2687 43.1052 64.4163 41.3535 62.2141 41.4794Z" fill="#15181E"/>
<path d="M12.5168 80.2179C12.5168 80.2179 17.6714 68.6635 19.4 64.887C22.0165 59.1711 28.123 47.4644 32.2463 46.228C36.0386 45.0907 46.9427 43.7041 62.2914 42.8271C62.3404 42.8242 62.389 42.823 62.4375 42.823C63.8059 42.823 64.9193 43.9393 64.9193 45.3113V64.1334C64.9193 65.0776 64.3248 65.934 63.4392 66.2638L36.4393 69.5963C34.2493 69.8667 32.2892 71.0861 31.0791 72.9309L26.4001 80.0633C26.1245 80.1657 25.8363 80.2179 25.5421 80.2179H12.5168Z" fill="#131902"/>
<path d="M35.461 69.8064L26.2686 80.0277L31.3482 46.086L32.6183 45.648L30.1195 70.7911C30.0645 71.344 30.6161 71.7576 31.1313 71.55L35.461 69.8064Z" fill="#15181E"/>
<path d="M0.00450682 100.108C-0.0282758 99.6657 0.121067 99.3076 0.345689 99.2869L5.26875 98.8316C5.68076 98.7936 6.05027 99.5556 6.09925 100.468L6.32104 104.244C6.35665 104.851 6.17452 105.363 5.90336 105.41L0.884781 106.275C0.658541 106.314 0.442418 105.979 0.409231 105.533L0.00450682 100.108Z" fill="#EBEBEB"/>
<path d="M35.4607 117.748H0V131.966H35.4607V117.748Z" fill="#131902"/>
<path d="M59.1417 146.821C69.8488 146.41 78.195 137.396 77.7836 126.689C77.3722 115.982 68.3588 107.636 57.6518 108.047C46.9447 108.459 38.5984 117.472 39.0099 128.179C39.4213 138.886 48.4346 147.232 59.1417 146.821Z" fill="#263238"/>
<path d="M39.0036 127.095C39.0032 127.112 39.0004 127.129 39.0004 127.146C38.8457 137.859 47.4057 146.669 58.1191 146.824C68.8326 146.978 77.643 138.418 77.7976 127.705C77.798 127.688 77.7956 127.672 77.7956 127.655L39.0036 127.095Z" fill="#263238"/>
<path d="M44.7798 127.229C44.6713 134.75 50.6806 140.936 58.202 141.044C65.7238 141.153 71.9092 135.143 72.0177 127.622C72.1262 120.1 66.1168 113.914 58.595 113.806C51.0732 113.698 44.8882 119.707 44.7798 127.229Z" fill="#FAFAFA"/>
<path d="M58.595 113.806C51.0736 113.698 44.8883 119.707 44.7798 127.229L72.0177 127.622C72.1262 120.1 66.1168 113.914 58.595 113.806Z" fill="#E0E0E0"/>
<path d="M50.1027 127.306C50.0367 131.887 53.6974 135.655 58.2789 135.721C62.8608 135.787 66.6288 132.127 66.6948 127.545C66.7607 122.963 63.1 119.195 58.5181 119.129C53.9366 119.063 50.1687 122.724 50.1027 127.306Z" fill="#263238"/>
<path d="M20.7668 73.1017H19.1856C17.4012 73.1017 15.9551 71.6552 15.9551 69.8712V57.0321C15.9551 55.2481 17.4016 53.8016 19.1856 53.8016H20.7668C22.5513 53.8016 23.9974 55.2481 23.9974 57.0321V69.8712C23.9978 71.6556 22.5513 73.1017 20.7668 73.1017Z" fill="#263238"/>
<path d="M12.6264 85.0353H12.2217V64.6275C12.2217 62.6031 13.8685 60.9563 15.8929 60.9563H16.8626V61.361H15.8929C14.0919 61.361 12.6264 62.8265 12.6264 64.6275V85.0353Z" fill="#263238"/>
<path d="M15.3841 85.0613L14.2589 65.9777C14.2197 65.3099 14.4508 64.6737 14.9093 64.1872C15.3683 63.7003 15.9891 63.4324 16.6581 63.4324V63.8371C16.1016 63.8371 15.5852 64.0601 15.2036 64.4649C14.8219 64.8696 14.6301 65.3986 14.6624 65.9542L15.7876 85.0378L15.3841 85.0613Z" fill="#263238"/>
<path d="M16.6586 83.1963H11.2017V89.5144H16.6586V83.1963Z" fill="#263238"/>
<path d="M14.6436 71.2064H12.4241V71.6111H14.6436V71.2064Z" fill="#263238"/>
<path d="M33.1543 42.0253C33.1543 42.0253 33.317 42.0007 33.6363 41.9618C33.9589 41.9234 34.4344 41.8671 35.0581 41.793C36.3136 41.6481 38.164 41.4344 40.5595 41.1576C45.3583 40.6116 52.3362 39.8176 61.0677 38.824C62.1613 38.7066 63.2747 38.5593 64.4285 38.4577C65.0101 38.3958 65.6018 38.4715 66.1879 38.5743C66.7662 38.7175 67.343 38.9114 67.8748 39.2133C68.9384 39.8054 69.8599 40.725 70.4278 41.8655C70.7119 42.4325 70.9268 43.0481 71.0154 43.6912C71.0842 44.0097 71.0761 44.3379 71.1004 44.6641C71.1008 44.9875 71.1008 45.3125 71.1012 45.6391C71.1045 50.8633 71.1081 56.4748 71.1118 62.4198C71.1158 74.3106 71.1202 87.535 71.1251 101.663V101.765H71.0223C66.4692 101.766 61.7942 101.767 57.0257 101.767C54.6415 101.767 52.2338 101.768 49.8063 101.768C48.5913 101.773 47.3735 101.74 46.1751 101.939C44.9666 102.082 43.801 102.475 42.6657 102.921C39.1426 104.431 36.3358 107.387 34.9889 110.871C34.8367 111.312 34.6413 111.739 34.5453 112.196C34.4393 112.648 34.2843 113.09 34.2357 113.553L34.1301 114.24L34.0791 114.583L34.0617 114.93L34.0265 115.621L34.0087 115.966L34.0066 116.01C34.0989 115.919 33.8816 116.147 33.899 116.122H33.8881H33.8662H33.7792H33.6052C31.7499 116.122 29.9084 116.122 28.0823 116.121C20.7774 116.12 13.7142 116.118 6.97391 116.117H6.87476V116.017C6.87718 109.917 6.87921 104.038 6.88123 98.4188C6.88245 95.6096 6.88406 92.8656 6.88528 90.1916C6.88609 88.8548 6.8869 87.5354 6.88771 86.2342C6.89095 85.583 6.88245 84.9395 6.89499 84.2943C6.90956 83.65 6.9557 83.0118 7.03179 82.3812C7.34302 79.8594 8.16502 77.4861 9.32293 75.4098C10.4384 73.3154 11.5161 71.2918 12.5538 69.3434C14.6297 65.4475 16.5452 61.8524 18.2819 58.5935C20.0194 55.3359 21.5772 52.4146 22.937 49.8649C23.277 49.2274 23.6048 48.6134 23.9201 48.0234C24.082 47.7299 24.222 47.4349 24.3932 47.1601C24.5624 46.8853 24.747 46.6283 24.938 46.3858C25.7086 45.4206 26.5654 44.6771 27.3918 44.106C29.0629 42.9712 30.5794 42.5171 31.5892 42.2799C32.6104 42.0533 33.1543 42.0253 33.1543 42.0253C33.1543 42.0253 33.0207 42.0484 32.7577 42.0861C32.495 42.1257 32.1044 42.1937 31.5973 42.3123C30.5928 42.5596 29.0848 43.0226 27.4291 44.1595C26.6103 44.7313 25.7616 45.4744 25.0011 46.4352C24.8125 46.676 24.6308 46.931 24.4649 47.2034C24.2973 47.4741 24.1565 47.7732 23.9962 48.0659C23.6834 48.6572 23.3575 49.2723 23.0196 49.9106C21.6666 52.4644 20.1169 55.3897 18.3888 58.6518C16.659 61.9139 14.7507 65.5123 12.683 69.4118C11.6485 71.3618 10.5743 73.3866 9.46216 75.4823C8.31315 77.5504 7.50451 79.899 7.19813 82.4006C7.12366 83.0255 7.07833 83.6585 7.06457 84.2968C7.05283 84.9346 7.06214 85.5834 7.05972 86.233C7.06052 87.5342 7.06133 88.8535 7.06174 90.1903C7.06295 92.8644 7.06457 95.6084 7.06579 98.4176C7.06781 104.036 7.07024 109.916 7.07226 116.016L6.97351 115.917C13.7138 115.916 20.777 115.914 28.0819 115.913C29.908 115.912 31.7495 115.912 33.6048 115.912H33.7788H33.8658H33.8877H33.8986C33.9265 115.891 33.7027 116.104 33.7974 116.008L33.7994 115.964L33.8172 115.614L33.8528 114.912L33.8707 114.561L33.9225 114.212L34.0297 113.515C34.0795 113.046 34.2357 112.597 34.3434 112.138C34.4409 111.674 34.6384 111.241 34.793 110.793C36.1594 107.257 39.0062 104.258 42.5819 102.725C43.7342 102.273 44.9172 101.876 46.1439 101.729C47.3621 101.527 48.5978 101.561 49.8059 101.556C52.2334 101.556 54.6411 101.556 57.0253 101.556C61.7938 101.557 66.4688 101.557 71.0219 101.558L70.9191 101.661C70.924 87.5337 70.9284 74.309 70.9325 62.4182C70.9361 56.4732 70.9397 50.8617 70.943 45.6375C70.9414 44.9831 70.9685 44.3359 70.8616 43.7135C70.7766 43.0857 70.5674 42.4855 70.2914 41.9319C69.7397 40.8181 68.8408 39.9188 67.8031 39.3384C67.2843 39.0421 66.7213 38.8523 66.1567 38.7111C65.5844 38.6103 65.0065 38.5342 64.4374 38.5941C63.2949 38.6928 62.173 38.8381 61.0819 38.9535C52.3471 39.9216 45.3668 40.695 40.5668 41.2268C38.17 41.4883 36.318 41.6906 35.0618 41.8274C34.4373 41.8934 33.9613 41.944 33.6379 41.9784C33.3186 42.0132 33.1543 42.0253 33.1543 42.0253Z" fill="#263238"/>
<path d="M64.664 86.7535C64.6636 86.7421 64.7749 86.7433 64.9793 86.7069C65.182 86.6721 65.4844 86.5904 65.8122 86.3754C66.1356 86.163 66.4844 85.7987 66.6593 85.2726C66.7499 85.0099 66.7803 84.7201 66.7673 84.4008C66.7601 84.09 66.6815 83.7634 66.5217 83.459C66.206 82.8543 65.5139 82.3472 64.6976 82.348C63.8602 82.3505 62.967 82.3529 62.0276 82.3557C60.144 82.3581 58.0771 82.361 55.9066 82.3638C55.3877 82.3638 54.8826 82.5654 54.5119 82.907C54.1391 83.2465 53.902 83.7176 53.8498 84.2033C53.8 84.7011 53.8659 85.1892 54.1031 85.6016C54.3314 86.0144 54.7037 86.3265 55.1161 86.5017C55.5334 86.6871 55.9835 86.6608 56.4335 86.6624C56.8791 86.664 57.3118 86.666 57.7303 86.6676C58.5652 86.6721 59.3443 86.6761 60.0578 86.6802C61.465 86.694 62.6112 86.7049 63.428 86.713C63.8104 86.7211 64.1156 86.7275 64.3443 86.7324C64.5539 86.7397 64.664 86.7466 64.664 86.7535C64.664 86.7603 64.5539 86.7676 64.3447 86.7741C64.116 86.7789 63.8112 86.7854 63.4284 86.7935C62.6112 86.8016 61.4655 86.8125 60.0582 86.8263C59.3447 86.8299 58.5656 86.8344 57.7307 86.8388C57.3122 86.8405 56.8791 86.8421 56.4339 86.8441C56.2085 86.8413 55.9912 86.8534 55.7495 86.8384C55.512 86.821 55.2711 86.7721 55.0441 86.6778C54.592 86.4892 54.1841 86.15 53.9319 85.6992C53.6697 85.2536 53.5964 84.6999 53.649 84.1814C53.7049 83.648 53.9643 83.1287 54.3735 82.7556C54.7798 82.3796 55.3367 82.157 55.9066 82.1574C58.0771 82.1602 60.144 82.1631 62.0276 82.1655C62.9678 82.1695 63.8622 82.1732 64.7004 82.1768C65.5839 82.1845 66.3229 82.7402 66.6512 83.3914C66.8179 83.7192 66.8964 84.0693 66.8989 84.3992C66.9074 84.7197 66.8697 85.0398 66.7686 85.3106C66.5731 85.8618 66.1979 86.2334 65.8559 86.443C65.5086 86.6555 65.1946 86.7255 64.9857 86.7482C64.7749 86.7717 64.664 86.7535 64.664 86.7535Z" fill="#263238"/>
<path d="M63.9142 81.6705C63.9142 81.7276 62.3605 81.7737 60.4441 81.7737C58.527 81.7737 56.9736 81.7276 56.9736 81.6705C56.9736 81.6135 58.527 81.5673 60.4441 81.5673C62.3605 81.5673 63.9142 81.6135 63.9142 81.6705Z" fill="white"/>
<path d="M37.0755 132.084L33.8462 131.849C34.6913 120.254 35.9297 113.317 37.6324 110.643C40.9038 105.504 44.1545 104.576 47.7594 103.96C51.1109 103.388 54.4928 103.525 57.7634 103.657L58.5659 103.689C65.3171 103.952 79.4582 103.717 79.6003 103.715L79.6549 106.952C79.512 106.955 65.2803 107.19 58.4401 106.924L57.6326 106.892C54.5292 106.767 51.3206 106.636 48.3046 107.152C45.0854 107.701 42.9444 108.328 40.3639 112.382C39.5828 113.609 38.1168 117.8 37.0755 132.084Z" fill="#131902"/>
<path d="M240.779 0H81.3257V106.166H240.779V0Z" fill="#7E933D"/>
<path d="M238.868 104.065C238.867 103.383 238.835 64.4426 238.784 2.39719L238.868 2.48097C196.148 2.48704 141.901 2.49433 83.0458 2.50282H83.0332L83.1384 2.3976C83.1352 38.537 83.1324 72.9349 83.1299 104.065L83.0332 103.968C174.717 104.025 237.999 104.065 238.868 104.065C238 104.066 174.717 104.105 83.0332 104.162H82.9365V104.065C82.9336 72.9345 82.9308 38.5362 82.928 2.39719V2.29196H83.0332H83.0458C141.901 2.30006 196.148 2.30775 238.868 2.31382H238.952V2.3976C238.9 64.4426 238.868 103.384 238.868 104.065Z" fill="#263238"/>
<path d="M58.6437 50.2748C58.6477 50.2809 58.5967 50.3234 58.496 50.3986C58.3742 50.4865 58.2268 50.5925 58.05 50.72C57.6602 50.9956 57.0912 51.3874 56.3845 51.8658C54.9712 52.8229 53.0047 54.1241 50.8123 55.5293C48.6187 56.9349 46.6153 58.1787 45.1551 59.0626C44.4249 59.5049 43.8316 59.8583 43.4184 60.097C43.2286 60.2047 43.0707 60.2937 42.94 60.3682C42.8295 60.4281 42.7696 60.4568 42.7656 60.4504C42.7619 60.4443 42.8141 60.4034 42.9177 60.3318C43.0428 60.2484 43.1938 60.148 43.3755 60.027C43.8057 59.751 44.3796 59.3827 45.0765 58.9359C46.5416 58.0018 48.5163 56.7431 50.6986 55.3517C52.8735 53.9505 54.8417 52.6821 56.3024 51.7411C56.9993 51.2947 57.574 50.9268 58.0046 50.6516C58.1904 50.5371 58.3446 50.4419 58.4725 50.363C58.5806 50.2995 58.6392 50.2687 58.6437 50.2748Z" fill="#FAFAFA"/>
<path d="M51.7416 52.103C51.7457 52.109 51.6947 52.1515 51.5939 52.2272C51.4721 52.315 51.3248 52.4211 51.1479 52.5486C50.7582 52.8242 50.1891 53.2159 49.4825 53.6943C48.0692 54.6515 46.1026 55.9527 43.9102 57.3579C41.7166 58.7635 39.7132 60.0072 38.253 60.8911C37.5233 61.3335 36.9295 61.6868 36.5163 61.9256C36.3265 62.0333 36.1687 62.1223 36.0379 62.1968C35.9274 62.2567 35.8675 62.2854 35.8635 62.2789C35.8595 62.2725 35.9121 62.232 36.0157 62.1603C36.1407 62.077 36.2917 61.9766 36.4734 61.8556C36.9032 61.5796 37.4775 61.2113 38.1741 60.764C39.6392 59.8299 41.6138 58.5713 43.7961 57.1798C45.9711 55.7783 47.9393 54.5103 49.3999 53.5693C50.0968 53.1229 50.6715 52.755 51.1018 52.4798C51.2875 52.3652 51.4417 52.2701 51.5696 52.1912C51.6789 52.1276 51.7376 52.0969 51.7416 52.103Z" fill="#FAFAFA"/>
<path d="M17.6679 63.8849C17.6537 63.8881 17.61 63.7614 17.5437 63.5287C17.4773 63.296 17.3882 62.9581 17.2899 62.5368C17.0976 61.6961 16.8524 60.5123 16.8621 59.1784C16.8718 57.8432 17.2142 56.65 17.6331 55.8831C17.8391 55.4974 18.0463 55.2088 18.2062 55.0251C18.3652 54.8405 18.4664 54.7515 18.4757 54.76C18.5073 54.7851 18.1341 55.1785 17.7663 55.9499C17.3919 56.7144 17.0827 57.8755 17.0726 59.1808C17.0628 60.486 17.281 61.6609 17.4356 62.5064C17.5967 63.3531 17.6983 63.8784 17.6679 63.8849Z" fill="#FAFAFA"/>
<path d="M1.19915 92.5774C1.18458 92.577 1.1777 92.4159 1.1773 92.1249C1.17649 91.8339 1.18499 91.4134 1.20199 90.8938C1.23558 89.8548 1.31005 88.4201 1.4343 86.8384C1.55936 85.2563 1.71032 83.8277 1.83983 82.796C1.90459 82.28 1.96206 81.8635 2.0086 81.5762C2.05434 81.2888 2.08671 81.131 2.10128 81.1326C2.11585 81.1342 2.111 81.2953 2.09036 81.5855C2.06243 81.9206 2.02843 82.3298 1.98837 82.8118C1.89609 83.8965 1.77669 85.3013 1.64475 86.855C1.53184 88.41 1.42985 89.816 1.35093 90.9014C1.31491 91.3835 1.28455 91.7935 1.25946 92.1286C1.23436 92.4179 1.21372 92.5778 1.19915 92.5774Z" fill="#FAFAFA"/>
<path d="M45.5421 100.436C45.5498 100.478 44.7634 100.59 43.5517 100.98C42.945 101.171 42.2412 101.455 41.4856 101.82C40.736 102.198 39.9379 102.666 39.1535 103.235C38.3753 103.813 37.6901 104.435 37.1048 105.037C36.5301 105.649 36.0489 106.235 35.6855 106.757C34.9509 107.797 34.6085 108.513 34.5704 108.493C34.5575 108.487 34.638 108.306 34.7959 107.984C34.8724 107.821 34.9719 107.625 35.1055 107.408C35.2366 107.19 35.375 106.933 35.5628 106.672C35.9141 106.134 36.3889 105.531 36.9636 104.903C37.5484 104.286 38.2397 103.651 39.0289 103.065C39.8242 102.487 40.6364 102.018 41.4006 101.645C42.1712 101.284 42.8887 101.012 43.5076 100.838C43.8127 100.737 44.0989 100.681 44.3466 100.621C44.5938 100.559 44.8104 100.522 44.9884 100.498C45.3434 100.444 45.5397 100.421 45.5421 100.436Z" fill="#FAFAFA"/>
<path d="M85.399 76.0003C85.3953 76.0003 85.3917 75.9412 85.3876 75.8263C85.3848 75.7016 85.3808 75.5325 85.3755 75.3155C85.3694 74.8558 85.3605 74.1965 85.3492 73.3526C85.3249 71.6374 85.2905 69.1734 85.2476 66.1331C85.1383 60.0283 84.9878 51.612 84.8214 42.3163C84.651 33.0125 84.5114 24.5902 84.4572 18.4935C84.428 15.4451 84.4195 12.9779 84.4228 11.2732C84.4284 10.4289 84.4329 9.76964 84.4361 9.30988C84.4398 9.09335 84.4426 8.92417 84.445 8.79952C84.4483 8.68458 84.4515 8.62549 84.4551 8.62549C84.4588 8.62549 84.4624 8.68458 84.4665 8.79952C84.4693 8.92417 84.4734 9.09335 84.4786 9.30988C84.4847 9.76964 84.4936 10.4289 84.5049 11.2728C84.5288 12.988 84.5636 15.4516 84.6065 18.4919C84.7158 24.5967 84.8663 33.0138 85.0327 42.3127C85.2031 51.6133 85.3427 60.0348 85.3969 66.1315C85.4261 69.1799 85.4346 71.6471 85.4313 73.3522C85.4257 74.1965 85.4212 74.8558 85.418 75.3155C85.4143 75.5321 85.4115 75.7012 85.4091 75.8263C85.4063 75.9416 85.4026 76.0003 85.399 76.0003Z" fill="#FAFAFA"/>
<path d="M202.488 146.805C213.194 146.377 221.526 137.352 221.099 126.646C220.671 115.94 211.646 107.607 200.94 108.035C190.234 108.462 181.901 117.488 182.329 128.194C182.757 138.9 191.782 147.232 202.488 146.805Z" fill="#131902"/>
<path d="M182.316 127.095C182.316 127.112 182.313 127.129 182.312 127.146C182.158 137.859 190.718 146.669 201.431 146.824C212.145 146.978 220.955 138.418 221.11 127.705C221.11 127.688 221.108 127.672 221.108 127.655L182.316 127.095Z" fill="#131902"/>
<path d="M188.092 127.229C187.984 134.75 193.993 140.936 201.515 141.044C209.036 141.153 215.222 135.143 215.33 127.622C215.439 120.1 209.429 113.914 201.908 113.806C194.386 113.698 188.201 119.707 188.092 127.229Z" fill="#FAFAFA"/>
<path d="M201.908 113.806C194.386 113.698 188.201 119.707 188.092 127.229L215.33 127.622C215.439 120.1 209.429 113.914 201.908 113.806Z" fill="#E0E0E0"/>
<path d="M193.415 127.306C193.349 131.887 197.01 135.655 201.591 135.721C206.173 135.787 209.941 132.127 210.007 127.545C210.073 122.963 206.413 119.195 201.831 119.129C197.249 119.063 193.481 122.724 193.415 127.306Z" fill="#131902"/>
<path d="M176.208 132.74C176.208 132.74 173.252 105.227 201.768 105.227C228.08 105.227 227.493 128.896 227.245 132.556H223.119C223.119 132.556 225.221 109.23 201.768 109.23C178.316 109.23 180.359 133.03 180.359 133.03C180.359 133.03 178.626 132.938 176.208 132.74Z" fill="black"/>
<path d="M191.482 108.069C191.484 108.076 191.407 108.103 191.259 108.15C191.111 108.2 190.889 108.254 190.611 108.35C190.049 108.527 189.247 108.815 188.293 109.255C186.39 110.123 183.889 111.725 181.824 114.185C179.757 116.645 178.612 119.385 178.086 121.41C177.818 122.425 177.673 123.266 177.596 123.849C177.549 124.14 177.534 124.368 177.51 124.522C177.49 124.676 177.476 124.757 177.469 124.756C177.462 124.756 177.462 124.674 177.468 124.519C177.478 124.364 177.481 124.133 177.515 123.84C177.566 123.251 177.69 122.401 177.942 121.373C178.434 119.324 179.571 116.54 181.663 114.05C183.753 111.56 186.298 109.959 188.231 109.12C189.201 108.694 190.016 108.426 190.587 108.273C190.87 108.188 191.097 108.146 191.248 108.11C191.4 108.075 191.48 108.062 191.482 108.069Z" fill="#FAFAFA"/>
<path d="M261.526 136.075L264.978 141.263L266.525 146.153C266.637 146.505 267.023 146.69 267.367 146.554C267.56 146.479 267.704 146.316 267.753 146.115C268.069 144.836 269.207 140.125 268.933 139.759C268.616 139.336 265.655 134.046 265.655 134.046L261.526 136.075Z" fill="#455A64"/>
<g opacity="0.6">
<path d="M267.368 146.554L268.709 139.404L268.85 139.627C268.972 139.82 269.023 140.05 268.991 140.275C268.905 140.88 268.632 142.544 267.77 146.105C267.719 146.313 267.568 146.482 267.368 146.554Z" fill="white"/>
</g>
<g opacity="0.6">
<path d="M266.553 138.39C266.479 138.565 266.562 138.791 266.733 138.873C266.905 138.954 267.136 138.871 267.213 138.698C267.291 138.525 267.199 138.249 267.019 138.188C266.84 138.126 266.573 138.238 266.54 138.425" fill="white"/>
</g>
<path d="M267.115 143.492C267.094 143.526 266.801 143.325 266.394 143.375C265.986 143.412 265.742 143.671 265.715 143.642C265.702 143.632 265.743 143.549 265.855 143.454C265.966 143.359 266.155 143.263 266.38 143.238C266.605 143.215 266.81 143.268 266.938 143.337C267.068 143.407 267.125 143.48 267.115 143.492Z" fill="#263238"/>
<path d="M267.186 144.435C267.176 144.474 266.898 144.409 266.577 144.504C266.253 144.591 266.05 144.79 266.02 144.763C265.988 144.745 266.171 144.473 266.54 144.372C266.907 144.266 267.205 144.403 267.186 144.435Z" fill="#263238"/>
<path d="M267.241 142.147C267.232 142.187 266.806 142.087 266.293 142.189C265.778 142.284 265.42 142.536 265.397 142.502C265.371 142.479 265.716 142.159 266.268 142.055C266.818 141.946 267.257 142.116 267.241 142.147Z" fill="#263238"/>
<path d="M266.323 140.482C266.329 140.523 265.962 140.585 265.574 140.811C265.184 141.032 264.944 141.318 264.913 141.292C264.882 141.276 265.087 140.931 265.506 140.693C265.923 140.451 266.325 140.447 266.323 140.482Z" fill="#263238"/>
<path d="M265.349 138.934C265.351 138.975 264.948 138.984 264.56 139.255C264.166 139.518 264.009 139.89 263.973 139.873C263.957 139.867 263.973 139.765 264.049 139.618C264.126 139.471 264.272 139.287 264.483 139.143C264.693 138.999 264.919 138.93 265.083 138.913C265.248 138.894 265.349 138.917 265.349 138.934Z" fill="#263238"/>
<path d="M264.383 138.956C264.377 138.96 264.32 138.896 264.25 138.761C264.181 138.626 264.099 138.415 264.078 138.139C264.073 138.005 264.053 137.842 264.156 137.68C264.207 137.599 264.324 137.543 264.431 137.573C264.535 137.602 264.61 137.676 264.665 137.758C264.871 138.096 264.788 138.601 264.443 138.887C264.091 139.167 263.613 139.168 263.281 138.974C263.201 138.92 263.121 138.843 263.105 138.728C263.089 138.612 263.173 138.509 263.257 138.474C263.428 138.399 263.583 138.426 263.717 138.435C263.991 138.466 264.201 138.548 264.336 138.617C264.472 138.686 264.536 138.741 264.531 138.748C264.522 138.773 264.235 138.573 263.709 138.531C263.58 138.527 263.427 138.515 263.307 138.576C263.249 138.605 263.216 138.656 263.224 138.713C263.231 138.769 263.284 138.828 263.349 138.868C263.625 139.024 264.062 139.022 264.355 138.781C264.649 138.543 264.721 138.099 264.557 137.826C264.517 137.76 264.459 137.706 264.399 137.69C264.342 137.673 264.283 137.696 264.247 137.746C264.17 137.852 264.172 138.006 264.174 138.134C264.198 138.661 264.41 138.946 264.383 138.956Z" fill="#263238"/>
<path d="M258.248 139.043L257.854 144.249C257.854 144.249 263.023 146.019 263.043 146.989L252.912 146.965L253.194 138.828L258.248 139.043Z" fill="#455A64"/>
<g opacity="0.6">
<path d="M254.741 143.686C254.543 143.732 254.399 143.947 254.436 144.147C254.474 144.347 254.691 144.495 254.89 144.453C255.088 144.411 255.269 144.158 255.21 143.964C255.15 143.769 254.886 143.609 254.703 143.698" fill="white"/>
</g>
<g opacity="0.6">
<path d="M252.911 146.966L252.939 146.146L262.722 146.509C262.722 146.509 263.046 146.652 263.094 147.063L252.911 146.966Z" fill="white"/>
</g>
<path d="M258.02 144.204C258.016 144.254 257.768 144.266 257.519 144.416C257.265 144.559 257.131 144.767 257.086 144.746C257.041 144.735 257.126 144.442 257.432 144.266C257.735 144.089 258.032 144.16 258.02 144.204Z" fill="black"/>
<path d="M259.064 144.686C259.073 144.734 258.856 144.81 258.68 145.012C258.498 145.209 258.446 145.434 258.397 145.43C258.35 145.435 258.328 145.145 258.552 144.897C258.773 144.648 259.065 144.639 259.064 144.686Z" fill="black"/>
<path d="M259.616 145.981C259.571 145.99 259.512 145.74 259.65 145.474C259.786 145.207 260.023 145.11 260.042 145.152C260.068 145.194 259.913 145.333 259.803 145.553C259.688 145.77 259.666 145.978 259.616 145.981Z" fill="black"/>
<path d="M257.978 143.008C257.955 143.052 257.731 142.975 257.451 142.983C257.171 142.985 256.95 143.07 256.926 143.027C256.899 142.99 257.118 142.815 257.449 142.811C257.778 142.804 258.004 142.97 257.978 143.008Z" fill="black"/>
<g opacity="0.3">
<path d="M258.169 140.074L258.1 141.002L253.126 140.759L253.153 139.921L258.169 140.074Z" fill="black"/>
</g>
<path d="M258.038 141.956C258.038 141.977 257.841 141.999 257.531 141.933C257.377 141.9 257.196 141.842 257.007 141.749C256.913 141.703 256.817 141.648 256.722 141.583C256.677 141.551 256.623 141.519 256.574 141.458C256.521 141.404 256.495 141.272 256.562 141.194C256.617 141.118 256.71 141.088 256.783 141.09C256.857 141.09 256.917 141.107 256.972 141.123C257.083 141.155 257.187 141.197 257.282 141.244C257.472 141.339 257.625 141.457 257.738 141.569C257.964 141.796 258.037 141.984 258.019 141.993C257.996 142.008 257.888 141.849 257.656 141.66C257.541 141.566 257.392 141.467 257.214 141.387C257.125 141.347 257.029 141.313 256.927 141.286C256.821 141.254 256.73 141.249 256.7 141.296C256.69 141.313 256.688 141.321 256.709 141.353C256.732 141.383 256.774 141.413 256.819 141.444C256.906 141.506 256.994 141.56 257.081 141.608C257.254 141.703 257.42 141.769 257.563 141.815C257.849 141.908 258.04 141.929 258.038 141.956Z" fill="black"/>
<path d="M257.971 142.025C257.953 142.032 257.862 141.851 257.857 141.53C257.855 141.371 257.879 141.179 257.949 140.978C257.984 140.877 258.03 140.775 258.09 140.675C258.153 140.577 258.231 140.446 258.423 140.432C258.524 140.432 258.604 140.513 258.629 140.581C258.66 140.651 258.664 140.71 258.674 140.769C258.688 140.888 258.681 141.004 258.66 141.111C258.62 141.325 258.525 141.501 258.423 141.626C258.215 141.881 258.006 141.931 258.003 141.915C257.987 141.889 258.163 141.8 258.325 141.554C258.404 141.433 258.477 141.272 258.504 141.084C258.518 140.991 258.52 140.892 258.506 140.791C258.495 140.683 258.458 140.594 258.417 140.604C258.367 140.601 258.278 140.679 258.233 140.763C258.178 140.851 258.132 140.942 258.097 141.033C258.026 141.213 257.991 141.387 257.978 141.535C257.953 141.831 257.998 142.018 257.971 142.025Z" fill="black"/>
<path d="M261.95 96.1735C261.95 96.1735 263.808 99.9807 264.292 102.698C264.429 103.467 258.974 142.505 258.974 142.505L252.522 142.262L255.544 105.935L254.468 98.6459L261.95 96.1735Z" fill="#263238"/>
<path d="M246.278 98.5536C246.278 98.5536 246.173 102.182 246.703 106.447C247.179 110.275 248.273 114.633 248.629 117.069C249.416 122.459 250.96 123.479 250.96 123.479L263.336 139.315L268.184 134.948L257.275 117.492C257.275 117.492 254.367 98.123 254.469 98.6451C254.571 99.1676 246.278 98.5536 246.278 98.5536Z" fill="#263238"/>
<path d="M251.201 123.702C251.198 123.705 251.238 123.761 251.317 123.867C251.406 123.982 251.523 124.133 251.669 124.322C251.986 124.73 252.427 125.298 252.969 125.995C254.063 127.427 255.56 129.386 257.213 131.55C258.867 133.723 260.375 135.683 261.49 137.083C262.047 137.784 262.505 138.345 262.826 138.729C262.981 138.911 263.104 139.057 263.198 139.168C263.285 139.268 263.332 139.318 263.336 139.315C263.339 139.312 263.3 139.256 263.22 139.151C263.131 139.036 263.014 138.884 262.867 138.695C262.551 138.288 262.109 137.72 261.567 137.022C260.473 135.59 258.977 133.631 257.323 131.466C255.67 129.294 254.162 127.334 253.046 125.935C252.49 125.234 252.032 124.673 251.711 124.288C251.556 124.106 251.432 123.96 251.338 123.849C251.252 123.749 251.205 123.699 251.201 123.702Z" fill="#455A64"/>
<path d="M249.818 101.521C249.842 101.528 249.805 101.772 249.646 102.137C249.489 102.501 249.191 102.975 248.746 103.393C248.299 103.81 247.807 104.078 247.434 104.211C247.059 104.346 246.813 104.367 246.808 104.343C246.785 104.28 247.75 104.052 248.602 103.24C249.467 102.442 249.758 101.494 249.818 101.521Z" fill="#455A64"/>
<path d="M263.176 99.3113C263.194 99.3631 262.769 99.525 262.23 99.4428C261.689 99.3647 261.329 99.0867 261.361 99.0426C261.392 98.9891 261.767 99.1648 262.26 99.2344C262.752 99.3109 263.162 99.2514 263.176 99.3113Z" fill="#455A64"/>
<path d="M256.208 104.693C256.215 104.692 256.23 104.78 256.253 104.95C256.277 105.137 256.308 105.385 256.347 105.695C256.422 106.365 256.527 107.305 256.658 108.471C256.909 110.854 257.255 114.155 257.651 117.919L257.636 117.875C258.215 118.8 258.815 119.759 259.429 120.741C261.857 124.648 264.054 128.184 265.657 130.764C266.437 132.039 267.072 133.077 267.524 133.814C267.733 134.164 267.899 134.442 268.022 134.649C268.135 134.842 268.19 134.944 268.184 134.948C268.178 134.952 268.11 134.857 267.987 134.672C267.855 134.47 267.678 134.199 267.455 133.858C266.989 133.129 266.335 132.103 265.531 130.843C263.914 128.271 261.699 124.747 259.251 120.853C258.637 119.87 258.039 118.91 257.461 117.984L257.448 117.964L257.445 117.94C257.079 114.172 256.757 110.869 256.525 108.484C256.42 107.316 256.335 106.374 256.274 105.702C256.25 105.39 256.231 105.142 256.216 104.953C256.205 104.782 256.202 104.693 256.208 104.693Z" fill="#455A64"/>
<path d="M254.329 70.671L258.196 71.911L258.49 80.0986C258.49 80.0986 260.568 89.6974 261.016 90.9205C261.894 93.3149 262.196 95.4053 262.196 95.4053C262.196 95.4053 261.452 100.836 256.025 101.475C250.598 102.114 245.547 98.996 245.547 98.996C245.547 98.996 243.734 90.9056 242.075 83.6428C240.496 76.7325 241.78 72.612 241.78 72.612L247.728 70.4775L254.329 70.671Z" fill="#97B954"/>
<path d="M257.207 75.242L253.659 75.6713L253.769 76.583L257.317 76.1537L257.207 75.242Z" fill="#FAFAFA"/>
<path d="M258.051 65.4144C257.988 65.0186 257.589 64.7074 257.19 64.7434C257.585 64.4957 257.532 63.7927 257.104 63.6069C257.5 63.0451 257.366 62.179 256.819 61.7638L252.74 67.383C253.344 67.9063 254.194 68.0856 254.989 67.9998C255.784 67.914 256.534 67.5878 257.232 67.198C257.413 67.0972 257.603 66.9787 257.68 66.7868C257.757 66.595 257.645 66.321 257.438 66.3182C257.829 66.2295 258.113 65.8102 258.051 65.4144Z" fill="#263238"/>
<path d="M247.929 62.364C247.775 62.3151 247.593 62.3758 247.5 62.5073C247.407 62.6388 247.41 62.8307 247.507 62.9594C247.265 62.9246 247.008 63.033 246.865 63.2305C246.721 63.428 246.697 63.7057 246.804 63.925C246.514 63.9178 246.212 63.9748 245.978 64.1464C245.743 64.318 245.591 64.62 245.653 64.9041C245.715 65.1882 246.026 65.4104 246.304 65.3266C246.175 65.5788 246.164 65.9094 246.344 66.1284C246.524 66.3473 246.914 66.3785 247.079 66.1486C246.928 66.3566 246.938 66.6671 247.103 66.8646C247.268 67.0621 247.572 67.1272 247.803 67.0155C247.738 67.2737 247.857 67.5676 248.083 67.7088C248.308 67.8501 248.624 67.8274 248.828 67.6558L247.929 62.364Z" fill="#263238"/>
<path d="M248.179 61.2855L248.003 71.2373C247.975 72.8622 249.207 74.2326 250.826 74.3755C252.608 74.5329 254.153 73.1508 254.193 71.3623C254.215 70.4153 254.227 69.6394 254.227 69.6394C254.227 69.6394 256.654 69.4787 256.895 67.0876C257.034 65.7063 257.073 62.5478 257.081 60.126C257.087 58.4888 255.837 57.1213 254.206 56.9768L252.76 56.8489C250.257 56.7744 248.185 58.7806 248.179 61.2855Z" fill="#FFBE9D"/>
<path d="M254.227 69.6394C254.227 69.6394 252.71 69.5945 251.191 68.4422C251.191 68.4422 251.808 70.2517 254.216 70.2473L254.227 69.6394Z" fill="#EB996E"/>
<path d="M256.414 62.5555C256.367 62.5964 256.126 62.3819 255.757 62.3503C255.39 62.3135 255.104 62.479 255.068 62.4304C255.05 62.4086 255.1 62.3321 255.225 62.2568C255.349 62.1819 255.553 62.1164 255.782 62.1374C256.011 62.1589 256.196 62.2604 256.3 62.3564C256.405 62.4535 256.436 62.5377 256.414 62.5555Z" fill="#15181E"/>
<path d="M252.506 62.7166C252.496 62.8975 252.335 63.0387 252.146 63.0323C251.957 63.0258 251.811 62.874 251.82 62.6927C251.83 62.5118 251.991 62.3701 252.18 62.3766C252.369 62.3835 252.515 62.5353 252.506 62.7166Z" fill="#15181E"/>
<path d="M256.085 63.0372C256.076 63.2181 255.915 63.3593 255.725 63.3529C255.536 63.3464 255.39 63.1946 255.4 63.0133C255.41 62.8324 255.571 62.6907 255.76 62.6972C255.949 62.7037 256.095 62.8559 256.085 63.0372Z" fill="#15181E"/>
<path d="M252.834 62.239C252.788 62.2799 252.546 62.0654 252.178 62.0338C251.811 61.997 251.524 62.1625 251.488 62.1139C251.471 62.0925 251.52 62.0156 251.646 61.9403C251.769 61.865 251.974 61.7999 252.203 61.8209C252.432 61.8424 252.617 61.944 252.72 62.0399C252.826 62.137 252.857 62.2212 252.834 62.239Z" fill="#15181E"/>
<path d="M253.928 65.0854C253.928 65.0644 254.161 65.045 254.536 65.0304C254.63 65.0292 254.721 65.0183 254.742 64.9555C254.771 64.8896 254.74 64.7847 254.704 64.6714C254.636 64.4363 254.565 64.1898 254.49 63.9316C254.194 62.8789 253.989 62.0168 254.031 62.0055C254.074 61.9938 254.348 62.8376 254.644 63.8903C254.714 64.1497 254.782 64.397 254.846 64.6334C254.872 64.743 254.922 64.8697 254.862 65.0065C254.831 65.0745 254.757 65.1194 254.695 65.1304C254.633 65.1433 254.58 65.1397 254.534 65.1385C254.16 65.1255 253.928 65.1065 253.928 65.0854Z" fill="#15181E"/>
<path d="M252.823 65.2441C252.883 65.2457 252.849 65.6452 253.166 65.9588C253.482 66.2733 253.911 66.266 253.909 66.3223C253.913 66.3478 253.808 66.3915 253.628 66.3805C253.451 66.3708 253.199 66.2915 253.005 66.0997C252.812 65.9074 252.743 65.6674 252.743 65.5027C252.743 65.3343 252.796 65.2396 252.823 65.2441Z" fill="#15181E"/>
<path d="M253.035 61.052C252.99 61.1487 252.627 61.069 252.191 61.0827C251.754 61.088 251.395 61.1835 251.346 61.0888C251.324 61.0435 251.393 60.9548 251.543 60.8706C251.691 60.7865 251.922 60.714 252.183 60.708C252.445 60.7027 252.678 60.7646 252.83 60.8427C252.982 60.92 253.055 61.0058 253.035 61.052Z" fill="#15181E"/>
<path d="M256.456 61.498C256.384 61.5757 256.138 61.4668 255.834 61.4356C255.53 61.3939 255.266 61.4421 255.214 61.3494C255.192 61.3045 255.24 61.2248 255.36 61.1556C255.478 61.0864 255.669 61.0386 255.878 61.0633C256.087 61.0884 256.262 61.1803 256.36 61.275C256.46 61.3705 256.488 61.4595 256.456 61.498Z" fill="#15181E"/>
<path d="M248.828 63.1537C248.788 63.1323 247.226 62.5219 247.134 64.1631C247.041 65.8042 248.708 65.5586 248.714 65.5116C248.719 65.4643 248.828 63.1537 248.828 63.1537Z" fill="#FFBE9D"/>
<path d="M248.247 64.8613C248.24 64.8556 248.218 64.8799 248.168 64.8993C248.12 64.9183 248.037 64.9284 247.954 64.8916C247.784 64.8184 247.653 64.5347 247.662 64.2384C247.666 64.0886 247.705 63.9482 247.765 63.8337C247.822 63.7163 247.904 63.637 247.992 63.6264C248.08 63.6111 248.139 63.6669 248.157 63.7143C248.176 63.7612 248.164 63.7936 248.173 63.7968C248.177 63.8013 248.209 63.7713 248.2 63.7029C248.195 63.6702 248.178 63.6301 248.141 63.5965C248.104 63.5621 248.047 63.5427 247.986 63.5459C247.859 63.5475 247.738 63.6576 247.673 63.7835C247.6 63.9097 247.553 64.0672 247.548 64.2356C247.54 64.5666 247.691 64.8859 247.925 64.9677C248.039 65.0041 248.137 64.975 248.189 64.939C248.242 64.9009 248.253 64.8645 248.247 64.8613Z" fill="#EB996E"/>
<path d="M247.922 63.0173C248.177 62.9788 248.588 63.2476 248.674 63.4908C248.76 63.7341 248.76 64.0008 248.845 64.244C248.931 64.4872 249.152 64.72 249.407 64.6827C249.583 64.6572 249.721 64.5067 249.781 64.3395C249.842 64.1724 249.839 63.9898 249.832 63.8122C249.804 63.0391 249.71 62.2669 249.747 61.4947C249.784 60.7221 249.965 59.9321 250.427 59.312C250.889 58.692 251.674 58.2755 252.437 58.4051C252.942 58.4909 253.385 58.7976 253.884 58.913C254.476 59.0498 255.128 58.8944 255.594 58.5054C255.654 58.4556 255.925 58.3095 255.925 58.3095C255.928 58.2699 255.921 57.9246 255.797 57.7883C254.876 56.7724 253.093 56.3539 251.739 56.57C250.386 56.7862 249.062 57.6114 248.382 58.8021C247.703 59.9928 247.719 61.7339 247.922 63.0173Z" fill="#15181E"/>
<path d="M257.382 59.7172C257.123 60.1956 256.55 60.4364 256.007 60.4437C255.463 60.4509 254.938 60.2636 254.43 60.0697C253.922 59.8758 252.545 59.5205 252.003 59.4893C251.921 59.4849 251.824 59.4748 251.787 59.4019C251.738 59.306 251.839 59.2044 251.93 59.1457C252.693 58.6499 254.448 58.4597 255.356 58.5014C256.265 58.5435 257.182 59.0166 257.605 59.8224" fill="#15181E"/>
<path d="M257.141 59.7588C257.141 59.7588 256.501 58.8454 255.224 58.6754C253.379 58.4297 249.819 59.1651 247.842 62.3766C247.842 62.3766 247.556 60.9811 247.621 60.2522C247.664 59.7653 248.211 56.8918 251.275 56.2438C251.275 56.2438 255.921 54.9256 257.141 59.7588Z" fill="#97B954"/>
<path d="M248.16 61.7638C249.218 60.4214 250.606 59.357 252.129 58.5827C253.652 57.8085 256.118 57.1273 257.803 56.8363C258.308 56.7489 258.833 56.6797 259.329 56.8112C259.825 56.9428 260.288 57.3216 260.369 57.8283C260.47 58.4625 259.285 59.3221 258.735 59.6528C258.184 59.9835 257.08 60.4424 257.08 60.4424C257.08 60.4424 257.196 59.2934 255.376 58.8931C252.9 58.3488 248.16 61.7638 248.16 61.7638Z" fill="#97B954"/>
<path d="M259.648 56.8889C259.637 56.9144 259.466 56.823 259.123 56.8088C258.783 56.7906 258.287 56.8112 257.68 56.9059C256.469 57.0969 254.809 57.513 253.071 58.2148C251.324 58.9004 249.905 59.8721 249.024 60.7229C248.58 61.1442 248.281 61.5424 248.101 61.8318C247.923 62.1236 247.853 62.3025 247.835 62.2952C247.828 62.2928 247.84 62.2463 247.87 62.1592C247.896 62.071 247.952 61.9476 248.03 61.7909C248.192 61.4825 248.481 61.06 248.92 60.6168C249.787 59.7244 251.223 58.7138 252.992 58.0197C254.749 57.3106 256.429 56.914 257.661 56.7582C258.277 56.6813 258.786 56.6825 259.133 56.727C259.306 56.7533 259.439 56.7809 259.524 56.8254C259.609 56.861 259.651 56.8824 259.648 56.8889Z" fill="#263238"/>
<path d="M253.726 57.526C253.726 57.526 254.675 57.1055 255.594 57.0691C255.42 56.9157 255.326 56.8412 255.128 56.7295C254.655 56.7809 254.173 56.8574 253.672 57.0796L253.726 57.526Z" fill="#FAFAFA"/>
<path d="M257.417 60.5743C257.566 60.3655 257.592 60.0753 257.483 59.843C257.374 59.6107 257.134 59.4456 256.879 59.4261C257.234 59.3213 257.398 58.847 257.226 58.5187C257.055 58.1909 256.627 58.0448 256.27 58.146C255.914 58.2472 255.641 58.5564 255.522 58.9069C255.373 58.6835 255.103 58.5463 254.835 58.5572C254.567 58.5681 254.309 58.7276 254.18 58.9623C254.135 58.7519 253.874 58.6507 253.664 58.6964C253.453 58.7421 253.282 58.8887 253.113 59.0218C252.944 59.155 252.752 59.2841 252.537 59.2845L252.392 59.3452C252.612 59.7248 253.144 59.8847 253.536 59.6888C253.531 59.9628 253.724 60.2283 253.987 60.3072C254.249 60.3861 254.557 60.2712 254.704 60.0401C254.77 60.4667 255.386 60.6804 255.702 60.3861C255.858 60.8762 256.569 61.075 256.957 60.737C257.166 61.0608 257.225 61.4781 257.112 61.8468C257.377 61.7877 257.598 61.5687 257.661 61.3057C257.724 61.0422 257.625 60.7471 257.417 60.5743Z" fill="#263238"/>
<path d="M250.572 60.1809C250.012 60.4472 249.449 60.7152 248.945 61.077C248.442 61.4388 247.996 61.9034 247.75 62.4721L248.55 63.2443C248.769 63.3188 248.946 63.3961 249.123 63.2471C249.3 63.0982 249.392 62.8537 249.356 62.6251C249.578 62.6894 249.835 62.6101 249.983 62.432C250.131 62.2539 250.16 61.9868 250.056 61.7804C250.215 61.7416 250.349 61.6124 250.393 61.4546C250.437 61.2968 250.39 61.1171 250.275 61.0009C250.462 60.9969 250.641 60.8686 250.705 60.6925C250.769 60.5169 250.713 60.3036 250.572 60.1809Z" fill="#263238"/>
<path d="M258.196 71.911C258.196 71.911 260.591 73.3474 261.309 74.6247C262.027 75.9016 265.858 85.2394 265.699 86.7559C265.539 88.2724 261.95 89.2299 261.95 89.2299L258.197 84.3615L259.913 83.338L258.197 80.052V71.911H258.196Z" fill="#263238"/>
<path d="M261.95 89.2299C261.95 89.2299 253.255 90.9678 250.099 87.2257L251.014 84.0486C251.014 84.0486 256.757 85.4065 258.552 84.8229L261.95 89.2299Z" fill="#FFBE9D"/>
<path d="M262.847 81.5066C262.878 81.5714 261.828 82.0117 260.731 82.8503C259.637 83.6933 258.94 84.5938 258.886 84.5477C258.865 84.5311 259.016 84.2895 259.308 83.9337C259.601 83.5792 260.043 83.1142 260.603 82.6835C261.163 82.2541 261.727 81.9469 262.145 81.7563C262.564 81.5657 262.837 81.4819 262.847 81.5066Z" fill="#97B954"/>
<path d="M260.059 83.223C260.001 83.2469 259.676 82.5378 259.276 81.6717C258.874 80.8064 258.514 80.1188 258.566 80.088C258.614 80.0589 259.06 80.7061 259.467 81.5827C259.872 82.4593 260.109 83.2028 260.059 83.223Z" fill="#97B954"/>
<path d="M258.482 79.3143C258.52 79.3062 258.424 78.6995 258.268 77.9592C258.112 77.2186 257.956 76.6249 257.919 76.6326C257.881 76.6402 257.977 77.2469 258.133 77.9876C258.288 78.7282 258.445 79.3219 258.482 79.3143Z" fill="#97B954"/>
<path d="M242.873 73.1083C243.039 73.2811 245.427 74.8639 246.225 77.5776C247.023 80.2913 247.901 83.0843 247.901 83.0843L251.014 83.4834L249.258 90.6664C249.258 90.6664 245.507 90.2673 243.432 86.8357C241.357 83.404 240.08 79.1739 240.08 79.1739C240.08 79.1739 240.345 70.4767 242.873 73.1083Z" fill="#263238"/>
<path d="M249.946 83.3466C249.946 83.3466 248.624 80.3909 248.448 80.3521C248.273 80.3132 245.722 79.4172 245.722 79.4172C245.722 79.4172 245.586 79.7677 245.722 80.0599L244.807 80.1768C244.807 80.1768 244.944 80.7418 245.255 80.8195L244.924 81.1117C244.924 81.1117 245.197 81.4861 245.547 81.6395C245.897 81.7933 246.151 81.6395 246.151 81.6395C246.151 81.6395 246.034 81.8516 246.56 82.1826C247.085 82.5137 247.981 83.0006 247.981 83.0006L249.946 83.3466Z" fill="#FFBE9D"/>
<path d="M247.98 83.0069L247.978 83.0061C247.969 83.0013 247.075 82.5156 246.556 82.1878C246.109 81.9065 246.121 81.711 246.138 81.6531C246.077 81.6831 245.844 81.7766 245.544 81.645C245.196 81.4925 244.921 81.1185 244.918 81.1149L244.914 81.11L245.24 80.8222C244.937 80.7336 244.805 80.201 244.8 80.1779L244.798 80.1706L245.712 80.0541C245.582 79.7643 245.714 79.4178 245.716 79.4142L245.718 79.4081L245.724 79.4106C245.75 79.4195 248.277 80.3066 248.45 80.3451C248.626 80.3843 249.898 83.2227 249.952 83.3437L249.957 83.355L247.98 83.0069ZM245.728 80.0569L245.732 80.0654L244.815 80.1824C244.832 80.2483 244.971 80.7417 245.256 80.8129L245.268 80.8162L244.932 81.1124C244.966 81.157 245.227 81.4917 245.55 81.6333C245.892 81.7843 246.144 81.6353 246.147 81.6337L246.168 81.6212L246.156 81.6426C246.155 81.6446 246.05 81.8539 246.563 82.1769C247.075 82.499 247.949 82.9754 247.983 82.994L249.934 83.3376C249.476 82.3137 248.582 80.3884 248.447 80.358C248.277 80.3204 245.866 79.4745 245.726 79.4251C245.709 79.4733 245.604 79.7918 245.728 80.0569Z" fill="#97B954"/>
<path d="M245.803 80.071C245.79 80.1075 246.538 80.3985 247.473 80.721C247.705 80.8052 247.938 80.8683 248.12 80.955C248.304 81.0404 248.422 81.1836 248.501 81.3184C248.654 81.5932 248.711 81.7923 248.734 81.7834C248.746 81.7794 248.727 81.5774 248.588 81.2719C248.516 81.1233 248.385 80.9452 248.179 80.8416C247.976 80.7376 247.752 80.6753 247.519 80.5903C246.583 80.2673 245.815 80.0346 245.803 80.071Z" fill="#97B954"/>
<path d="M245.208 80.821C245.202 80.8384 245.376 80.9137 245.669 80.9886C245.962 81.0675 246.374 81.1339 246.811 81.2516C247.247 81.3698 247.616 81.5548 247.845 81.7377C248.077 81.9182 248.18 82.0761 248.199 82.0627C248.213 82.0566 248.137 81.8741 247.908 81.6628C247.683 81.4495 247.299 81.2395 246.848 81.1177C246.398 80.9963 245.985 80.9461 245.69 80.8922C245.395 80.8433 245.214 80.802 245.208 80.821Z" fill="#97B954"/>
<path d="M247.546 82.1667C247.572 82.1412 247.33 81.8919 246.935 81.7523C246.54 81.6098 246.195 81.6499 246.199 81.6855C246.198 81.7264 246.521 81.7494 246.888 81.883C247.256 82.0121 247.521 82.1987 247.546 82.1667Z" fill="#97B954"/>
<path d="M250.747 84.2538L258.585 80.2944L260.023 83.2234C260.023 83.2234 252.789 90.3903 249.401 90.298" fill="#FFBE9D"/>
<path d="M245.978 75.9506C245.96 75.9554 246.001 76.1764 246.084 76.5301C246.167 76.8839 246.29 77.3703 246.435 77.905C246.58 78.44 246.718 78.9225 246.825 79.2697C246.932 79.617 247.007 79.8286 247.026 79.8234C247.044 79.8181 247.002 79.5967 246.92 79.243C246.837 78.8893 246.714 78.4032 246.569 77.8685C246.425 77.3343 246.286 76.8523 246.179 76.505C246.072 76.1586 245.997 75.9461 245.978 75.9506Z" fill="#97B954"/>
<path d="M246.316 85.6975C246.341 85.7036 246.411 85.3377 246.593 84.7752C246.689 84.4975 246.823 84.1685 247.063 83.8686C247.299 83.5719 247.65 83.2939 248.081 83.2263C248.513 83.1648 248.938 83.2995 249.324 83.3692C249.701 83.444 250.047 83.5124 250.351 83.5731C250.499 83.6011 250.629 83.6225 250.729 83.6715C250.83 83.718 250.892 83.7917 250.919 83.8649C250.976 84.0163 250.895 84.0977 250.908 84.1013C250.906 84.1134 251.018 84.0337 250.971 83.8483C250.95 83.7613 250.877 83.6618 250.765 83.6027C250.654 83.5399 250.516 83.5112 250.372 83.4772C250.069 83.408 249.725 83.3299 249.35 83.2441C248.968 83.17 248.54 83.0235 248.059 83.0891C247.58 83.1652 247.205 83.4724 246.962 83.7897C246.713 84.113 246.585 84.4587 246.499 84.7456C246.414 85.035 246.371 85.2738 246.343 85.4385C246.317 85.6036 246.307 85.6959 246.316 85.6975Z" fill="#97B954"/>
<path d="M245.248 84.1219C245.287 84.1438 245.494 83.5549 246.097 83.1425C246.69 82.7252 247.304 82.6625 247.292 82.6168C247.291 82.6002 247.138 82.5957 246.897 82.6455C246.657 82.6957 246.328 82.8106 246.017 83.0292C245.705 83.2481 245.489 83.5262 245.376 83.7451C245.261 83.9653 245.233 84.1171 245.248 84.1219Z" fill="#97B954"/>
<path d="M240.08 79.1738C240.075 79.1754 240.09 79.228 240.122 79.3268C240.16 79.4393 240.208 79.5818 240.267 79.7566C240.401 80.1468 240.584 80.681 240.808 81.3334C241.042 81.9976 241.314 82.7929 241.702 83.6436C242.109 84.4842 242.549 85.4066 243.102 86.3354C243.657 87.263 244.339 88.0567 245.058 88.6577C245.772 89.2656 246.511 89.6942 247.162 89.9706C247.816 90.2458 248.38 90.3713 248.772 90.4231C248.968 90.4486 249.121 90.4624 249.225 90.464C249.329 90.468 249.383 90.468 249.384 90.4632C249.385 90.4482 249.166 90.4393 248.781 90.3697C248.395 90.3017 247.842 90.1633 247.201 89.8804C245.927 89.3247 244.307 88.1178 243.221 86.2629C242.675 85.3462 242.229 84.4198 241.819 83.5893C241.428 82.7487 241.146 81.9591 240.901 81.2994C240.659 80.6385 240.462 80.1039 240.318 79.7372C240.249 79.566 240.193 79.4263 240.149 79.3163C240.108 79.2216 240.084 79.1722 240.08 79.1738Z" fill="#97B954"/>
<path d="M242.331 73.2956C242.317 73.3352 242.93 73.553 243.614 73.9597C244.3 74.362 244.787 74.7935 244.816 74.7623C244.841 74.7388 244.387 74.2519 243.685 73.8399C242.985 73.4243 242.339 73.262 242.331 73.2956Z" fill="#97B954"/>
<path d="M248.285 92.3649C248.281 92.3739 248.424 92.4455 248.687 92.5677C248.818 92.6304 248.98 92.7033 249.172 92.7774C249.364 92.8526 249.58 92.9457 249.826 93.0259C250.315 93.2023 250.909 93.376 251.577 93.5326C252.247 93.6811 252.993 93.8078 253.782 93.8802C254.572 93.947 255.328 93.9531 256.014 93.9244C256.7 93.8875 257.315 93.8203 257.827 93.7321C258.084 93.6965 258.312 93.6427 258.514 93.6022C258.717 93.5629 258.889 93.5196 259.028 93.4808C259.308 93.4063 259.462 93.361 259.46 93.3517C259.457 93.3424 259.299 93.3703 259.016 93.4282C258.875 93.4585 258.702 93.4941 258.499 93.5257C258.297 93.5589 258.068 93.6054 257.812 93.635C257.301 93.7103 256.689 93.7665 256.009 93.7965C255.327 93.8179 254.577 93.8082 253.794 93.7418C253.011 93.6698 252.271 93.548 251.604 93.4075C250.939 93.259 250.347 93.0963 249.858 92.9324C249.61 92.8587 249.393 92.7725 249.2 92.7045C249.006 92.6377 248.842 92.5726 248.708 92.5175C248.44 92.4111 248.289 92.356 248.285 92.3649Z" fill="#97B954"/>
<path d="M254.659 96.4417C254.668 96.4778 255.389 96.3333 256.248 96.0459C257.108 95.7602 257.771 95.4429 257.757 95.4093C257.741 95.3724 257.058 95.6307 256.204 95.914C255.351 96.1993 254.65 96.4029 254.659 96.4417Z" fill="#97B954"/>
<g opacity="0.3">
<path d="M260.65 89.4437C258.797 89.7379 257.053 89.8857 255.211 89.5242C254.546 89.3935 253.873 89.1774 253.203 89.2794C252.651 89.3632 252.157 89.6554 251.643 89.8723C249.795 90.6522 247.554 90.4203 245.905 89.2786C246.426 90.4239 247.635 91.1472 248.874 91.3621C250.114 91.577 251.388 91.3516 252.605 91.029C253.332 90.8359 254.061 90.6061 254.813 90.585C255.768 90.5583 256.703 90.8695 257.658 90.8869C258.709 90.906 259.927 90.6016 260.756 89.9549L260.65 89.4437Z" fill="#191102"/>
</g>
<g opacity="0.3">
<path d="M257.543 95.6744C256.747 97.0225 255.278 97.9497 253.719 98.089C253.382 98.1189 253.034 98.1133 252.712 98.0064C252.39 97.8996 252.094 97.6806 251.952 97.3726C252.297 97.1156 252.723 96.9966 253.138 96.8825C254.59 96.4834 256.043 96.0848 257.495 95.6857" fill="#191102"/>
</g>
<path d="M259.913 83.338C259.922 83.3493 259.796 83.4768 259.561 83.701C259.328 83.926 258.988 84.2486 258.585 84.6635C258.182 85.0771 257.706 85.5858 257.123 86.0917C256.542 86.5996 255.879 87.1201 255.178 87.6637C254.475 88.2048 253.778 88.69 253.111 89.0802C252.444 89.4708 251.803 89.7545 251.25 89.9423C250.697 90.1361 250.227 90.213 249.906 90.2669C249.581 90.3013 249.402 90.3122 249.4 90.298C249.393 90.2555 250.119 90.2053 251.2 89.8018C251.738 89.5995 252.36 89.3073 253.012 88.9131C253.664 88.5193 254.35 88.0348 255.05 87.4965C255.747 86.955 256.415 86.4386 256.996 85.9448C257.579 85.4527 258.06 84.9609 258.48 84.5578C258.899 84.1543 259.256 83.8467 259.507 83.6399C259.758 83.4339 259.903 83.3271 259.913 83.338Z" fill="#97B954"/>
<path d="M103.802 56.0291H109.044V58.827C109.044 59.9642 108.818 60.9592 108.368 61.8121C107.924 62.658 107.296 63.3167 106.485 63.7882C105.681 64.2528 104.734 64.4851 103.646 64.4851C102.55 64.4851 101.593 64.2667 100.775 63.8299C99.9568 63.3861 99.3189 62.7655 98.8612 61.9681C98.4105 61.1637 98.1851 60.2276 98.1851 59.1598V54.6978C98.1851 53.5606 98.4105 52.569 98.8612 51.7231C99.3119 50.8772 99.9394 50.2219 100.744 49.7573C101.548 49.2858 102.495 49.05 103.583 49.05C104.485 49.05 105.303 49.2373 106.038 49.6117C106.78 49.9861 107.4 50.5096 107.9 51.1822C108.406 51.8548 108.746 52.6419 108.919 53.5433H106.236C106.062 52.9053 105.719 52.4165 105.206 52.0767C104.7 51.73 104.159 51.5567 103.583 51.5567C102.723 51.5567 102.034 51.8444 101.513 52.42C101 52.9955 100.744 53.7548 100.744 54.6978V59.1598C100.744 60.0127 101.007 60.6957 101.534 61.2088C102.068 61.7219 102.772 61.9785 103.646 61.9785C104.505 61.9785 105.192 61.7046 105.705 61.1568C106.225 60.609 106.485 59.8463 106.485 58.8686V58.4109H103.802V56.0291ZM114.546 49.2061V61.1568C114.546 61.4134 114.612 61.6144 114.744 61.7601C114.875 61.9057 115.062 61.9785 115.305 61.9785H116.044V64.3603H114.692C113.859 64.3603 113.211 64.1107 112.747 63.6114C112.289 63.1122 112.06 62.4084 112.06 61.5V49.2061H114.546ZM122.482 64.4851C121.033 64.4851 119.909 64.076 119.112 63.2578C118.321 62.4327 117.926 61.2747 117.926 59.7839V58.0261C117.926 56.5492 118.321 55.405 119.112 54.5938C119.909 53.7825 121.033 53.3769 122.482 53.3769C123.931 53.3769 125.051 53.7825 125.841 54.5938C126.639 55.405 127.037 56.5492 127.037 58.0261V59.8151C127.037 61.2989 126.639 62.45 125.841 63.2682C125.051 64.0795 123.931 64.4851 122.482 64.4851ZM122.482 62.1033C123.141 62.1033 123.65 61.9022 124.011 61.5C124.371 61.0979 124.552 60.5362 124.552 59.8151V58.0261C124.552 57.305 124.371 56.7468 124.011 56.3515C123.65 55.9563 123.141 55.7587 122.482 55.7587C121.83 55.7587 121.32 55.9563 120.953 56.3515C120.592 56.7468 120.412 57.305 120.412 58.0261V59.8151C120.412 60.5362 120.592 61.0979 120.953 61.5C121.32 61.9022 121.83 62.1033 122.482 62.1033ZM134.942 64.4851C134.29 64.4851 133.725 64.3256 133.247 64.0067C132.768 63.6808 132.415 63.2231 132.186 62.6337L132.332 60.2727C132.332 60.6818 132.404 61.032 132.55 61.3232C132.696 61.6075 132.907 61.8259 133.184 61.9785C133.462 62.131 133.798 62.2073 134.193 62.2073C134.811 62.2073 135.289 62.0131 135.629 61.6248C135.968 61.2296 136.138 60.6784 136.138 59.9711V57.9429C136.138 57.2148 135.968 56.6532 135.629 56.2579C135.289 55.8558 134.811 55.6547 134.193 55.6547C133.798 55.6547 133.462 55.7309 133.184 55.8835C132.907 56.0291 132.696 56.2475 132.55 56.5388C132.404 56.8231 132.332 57.1732 132.332 57.5893L132.113 55.353C132.425 54.7221 132.831 54.2367 133.33 53.8969C133.829 53.5502 134.384 53.3769 134.994 53.3769C136.152 53.3769 137.047 53.7756 137.678 54.573C138.309 55.3634 138.624 56.4833 138.624 57.9325V59.9711C138.624 61.4064 138.302 62.5193 137.657 63.3098C137.019 64.0933 136.114 64.4851 134.942 64.4851ZM129.846 64.3291V49.2061H132.332V64.3291H129.846ZM145.957 64.4851C144.424 64.4851 143.235 64.0656 142.389 63.2266C141.543 62.3876 141.12 61.1949 141.12 59.6487V58.4317C141.12 56.8231 141.526 55.5784 142.337 54.6978C143.149 53.8172 144.293 53.3769 145.77 53.3769C147.163 53.3769 148.242 53.89 149.004 54.9162C149.767 55.9355 150.149 57.3743 150.149 59.2326V59.9399H142.816V58.1197H147.839L147.829 58.0053C147.76 57.2564 147.548 56.674 147.195 56.2579C146.841 55.835 146.366 55.6235 145.77 55.6235C145.028 55.6235 144.449 55.8592 144.033 56.3307C143.624 56.7953 143.419 57.4575 143.419 58.3173V59.6903C143.419 60.5085 143.641 61.1395 144.085 61.5832C144.528 62.0201 145.153 62.2385 145.957 62.2385C146.366 62.2385 146.768 62.1622 147.163 62.0097C147.566 61.8502 147.926 61.6318 148.245 61.3544L149.868 62.873C149.32 63.3861 148.703 63.7848 148.016 64.0691C147.337 64.3464 146.65 64.4851 145.957 64.4851ZM154.257 58.4629V56.0811H159.093C159.697 56.0811 160.182 55.8766 160.549 55.4675C160.924 55.0514 161.111 54.5106 161.111 53.8449C161.111 53.1584 160.927 52.6106 160.56 52.2015C160.192 51.7924 159.704 51.5879 159.093 51.5879H154.257V49.2061H159.021C159.957 49.2061 160.771 49.4002 161.465 49.7885C162.158 50.1699 162.699 50.7073 163.087 51.4007C163.476 52.0941 163.67 52.9088 163.67 53.8449C163.67 54.7741 163.476 55.5853 163.087 56.2787C162.699 56.9721 162.155 57.5095 161.454 57.8909C160.761 58.2723 159.95 58.4629 159.021 58.4629H154.257ZM153.061 64.3291V49.2061H155.547V64.3291H153.061ZM169.432 64.4851C167.983 64.4851 166.859 64.076 166.062 63.2578C165.272 62.4327 164.876 61.2747 164.876 59.7839V58.0261C164.876 56.5492 165.272 55.405 166.062 54.5938C166.859 53.7825 167.983 53.3769 169.432 53.3769C170.881 53.3769 172.001 53.7825 172.791 54.5938C173.589 55.405 173.988 56.5492 173.988 58.0261V59.8151C173.988 61.2989 173.589 62.45 172.791 63.2682C172.001 64.0795 170.881 64.4851 169.432 64.4851ZM169.432 62.1033C170.091 62.1033 170.6 61.9022 170.961 61.5C171.321 61.0979 171.502 60.5362 171.502 59.8151V58.0261C171.502 57.305 171.321 56.7468 170.961 56.3515C170.6 55.9563 170.091 55.7587 169.432 55.7587C168.78 55.7587 168.27 55.9563 167.903 56.3515C167.542 56.7468 167.362 57.305 167.362 58.0261V59.8151C167.362 60.5362 167.542 61.0979 167.903 61.5C168.27 61.9022 168.78 62.1033 169.432 62.1033ZM176.796 64.3291V53.5329H179.386V64.3291H176.796ZM182.808 56.3099C182.641 56.1297 182.437 55.9944 182.194 55.9043C181.951 55.8072 181.67 55.7587 181.351 55.7587C180.727 55.7587 180.242 55.9459 179.895 56.3203C179.556 56.6878 179.386 57.201 179.386 57.8597L179.167 55.4155C179.479 54.7775 179.885 54.2783 180.384 53.9177C180.89 53.5571 181.445 53.3769 182.048 53.3769C182.52 53.3769 182.946 53.4497 183.328 53.5953C183.709 53.734 184.042 53.942 184.326 54.2193L182.808 56.3099ZM188.799 64.3811C187.876 64.3811 187.207 64.1349 186.791 63.6426C186.375 63.1503 186.167 62.4431 186.167 61.5208V50.3918H188.653V61.1776C188.653 61.4342 188.705 61.6352 188.809 61.7809C188.913 61.9265 189.066 61.9993 189.267 61.9993H190.13V64.3811H188.799ZM185.054 55.7067V53.5329H190.13V55.7067H185.054ZM197.359 64.4851C195.826 64.4851 194.637 64.0656 193.791 63.2266C192.945 62.3876 192.522 61.1949 192.522 59.6487V58.4317C192.522 56.8231 192.928 55.5784 193.739 54.6978C194.55 53.8172 195.694 53.3769 197.171 53.3769C198.565 53.3769 199.643 53.89 200.406 54.9162C201.169 55.9355 201.55 57.3743 201.55 59.2326V59.9399H194.218V58.1197H199.241L199.231 58.0053C199.161 57.2564 198.95 56.674 198.596 56.2579C198.243 55.835 197.768 55.6235 197.171 55.6235C196.429 55.6235 195.85 55.8592 195.434 56.3307C195.025 56.7953 194.821 57.4575 194.821 58.3173V59.6903C194.821 60.5085 195.043 61.1395 195.486 61.5832C195.93 62.0201 196.554 62.2385 197.359 62.2385C197.768 62.2385 198.17 62.1622 198.565 62.0097C198.967 61.8502 199.328 61.6318 199.647 61.3544L201.269 62.873C200.722 63.3861 200.104 63.7848 199.418 64.0691C198.738 64.3464 198.052 64.4851 197.359 64.4851ZM204.254 64.3291V53.5329H206.844V64.3291H204.254ZM210.266 56.3099C210.1 56.1297 209.895 55.9944 209.653 55.9043C209.41 55.8072 209.129 55.7587 208.81 55.7587C208.186 55.7587 207.701 55.9459 207.354 56.3203C207.014 56.6878 206.844 57.201 206.844 57.8597L206.626 55.4155C206.938 54.7775 207.344 54.2783 207.843 53.9177C208.349 53.5571 208.904 53.3769 209.507 53.3769C209.978 53.3769 210.405 53.4497 210.786 53.5953C211.168 53.734 211.5 53.942 211.785 54.2193L210.266 56.3099Z" fill="white"/>
<path d="M213.452 62.9897L216.082 51.9268L227.302 47.0649L224.44 57.4819L213.452 62.9897Z" fill="white"/>
<path d="M223.432 56.6415L217.083 52.7059L215.188 60.5163L223.432 56.6415Z" fill="#51B848"/>
</svg>
