<svg width="169" height="151" viewBox="0 0 169 151" fill="none" xmlns="http://www.w3.org/2000/svg">
<path d="M38.2793 63.3514L46.0762 120.177L91.2867 150.155L145.293 115.802L144.037 60.1998L38.2793 63.3514Z" fill="#249C1A"/>
<path d="M91.2835 150.47L91.141 150.376L45.831 120.332L45.8152 120.213L37.9775 63.0958L144.295 59.9273L144.301 60.1933L145.559 115.944L91.2835 150.47ZM46.3211 120.023L91.2895 149.84L145.026 115.658L143.78 60.4718L38.5802 63.6065L46.3211 120.023Z" fill="#51B848"/>
<g opacity="0.5">
<path d="M118.88 124.153L145.067 105.809L144.037 60.1998L80.4932 62.0934L86.7731 93.8924L118.88 124.153Z" fill="#1C7E13"/>
</g>
<path d="M38.2793 63.3515L46.0762 120.177L91.2867 150.155L84.2137 61.9822L38.2793 63.3515Z" fill="#51B848"/>
<path d="M91.593 150.675L91.1405 150.376L45.8304 120.332L45.8147 120.213L37.9775 63.0958L84.4559 61.7108L91.593 150.675ZM46.3211 120.023L90.98 149.635L83.9702 62.2542L38.5802 63.6071L46.3211 120.023Z" fill="#51B848"/>
<path opacity="0.5" d="M86.3051 88.0536L84.2137 61.9828L38.2793 63.3514L45.981 119.261C49.9705 116.445 60.2765 106.07 86.7734 93.8929L86.6776 92.6976C86.1898 91.1043 86.1 89.5503 86.3051 88.0536Z" fill="#1C7E13"/>
<path d="M91.8137 35.3396L91.5869 84.7913L92.3582 90.641L144.037 60.1998L91.8137 35.3396Z" fill="#157A0C"/>
<path d="M92.1492 91.0705L91.3252 84.8257L91.5526 34.9221L144.6 60.1748L144.171 60.4271L92.1492 91.0705ZM92.0763 35.7566L91.8512 84.7924L92.568 90.211L143.475 60.2249L92.0763 35.7566Z" fill="#0F7805"/>
<path d="M91.8137 35.3396L38.2793 63.3514L87.0595 93.7616L92.3582 90.641L91.5869 84.7913L91.8137 35.3396Z" fill="#13650C"/>
<path d="M87.0558 94.0706L37.748 63.3307L92.0804 34.9019L91.8514 84.7924L92.6433 90.7795L87.0558 94.0706ZM38.8108 63.3711L87.0629 93.4531L92.0733 90.502L91.3249 84.8262L91.5479 35.7768L38.8108 63.3711Z" fill="#0F7805"/>
<g opacity="0.5">
<path d="M92.3578 90.641L91.5865 84.7913L91.8133 35.3396L89.4207 36.5917C88.8664 47.4037 86.2562 68.4893 74.875 86.1665L87.0585 93.7621L92.3578 90.641Z" fill="#053900"/>
</g>
<g opacity="0.5">
<path d="M91.8137 35.3396L91.5869 84.7913L92.3582 90.641L109.971 80.2661C98.6071 64.4814 95.9044 45.6633 95.267 36.9836L91.8137 35.3396Z" fill="#0B4E06"/>
</g>
<path d="M87.0558 94.0706L37.748 63.3307L91.809 35.0436L91.9281 35.1003L144.601 60.1742L144.172 60.4266L87.0558 94.0706ZM38.8108 63.371L87.0634 93.453L143.475 60.2243L91.8193 35.6345L38.8108 63.371Z" fill="#FF0000"/>
<path d="M97.5052 87.6088L91.5865 84.7913L81.3018 90.1728L87.059 93.7616L97.5052 87.6088Z" fill="#062F02"/>
<path d="M87.0553 94.0706L80.7705 90.1526L91.5812 84.4959L98.0683 87.5843L87.0553 94.0706ZM81.8338 90.193L87.0635 93.4531L96.943 87.6333L91.5926 85.0862L81.8338 90.193Z" fill="#092F05"/>
<path d="M91.8135 35.3396C91.8135 35.3396 99.3313 14.2835 114.787 0.643066L166.969 27.5931C166.969 27.5931 153.631 30.9098 144.037 60.2004L91.8135 35.3396Z" fill="#51B848"/>
<path d="M144.195 60.5672L143.924 60.438L91.4854 35.4754L91.5658 35.2502C91.6409 35.0387 99.2839 13.9728 114.613 0.444109L114.748 0.324738L114.909 0.407588L167.712 27.6781L167.033 27.8487C166.902 27.882 153.712 31.5072 144.288 60.2821L144.195 60.5672ZM92.1456 35.2045L143.881 59.8319C152.345 34.2021 163.523 28.5671 166.286 27.5364L114.828 0.959747C100.539 13.6485 93.0072 32.9102 92.1456 35.2045Z" fill="#51B848"/>
<path d="M87.0596 93.7616C87.0596 93.7616 109.455 108.314 119.143 117.704L168.082 83.3294C168.082 83.3294 161.519 66.7325 144.037 60.1993L87.0596 93.7616Z" fill="#51B848"/>
<path d="M119.116 118.047L118.959 117.895C109.4 108.63 87.1396 94.1284 86.9155 93.9834L86.5576 93.7507L144.012 59.9077L144.129 59.9518C161.52 66.4513 168.262 83.0656 168.328 83.2324L168.405 83.4265L119.116 118.047ZM87.56 93.7736C90.4574 95.6748 110.168 108.71 119.169 117.364L167.757 83.2362C166.956 81.3759 160.136 66.5576 144.063 60.4915L87.56 93.7736Z" fill="#51B848"/>
<path d="M38.2785 63.3514L13.3301 33.379C13.3301 33.379 33.2386 18.3279 72.9862 3.39404C72.9862 3.39404 89.3468 28.0378 91.8129 35.3396L38.2785 63.3514Z" fill="#51B848"/>
<path d="M38.2124 63.6839L38.0765 63.5204L12.9502 33.3349L13.1716 33.1675C13.2216 33.1299 18.2761 29.3297 28.1235 23.7563C37.2057 18.6152 52.3458 10.867 72.894 3.14658L73.0904 3.073L73.2062 3.24742C73.8752 4.25526 89.6142 28.0041 92.0634 35.2546L92.1357 35.4688L38.2124 63.6839ZM13.7122 33.4253L38.3451 63.0184L91.4896 35.211C88.9441 28.1043 74.3397 5.92046 72.8826 3.71564C52.4725 11.3968 37.4314 19.0965 28.3955 24.2104C19.7278 29.1155 14.787 32.6393 13.7122 33.4253Z" fill="#51B848"/>
<path d="M38.2793 63.3514C38.2793 63.3514 15.531 62.6276 1 75.6592L45.4126 112.203C45.4126 112.203 61.8423 99.4221 87.0594 93.7616L38.2793 63.3514Z" fill="#51B848"/>
<path d="M45.4076 112.541L45.245 112.407L0.594727 75.6684L0.824255 75.4624C15.2666 62.5098 38.0573 63.0795 38.2874 63.0871L38.3586 63.0898L38.4185 63.1269L87.7463 93.8788L87.117 94.0199C62.2448 99.6031 45.7378 112.285 45.5741 112.412L45.4076 112.541ZM1.40569 75.6515L45.4191 111.866C47.2129 110.524 63.0764 99.0161 86.3751 93.6466L38.2009 63.6136C36.8063 63.5836 15.3019 63.4038 1.40569 75.6515Z" fill="#51B848"/>
<g opacity="0.5">
<path d="M146.017 61.0087C145.372 60.7264 144.716 60.4533 144.037 60.1998L87.0596 93.7621C87.0596 93.7621 109.455 108.315 119.143 117.705L119.396 117.527C120.781 86.602 137.265 68.4975 146.017 61.0087Z" fill="#B3FDAD"/>
</g>
<g opacity="0.5">
<path d="M87.0597 93.7616L38.2796 63.3509C38.2796 63.3509 37.3849 63.3231 35.8418 63.3787C43.971 70.4515 59.5724 88.2814 44.6819 111.601L45.4129 112.202C45.4129 112.202 61.8421 99.4221 87.0597 93.7616Z" fill="#69C961"/>
</g>
<g opacity="0.5">
<path d="M115.824 1.17833L114.787 0.643066C99.3319 14.2835 91.8135 35.3396 91.8135 35.3396L144.037 60.1998C144.352 59.2378 144.671 58.3057 144.994 57.3987C116.798 39.299 115.053 12.784 115.824 1.17833Z" fill="#82DA7A"/>
</g>
<path opacity="0.5" d="M153.14 66.4927C153.14 66.4927 162.02 73.9787 165.994 82.3352C135.731 104.233 135.731 104.233 135.731 104.233C135.731 104.233 156.019 86.7563 158.711 82.8972C161.403 79.0381 153.14 66.4927 153.14 66.4927Z" fill="#D9DA8B"/>
<path opacity="0.5" d="M120.322 5.36667L162.544 27.2224C162.544 27.2224 152.378 34.1372 145.823 51.1238C146.931 38.6733 155.024 29.7641 146.301 23.233C137.579 16.7014 120.322 5.36667 120.322 5.36667Z" fill="#94C969"/>
<path opacity="0.5" d="M25.5557 66.0643C25.5557 66.0643 15.835 66.4943 4.17969 75.2302C31.5757 97.2113 37.9513 102.466 37.9513 102.466C37.9513 102.466 17.8861 84.3198 13.4087 78.5982C8.93179 72.8766 18.1978 68.1682 25.5557 66.0643Z" fill="#72C058"/>
<g opacity="0.5">
<path d="M91.8139 35.3396C89.3479 28.0378 72.9872 3.39404 72.9872 3.39404C72.7903 3.46817 72.6016 3.54176 72.4058 3.61589C77.5533 14.1151 85.206 41.4079 37.251 61.8509L38.2795 63.3509L91.8139 35.3396Z" fill="#69C961"/>
</g>
<path opacity="0.5" d="M70.4306 5.75256C70.4306 5.75256 32.0455 22.1718 17.0332 32.5003C29.3331 47.9537 37.068 58.1874 37.068 58.1874C37.068 58.1874 24.1888 38.5321 25.6095 33.3398C27.0296 28.1474 70.4306 5.75256 70.4306 5.75256Z" fill="#72C058"/>
</svg>
