<svg width="83" height="53" viewBox="0 0 83 53" fill="none" xmlns="http://www.w3.org/2000/svg">
<path d="M34.588 32.56L27.46 13.624C26.884 12.16 26.296 10.3 25.696 8.044C25.432 9.172 25.144 10.216 24.832 11.176C24.52 12.112 24.232 12.94 23.968 13.66L16.84 32.56H34.588ZM50.536 52H44.02C43.276 52 42.676 51.82 42.22 51.46C41.764 51.076 41.416 50.608 41.176 50.056L36.856 38.608H14.536L10.216 50.056C10.024 50.536 9.688 50.98 9.208 51.388C8.728 51.796 8.128 52 7.408 52H0.892L21.448 0.159998H29.98L50.536 52ZM74.7657 35.944C72.0057 36.04 69.6777 36.268 67.7817 36.628C65.8857 36.964 64.3497 37.408 63.1737 37.96C61.9977 38.488 61.1457 39.124 60.6177 39.868C60.1137 40.612 59.8617 41.428 59.8617 42.316C59.8617 43.18 59.9937 43.924 60.2577 44.548C60.5457 45.148 60.9297 45.652 61.4097 46.06C61.9137 46.444 62.4897 46.732 63.1377 46.924C63.8097 47.092 64.5417 47.176 65.3337 47.176C67.3497 47.176 69.0777 46.804 70.5177 46.06C71.9817 45.292 73.3977 44.188 74.7657 42.748V35.944ZM54.2457 20.392C58.3977 16.528 63.3417 14.596 69.0777 14.596C71.1897 14.596 73.0617 14.944 74.6937 15.64C76.3497 16.312 77.7297 17.272 78.8337 18.52C79.9617 19.768 80.8137 21.256 81.3897 22.984C81.9897 24.688 82.2897 26.584 82.2897 28.672V52H78.8337C78.0897 52 77.5257 51.892 77.1417 51.676C76.7577 51.436 76.4337 50.968 76.1697 50.272L75.4137 47.284C74.4777 48.124 73.5537 48.88 72.6417 49.552C71.7297 50.2 70.7817 50.752 69.7977 51.208C68.8377 51.664 67.7937 52 66.6657 52.216C65.5617 52.456 64.3377 52.576 62.9937 52.576C61.5057 52.576 60.1137 52.372 58.8177 51.964C57.5457 51.556 56.4417 50.944 55.5057 50.128C54.5697 49.288 53.8257 48.256 53.2737 47.032C52.7457 45.808 52.4817 44.368 52.4817 42.712C52.4817 41.296 52.8537 39.916 53.5977 38.572C54.3657 37.228 55.6137 36.028 57.3417 34.972C59.0937 33.892 61.3857 33.004 64.2177 32.308C67.0737 31.612 70.5897 31.216 74.7657 31.12V28.672C74.7657 26.032 74.2017 24.064 73.0737 22.768C71.9457 21.472 70.2897 20.824 68.1057 20.824C66.6177 20.824 65.3697 21.016 64.3617 21.4C63.3537 21.76 62.4777 22.156 61.7337 22.588C60.9897 23.02 60.3297 23.428 59.7537 23.812C59.1777 24.172 58.5657 24.352 57.9177 24.352C57.3897 24.352 56.9337 24.22 56.5497 23.956C56.1897 23.668 55.8897 23.32 55.6497 22.912L54.2457 20.392Z" fill="white"/>
</svg>
