<svg width="56" height="47" viewBox="0 0 56 47" fill="none" xmlns="http://www.w3.org/2000/svg">
<path d="M47.95 6.226V47H41.956V6.226H36.554V0.971997H55.646V6.226H47.95ZM20.126 0.231998C22.938 0.231998 25.2073 0.725331 26.934 1.712C28.71 2.69867 29.9927 4.006 30.782 5.634C31.5713 7.21267 31.966 8.964 31.966 10.888C31.966 14.3413 30.6833 17.1533 28.118 19.324C25.602 21.4947 21.4087 22.8267 15.538 23.32L14.354 18.066C17.462 17.6713 19.8547 17.178 21.532 16.586C23.2093 15.9447 24.3687 15.1553 25.01 14.218C25.7007 13.2807 26.046 12.146 26.046 10.814C26.046 9.186 25.528 7.90333 24.492 6.966C23.456 5.97933 21.9267 5.486 19.904 5.486C18.2267 5.486 16.574 5.73266 14.946 6.226C13.3673 6.71933 11.7887 7.45933 10.21 8.446L8.286 3.266C10.0127 2.27933 11.838 1.53933 13.762 1.046C15.7353 0.503331 17.8567 0.231998 20.126 0.231998ZM33.15 31.016C33.15 34.6173 31.966 37.4293 29.598 39.452C27.23 41.4253 24.2207 42.412 20.57 42.412C17.61 42.412 14.946 41.7707 12.578 40.488C10.2593 39.156 8.08867 36.9853 6.066 33.976C4.04333 30.9173 2.07 26.7733 0.146 21.544L5.4 19.398C7.42267 25.17 9.56867 29.5607 11.838 32.57C14.1073 35.53 16.8453 37.01 20.052 37.01C22.2227 37.01 23.974 36.4427 25.306 35.308C26.638 34.124 27.304 32.4713 27.304 30.35C27.304 28.1793 26.5147 26.3047 24.936 24.726C23.3573 23.098 21.606 21.7413 19.682 20.656L22.938 19.694L26.12 19.028C26.8107 19.5707 27.5753 20.2367 28.414 21.026C29.2527 21.8153 29.9187 22.58 30.412 23.32L31.152 24.726C31.7933 25.6633 32.2867 26.6747 32.632 27.76C32.9773 28.796 33.15 29.8813 33.15 31.016ZM34.63 20.952C36.3567 20.952 38.182 20.7793 40.106 20.434C42.0793 20.0887 44.102 19.472 46.174 18.584V24.134C44.4967 24.9233 42.7947 25.466 41.068 25.762C39.3413 26.058 37.59 26.206 35.814 26.206C34.5807 26.206 33.224 26.1073 31.744 25.91C30.3133 25.6633 28.9073 25.3427 27.526 24.948L26.046 20.952L26.49 19.842C27.7727 20.2367 29.1293 20.5327 30.56 20.73C31.9907 20.878 33.3473 20.952 34.63 20.952Z" fill="white"/>
</svg>
