<svg width="113" height="22" viewBox="0 0 113 22" fill="none" xmlns="http://www.w3.org/2000/svg">
<path d="M6.12083 8.81703H10.6574V11.2384C10.6574 12.2225 10.4624 13.0836 10.0724 13.8217C9.68831 14.5538 9.14524 15.1239 8.44314 15.5319C7.74705 15.934 6.92794 16.135 5.98581 16.135C5.03768 16.135 4.20957 15.946 3.50147 15.5679C2.79338 15.1839 2.2413 14.6468 1.84525 13.9567C1.4552 13.2606 1.26017 12.4505 1.26017 11.5264V7.66487C1.26017 6.68074 1.4552 5.82262 1.84525 5.09052C2.2353 4.35842 2.77838 3.79134 3.47447 3.38929C4.17057 2.98123 4.98968 2.77721 5.9318 2.77721C6.71191 2.77721 7.42001 2.93923 8.05609 3.26327C8.69818 3.58732 9.23525 4.04038 9.66731 4.62246C10.1054 5.20454 10.3994 5.88563 10.5494 6.66573H8.22712C8.0771 6.11366 7.78005 5.6906 7.33599 5.39656C6.89794 5.09652 6.42987 4.9465 5.9318 4.9465C5.1877 4.9465 4.59062 5.19553 4.14056 5.6936C3.6965 6.19167 3.47447 6.84876 3.47447 7.66487V11.5264C3.47447 12.2645 3.7025 12.8556 4.15856 13.2996C4.62063 13.7437 5.22971 13.9657 5.98581 13.9657C6.72991 13.9657 7.32399 13.7287 7.76805 13.2546C8.21811 12.7806 8.44314 12.1205 8.44314 11.2744V10.8783H6.12083V8.81703ZM15.4191 2.91223V13.2546C15.4191 13.4767 15.4761 13.6507 15.5901 13.7767C15.7041 13.9027 15.8662 13.9657 16.0762 13.9657H16.7153V16.027H15.5451C14.825 16.027 14.2639 15.811 13.8619 15.3789C13.4658 14.9469 13.2678 14.3378 13.2678 13.5517V2.91223H15.4191ZM22.287 16.135C21.0329 16.135 20.0607 15.781 19.3706 15.0729C18.6865 14.3588 18.3445 13.3566 18.3445 12.0665V10.5453C18.3445 9.26709 18.6865 8.27695 19.3706 7.57486C20.0607 6.87276 21.0329 6.52171 22.287 6.52171C23.5412 6.52171 24.5103 6.87276 25.1944 7.57486C25.8845 8.27695 26.2296 9.26709 26.2296 10.5453V12.0935C26.2296 13.3776 25.8845 14.3738 25.1944 15.0819C24.5103 15.784 23.5412 16.135 22.287 16.135ZM22.287 14.0737C22.8571 14.0737 23.2982 13.8997 23.6102 13.5517C23.9222 13.2036 24.0783 12.7176 24.0783 12.0935V10.5453C24.0783 9.92118 23.9222 9.43811 23.6102 9.09606C23.2982 8.75402 22.8571 8.58299 22.287 8.58299C21.7229 8.58299 21.2819 8.75402 20.9638 9.09606C20.6518 9.43811 20.4958 9.92118 20.4958 10.5453V12.0935C20.4958 12.7176 20.6518 13.2036 20.9638 13.5517C21.2819 13.8997 21.7229 14.0737 22.287 14.0737ZM33.0705 16.135C32.5064 16.135 32.0173 15.997 31.6033 15.721C31.1892 15.4389 30.8832 15.0429 30.6852 14.5328L30.8112 12.4895C30.8112 12.8436 30.8742 13.1466 31.0002 13.3986C31.1262 13.6447 31.3092 13.8337 31.5493 13.9657C31.7893 14.0977 32.0804 14.1638 32.4224 14.1638C32.9565 14.1638 33.3705 13.9957 33.6646 13.6597C33.9586 13.3176 34.1056 12.8406 34.1056 12.2285V10.4733C34.1056 9.84317 33.9586 9.3571 33.6646 9.01505C33.3705 8.66701 32.9565 8.49298 32.4224 8.49298C32.0804 8.49298 31.7893 8.55899 31.5493 8.69101C31.3092 8.81703 31.1262 9.00605 31.0002 9.25809C30.8742 9.50412 30.8112 9.80716 30.8112 10.1672L30.6222 8.23195C30.8922 7.68587 31.2432 7.26582 31.6753 6.97178C32.1074 6.67174 32.5874 6.52171 33.1155 6.52171C34.1176 6.52171 34.8917 6.86676 35.4378 7.55686C35.9839 8.24095 36.2569 9.21008 36.2569 10.4642V12.2285C36.2569 13.4707 35.9779 14.4338 35.4198 15.1179C34.8677 15.796 34.0846 16.135 33.0705 16.135ZM28.6599 16V2.91223H30.8112V16H28.6599ZM42.6028 16.135C41.2766 16.135 40.2475 15.772 39.5154 15.0459C38.7833 14.3198 38.4172 13.2876 38.4172 11.9495V10.8963C38.4172 9.50412 38.7683 8.42697 39.4704 7.66487C40.1724 6.90277 41.1626 6.52171 42.4408 6.52171C43.6469 6.52171 44.58 6.96577 45.2401 7.8539C45.9002 8.73601 46.2303 9.98118 46.2303 11.5894V12.2015H39.8844V10.6263H44.232L44.223 10.5273C44.163 9.87917 43.98 9.3751 43.6739 9.01505C43.3679 8.649 42.9568 8.46598 42.4408 8.46598C41.7987 8.46598 41.2976 8.67001 40.9376 9.07806C40.5835 9.48012 40.4065 10.0532 40.4065 10.7973V11.9855C40.4065 12.6936 40.5985 13.2396 40.9826 13.6237C41.3666 14.0017 41.9067 14.1908 42.6028 14.1908C42.9568 14.1908 43.3049 14.1247 43.6469 13.9927C43.995 13.8547 44.307 13.6657 44.583 13.4257L45.9872 14.7398C45.5132 15.1839 44.9791 15.5289 44.385 15.775C43.7969 16.015 43.2029 16.135 42.6028 16.135ZM49.7857 10.9233V8.86203H53.9713C54.4934 8.86203 54.9134 8.68501 55.2315 8.33096C55.5555 7.97091 55.7176 7.50285 55.7176 6.92677C55.7176 6.33269 55.5585 5.85862 55.2405 5.50458C54.9224 5.15053 54.4994 4.9735 53.9713 4.9735H49.7857V2.91223H53.9083C54.7184 2.91223 55.4235 3.08025 56.0236 3.41629C56.6237 3.74634 57.0917 4.2114 57.4278 4.81148C57.7638 5.41156 57.9319 6.11666 57.9319 6.92677C57.9319 7.73088 57.7638 8.43297 57.4278 9.03306C57.0917 9.63314 56.6207 10.0982 56.0146 10.4282C55.4145 10.7583 54.7124 10.9233 53.9083 10.9233H49.7857ZM48.7506 16V2.91223H50.9019V16H48.7506ZM62.9185 16.135C61.6644 16.135 60.6922 15.781 60.0021 15.0729C59.318 14.3588 58.976 13.3566 58.976 12.0665V10.5453C58.976 9.26709 59.318 8.27695 60.0021 7.57486C60.6922 6.87276 61.6644 6.52171 62.9185 6.52171C64.1727 6.52171 65.1418 6.87276 65.8259 7.57486C66.516 8.27695 66.8611 9.26709 66.8611 10.5453V12.0935C66.8611 13.3776 66.516 14.3738 65.8259 15.0819C65.1418 15.784 64.1727 16.135 62.9185 16.135ZM62.9185 14.0737C63.4886 14.0737 63.9297 13.8997 64.2417 13.5517C64.5538 13.2036 64.7098 12.7176 64.7098 12.0935V10.5453C64.7098 9.92118 64.5538 9.43811 64.2417 9.09606C63.9297 8.75402 63.4886 8.58299 62.9185 8.58299C62.3545 8.58299 61.9134 8.75402 61.5954 9.09606C61.2833 9.43811 61.1273 9.92118 61.1273 10.5453V12.0935C61.1273 12.7176 61.2833 13.2036 61.5954 13.5517C61.9134 13.8997 62.3545 14.0737 62.9185 14.0737ZM69.2914 16V6.65673H71.5327V16H69.2914ZM74.4941 9.06006C74.3501 8.90404 74.1731 8.78702 73.963 8.70901C73.753 8.625 73.51 8.58299 73.2339 8.58299C72.6939 8.58299 72.2738 8.74502 71.9738 9.06906C71.6797 9.3871 71.5327 9.83116 71.5327 10.4012L71.3437 8.28595C71.6137 7.73388 71.9648 7.30182 72.3968 6.98978C72.8349 6.67774 73.3149 6.52171 73.837 6.52171C74.2451 6.52171 74.6141 6.58472 74.9442 6.71074C75.2742 6.83076 75.5622 7.01078 75.8083 7.25081L74.4941 9.06006ZM79.6788 16.045C78.8807 16.045 78.3016 15.832 77.9416 15.4059C77.5815 14.9799 77.4015 14.3678 77.4015 13.5697V3.93836H79.5528V13.2726C79.5528 13.4947 79.5978 13.6687 79.6878 13.7947C79.7778 13.9207 79.9098 13.9837 80.0839 13.9837H80.831V16.045H79.6788ZM76.4384 8.53799V6.65673H80.831V8.53799H76.4384ZM87.0868 16.135C85.7606 16.135 84.7315 15.772 83.9994 15.0459C83.2673 14.3198 82.9012 13.2876 82.9012 11.9495V10.8963C82.9012 9.50412 83.2523 8.42697 83.9544 7.66487C84.6565 6.90277 85.6466 6.52171 86.9248 6.52171C88.131 6.52171 89.0641 6.96577 89.7242 7.8539C90.3843 8.73601 90.7143 9.98118 90.7143 11.5894V12.2015H84.3684V10.6263H88.716L88.707 10.5273C88.647 9.87917 88.464 9.3751 88.158 9.01505C87.8519 8.649 87.4409 8.46598 86.9248 8.46598C86.2827 8.46598 85.7816 8.67001 85.4216 9.07806C85.0675 9.48012 84.8905 10.0532 84.8905 10.7973V11.9855C84.8905 12.6936 85.0825 13.2396 85.4666 13.6237C85.8506 14.0017 86.3907 14.1908 87.0868 14.1908C87.4409 14.1908 87.7889 14.1247 88.131 13.9927C88.479 13.8547 88.791 13.6657 89.0671 13.4257L90.4713 14.7398C89.9972 15.1839 89.4631 15.5289 88.8691 15.775C88.281 16.015 87.6869 16.135 87.0868 16.135ZM93.0546 16V6.65673H95.2959V16H93.0546ZM98.2573 9.06006C98.1133 8.90404 97.9363 8.78702 97.7263 8.70901C97.5162 8.625 97.2732 8.58299 96.9972 8.58299C96.4571 8.58299 96.037 8.74502 95.737 9.06906C95.4429 9.3871 95.2959 9.83116 95.2959 10.4012L95.1069 8.28595C95.3769 7.73388 95.728 7.30182 96.16 6.98978C96.5981 6.67774 97.0782 6.52171 97.6002 6.52171C98.0083 6.52171 98.3773 6.58472 98.7074 6.71074C99.0374 6.83076 99.3255 7.01078 99.5715 7.25081L98.2573 9.06006Z" fill="white"/>
<path d="M101.014 15.2837L103.29 5.70971L113 1.50207L110.523 10.5171L101.014 15.2837Z" fill="white"/>
<path d="M109.651 9.78979L104.157 6.3838L102.516 13.1431L109.651 9.78979Z" fill="#51B848"/>
</svg>
