<svg width="332" height="76" viewBox="0 0 332 76" fill="none" xmlns="http://www.w3.org/2000/svg">
<path d="M16.2997 24.8718H28.3807V31.3198C28.3807 33.9405 27.8613 36.2337 26.8226 38.1992C25.7999 40.1488 24.3537 41.6669 22.484 42.7536C20.6303 43.8242 18.449 44.3596 15.9402 44.3596C13.4153 44.3596 11.21 43.8562 9.3244 42.8494C7.43874 41.8267 5.96857 40.3965 4.91388 38.5588C3.87518 36.7051 3.35582 34.5478 3.35582 32.0868V21.8036C3.35582 19.1829 3.87518 16.8977 4.91388 14.9482C5.95259 12.9986 7.39879 11.4885 9.25249 10.4178C11.1062 9.33114 13.2875 8.78782 15.7963 8.78782C17.8738 8.78782 19.7594 9.21928 21.4533 10.0822C23.1632 10.9451 24.5934 12.1516 25.744 13.7017C26.9105 15.2518 27.6935 17.0655 28.093 19.1429H21.9087C21.5092 17.6728 20.7182 16.5462 19.5357 15.7631C18.3691 14.9641 17.1227 14.5646 15.7963 14.5646C13.8148 14.5646 12.2248 15.2278 11.0263 16.5542C9.84375 17.8805 9.25249 19.6303 9.25249 21.8036V32.0868C9.25249 34.0524 9.85973 35.6264 11.0742 36.8089C12.3047 37.9915 13.9267 38.5827 15.9402 38.5827C17.9217 38.5827 19.5037 37.9515 20.6863 36.6891C21.8848 35.4267 22.484 33.6689 22.484 31.4157V30.361H16.2997V24.8718ZM41.0609 9.14737V36.6891C41.0609 37.2804 41.2127 37.7438 41.5163 38.0794C41.82 38.415 42.2514 38.5827 42.8107 38.5827H44.5126V44.0719H41.3965C39.4789 44.0719 37.9847 43.4966 36.9141 42.3461C35.8594 41.1955 35.332 39.5735 35.332 37.4801V9.14737H41.0609ZM59.3501 44.3596C56.0103 44.3596 53.4215 43.4167 51.5838 41.5311C49.7621 39.6294 48.8512 36.9608 48.8512 33.525V29.4741C48.8512 26.0703 49.7621 23.4336 51.5838 21.5639C53.4215 19.6942 56.0103 18.7594 59.3501 18.7594C62.69 18.7594 65.2708 19.6942 67.0925 21.5639C68.9302 23.4336 69.8491 26.0703 69.8491 29.4741V33.5969C69.8491 37.0167 68.9302 39.6694 67.0925 41.555C65.2708 43.4247 62.69 44.3596 59.3501 44.3596ZM59.3501 38.8704C60.8683 38.8704 62.0428 38.407 62.8738 37.4801C63.7047 36.5533 64.1202 35.2589 64.1202 33.5969V29.4741C64.1202 27.8121 63.7047 26.5257 62.8738 25.6149C62.0428 24.704 60.8683 24.2486 59.3501 24.2486C57.848 24.2486 56.6735 24.704 55.8265 25.6149C54.9956 26.5257 54.5801 27.8121 54.5801 29.4741V33.5969C54.5801 35.2589 54.9956 36.5533 55.8265 37.4801C56.6735 38.407 57.848 38.8704 59.3501 38.8704ZM88.0664 44.3596C86.5643 44.3596 85.2619 43.992 84.1593 43.2569C83.0566 42.5059 82.2417 41.4512 81.7143 40.0929L82.0499 34.6516C82.0499 35.5945 82.2177 36.4015 82.5533 37.0726C82.8888 37.7278 83.3762 38.2312 84.0154 38.5827C84.6546 38.9343 85.4297 39.1101 86.3406 39.1101C87.7628 39.1101 88.8654 38.6626 89.6484 37.7678C90.4315 36.8569 90.823 35.5865 90.823 33.9565V29.2823C90.823 27.6044 90.4315 26.31 89.6484 25.3991C88.8654 24.4723 87.7628 24.0089 86.3406 24.0089C85.4297 24.0089 84.6546 24.1847 84.0154 24.5362C83.3762 24.8718 82.8888 25.3752 82.5533 26.0463C82.2177 26.7015 82.0499 27.5085 82.0499 28.4673L81.5465 23.3137C82.2656 21.8596 83.2005 20.7409 84.351 19.9579C85.5016 19.1589 86.78 18.7594 88.1863 18.7594C90.8549 18.7594 92.9164 19.6783 94.3706 21.516C95.8247 23.3377 96.5518 25.9185 96.5518 29.2583V33.9565C96.5518 37.2644 95.8088 39.8292 94.3226 41.6509C92.8524 43.4567 90.767 44.3596 88.0664 44.3596ZM76.321 44V9.14737H82.0499V44H76.321ZM113.451 44.3596C109.919 44.3596 107.179 43.3928 105.229 41.4592C103.279 39.5256 102.305 36.777 102.305 33.2134V30.4089C102.305 26.7015 103.24 23.8331 105.109 21.8036C106.979 19.7741 109.616 18.7594 113.019 18.7594C116.231 18.7594 118.716 19.9419 120.474 22.307C122.232 24.6561 123.111 27.9719 123.111 32.2546V33.8846H106.212V29.6898H117.789L117.765 29.4261C117.606 27.7003 117.118 26.358 116.303 25.3991C115.488 24.4244 114.394 23.937 113.019 23.937C111.309 23.937 109.975 24.4803 109.016 25.5669C108.074 26.6376 107.602 28.1637 107.602 30.1452V33.3093C107.602 35.195 108.113 36.6491 109.136 37.6719C110.159 38.6786 111.597 39.182 113.451 39.182C114.394 39.182 115.32 39.0062 116.231 38.6547C117.158 38.2871 117.989 37.7837 118.724 37.1445L122.464 40.6442C121.201 41.8267 119.779 42.7456 118.197 43.4007C116.631 44.04 115.049 44.3596 113.451 44.3596ZM132.579 30.4808V24.9917H143.725C145.115 24.9917 146.234 24.5202 147.081 23.5774C147.944 22.6186 148.375 21.3722 148.375 19.8381C148.375 18.256 147.952 16.9936 147.105 16.0508C146.258 15.108 145.131 14.6365 143.725 14.6365H132.579V9.14737H143.557C145.715 9.14737 147.592 9.59482 149.19 10.4897C150.788 11.3686 152.035 12.6071 152.93 14.2051C153.825 15.8031 154.272 17.6808 154.272 19.8381C154.272 21.9794 153.825 23.8491 152.93 25.4471C152.035 27.0451 150.78 28.2836 149.166 29.1625C147.568 30.0414 145.699 30.4808 143.557 30.4808H132.579ZM129.822 44V9.14737H135.551V44H129.822ZM167.551 44.3596C164.212 44.3596 161.623 43.4167 159.785 41.5311C157.963 39.6294 157.053 36.9608 157.053 33.525V29.4741C157.053 26.0703 157.963 23.4336 159.785 21.5639C161.623 19.6942 164.212 18.7594 167.551 18.7594C170.891 18.7594 173.472 19.6942 175.294 21.5639C177.132 23.4336 178.05 26.0703 178.05 29.4741V33.5969C178.05 37.0167 177.132 39.6694 175.294 41.555C173.472 43.4247 170.891 44.3596 167.551 44.3596ZM167.551 38.8704C169.07 38.8704 170.244 38.407 171.075 37.4801C171.906 36.5533 172.322 35.2589 172.322 33.5969V29.4741C172.322 27.8121 171.906 26.5257 171.075 25.6149C170.244 24.704 169.07 24.2486 167.551 24.2486C166.049 24.2486 164.875 24.704 164.028 25.6149C163.197 26.5257 162.781 27.8121 162.781 29.4741V33.5969C162.781 35.2589 163.197 36.5533 164.028 37.4801C164.875 38.407 166.049 38.8704 167.551 38.8704ZM184.522 44V19.119H190.491V44H184.522ZM198.377 25.519C197.994 25.1035 197.522 24.7919 196.963 24.5842C196.404 24.3604 195.756 24.2486 195.021 24.2486C193.583 24.2486 192.464 24.68 191.665 25.543C190.882 26.3899 190.491 27.5724 190.491 29.0906L189.988 23.4576C190.707 21.9874 191.642 20.8368 192.792 20.0059C193.959 19.1749 195.237 18.7594 196.627 18.7594C197.714 18.7594 198.697 18.9272 199.576 19.2628C200.455 19.5824 201.222 20.0618 201.877 20.701L198.377 25.519ZM212.184 44.1199C210.059 44.1199 208.517 43.5526 207.558 42.418C206.599 41.2834 206.119 39.6534 206.119 37.5281V11.88H211.848V36.737C211.848 37.3283 211.968 37.7917 212.208 38.1273C212.448 38.4629 212.799 38.6307 213.263 38.6307H215.252V44.1199H212.184ZM203.555 24.1287V19.119H215.252V24.1287H203.555ZM231.911 44.3596C228.38 44.3596 225.639 43.3928 223.69 41.4592C221.74 39.5256 220.765 36.777 220.765 33.2134V30.4089C220.765 26.7015 221.7 23.8331 223.57 21.8036C225.439 19.7741 228.076 18.7594 231.48 18.7594C234.692 18.7594 237.177 19.9419 238.935 22.307C240.692 24.6561 241.571 27.9719 241.571 32.2546V33.8846H224.672V29.6898H236.25L236.226 29.4261C236.066 27.7003 235.579 26.358 234.764 25.3991C233.949 24.4244 232.854 23.937 231.48 23.937C229.77 23.937 228.436 24.4803 227.477 25.5669C226.534 26.6376 226.063 28.1637 226.063 30.1452V33.3093C226.063 35.195 226.574 36.6491 227.597 37.6719C228.619 38.6786 230.058 39.182 231.911 39.182C232.854 39.182 233.781 39.0062 234.692 38.6547C235.619 38.2871 236.45 37.7837 237.185 37.1445L240.924 40.6442C239.662 41.8267 238.24 42.7456 236.657 43.4007C235.091 44.04 233.509 44.3596 231.911 44.3596ZM247.804 44V19.119H253.772V44H247.804ZM261.658 25.519C261.275 25.1035 260.803 24.7919 260.244 24.5842C259.685 24.3604 259.038 24.2486 258.303 24.2486C256.864 24.2486 255.746 24.68 254.947 25.543C254.164 26.3899 253.772 27.5724 253.772 29.0906L253.269 23.4576C253.988 21.9874 254.923 20.8368 256.073 20.0059C257.24 19.1749 258.518 18.7594 259.909 18.7594C260.995 18.7594 261.978 18.9272 262.857 19.2628C263.736 19.5824 264.503 20.0618 265.158 20.701L261.658 25.519Z" fill="white"/>
<path d="M269 40.7003L275.061 15.2049L300.918 4L294.323 28.0071L269 40.7003Z" fill="white"/>
<path d="M292 26.0701L277.37 17L273 35L292 26.0701Z" fill="#51B848"/>
<path d="M42.82 66.4V72H40.14V66.4L34.87 57.54H37.24C37.4733 57.54 37.6567 57.5967 37.79 57.71C37.93 57.8233 38.0467 57.9667 38.14 58.14L40.78 62.97C40.9333 63.2567 41.0667 63.5267 41.18 63.78C41.3 64.0333 41.4067 64.2867 41.5 64.54C41.5867 64.2867 41.6867 64.0333 41.8 63.78C41.9133 63.5267 42.0433 63.2567 42.19 62.97L44.82 58.14C44.8933 57.9933 45.0033 57.8567 45.15 57.73C45.2967 57.6033 45.4833 57.54 45.71 57.54H48.09L42.82 66.4ZM51.4631 61.58C52.2231 61.58 52.9131 61.7033 53.5331 61.95C54.1598 62.1967 54.6931 62.5467 55.1331 63C55.5798 63.4533 55.9231 64.0067 56.1631 64.66C56.4031 65.3133 56.5231 66.0433 56.5231 66.85C56.5231 67.6633 56.4031 68.3967 56.1631 69.05C55.9231 69.7033 55.5798 70.26 55.1331 70.72C54.6931 71.18 54.1598 71.5333 53.5331 71.78C52.9131 72.0267 52.2231 72.15 51.4631 72.15C50.6965 72.15 49.9998 72.0267 49.3731 71.78C48.7465 71.5333 48.2098 71.18 47.7631 70.72C47.3231 70.26 46.9798 69.7033 46.7331 69.05C46.4931 68.3967 46.3731 67.6633 46.3731 66.85C46.3731 66.0433 46.4931 65.3133 46.7331 64.66C46.9798 64.0067 47.3231 63.4533 47.7631 63C48.2098 62.5467 48.7465 62.1967 49.3731 61.95C49.9998 61.7033 50.6965 61.58 51.4631 61.58ZM51.4631 70.25C52.3165 70.25 52.9465 69.9633 53.3531 69.39C53.7665 68.8167 53.9731 67.9767 53.9731 66.87C53.9731 65.7633 53.7665 64.92 53.3531 64.34C52.9465 63.76 52.3165 63.47 51.4631 63.47C50.5965 63.47 49.9531 63.7633 49.5331 64.35C49.1198 64.93 48.9131 65.77 48.9131 66.87C48.9131 67.97 49.1198 68.81 49.5331 69.39C49.9531 69.9633 50.5965 70.25 51.4631 70.25ZM67.2475 61.74V72H65.7375C65.4108 72 65.2042 71.85 65.1175 71.55L64.9475 70.73C64.5275 71.1567 64.0642 71.5033 63.5575 71.77C63.0508 72.03 62.4542 72.16 61.7675 72.16C61.2075 72.16 60.7108 72.0667 60.2775 71.88C59.8508 71.6867 59.4908 71.4167 59.1975 71.07C58.9042 70.7233 58.6808 70.3133 58.5275 69.84C58.3808 69.36 58.3075 68.8333 58.3075 68.26V61.74H60.7775V68.26C60.7775 68.8867 60.9208 69.3733 61.2075 69.72C61.5008 70.06 61.9375 70.23 62.5175 70.23C62.9442 70.23 63.3442 70.1367 63.7175 69.95C64.0908 69.7567 64.4442 69.4933 64.7775 69.16V61.74H67.2475ZM72.0266 63.52C72.3466 62.9067 72.7266 62.4267 73.1666 62.08C73.6066 61.7267 74.1266 61.55 74.7266 61.55C75.1999 61.55 75.5799 61.6533 75.8666 61.86L75.7066 63.71C75.6732 63.83 75.6232 63.9167 75.5566 63.97C75.4966 64.0167 75.4132 64.04 75.3066 64.04C75.2066 64.04 75.0566 64.0233 74.8566 63.99C74.6632 63.9567 74.4732 63.94 74.2866 63.94C74.0132 63.94 73.7699 63.98 73.5566 64.06C73.3432 64.14 73.1499 64.2567 72.9766 64.41C72.8099 64.5567 72.6599 64.7367 72.5266 64.95C72.3999 65.1633 72.2799 65.4067 72.1666 65.68V72H69.6966V61.74H71.1466C71.3999 61.74 71.5766 61.7867 71.6766 61.88C71.7766 61.9667 71.8432 62.1267 71.8766 62.36L72.0266 63.52ZM94.8211 64.77C94.8211 65.83 94.6444 66.8033 94.2911 67.69C93.9378 68.5767 93.4411 69.34 92.8011 69.98C92.1611 70.62 91.3911 71.1167 90.4911 71.47C89.5911 71.8233 88.5911 72 87.4911 72H81.9811V57.54H87.4911C88.5911 57.54 89.5911 57.72 90.4911 58.08C91.3911 58.4333 92.1611 58.93 92.8011 59.57C93.4411 60.2033 93.9378 60.9633 94.2911 61.85C94.6444 62.7367 94.8211 63.71 94.8211 64.77ZM92.0611 64.77C92.0611 63.9767 91.9544 63.2667 91.7411 62.64C91.5344 62.0067 91.2311 61.4733 90.8311 61.04C90.4378 60.6 89.9578 60.2633 89.3911 60.03C88.8311 59.7967 88.1978 59.68 87.4911 59.68H84.6811V69.86H87.4911C88.1978 69.86 88.8311 69.7433 89.3911 69.51C89.9578 69.2767 90.4378 68.9433 90.8311 68.51C91.2311 68.07 91.5344 67.5367 91.7411 66.91C91.9544 66.2767 92.0611 65.5633 92.0611 64.77ZM103.279 65.69C103.279 65.37 103.233 65.07 103.139 64.79C103.053 64.5033 102.919 64.2533 102.739 64.04C102.559 63.8267 102.329 63.66 102.049 63.54C101.776 63.4133 101.456 63.35 101.089 63.35C100.376 63.35 99.8126 63.5533 99.3992 63.96C98.9926 64.3667 98.7326 64.9433 98.6192 65.69H103.279ZM98.5692 67.18C98.6092 67.7067 98.7026 68.1633 98.8492 68.55C98.9959 68.93 99.1892 69.2467 99.4292 69.5C99.6692 69.7467 99.9526 69.9333 100.279 70.06C100.613 70.18 100.979 70.24 101.379 70.24C101.779 70.24 102.123 70.1933 102.409 70.1C102.703 70.0067 102.956 69.9033 103.169 69.79C103.389 69.6767 103.579 69.5733 103.739 69.48C103.906 69.3867 104.066 69.34 104.219 69.34C104.426 69.34 104.579 69.4167 104.679 69.57L105.389 70.47C105.116 70.79 104.809 71.06 104.469 71.28C104.129 71.4933 103.773 71.6667 103.399 71.8C103.033 71.9267 102.656 72.0167 102.269 72.07C101.889 72.1233 101.519 72.15 101.159 72.15C100.446 72.15 99.7826 72.0333 99.1692 71.8C98.5559 71.56 98.0226 71.21 97.5692 70.75C97.1159 70.2833 96.7592 69.71 96.4992 69.03C96.2392 68.3433 96.1092 67.55 96.1092 66.65C96.1092 65.95 96.2226 65.2933 96.4492 64.68C96.6759 64.06 96.9992 63.5233 97.4192 63.07C97.8459 62.61 98.3626 62.2467 98.9692 61.98C99.5826 61.7133 100.273 61.58 101.039 61.58C101.686 61.58 102.283 61.6833 102.829 61.89C103.376 62.0967 103.846 62.4 104.239 62.8C104.633 63.1933 104.939 63.68 105.159 64.26C105.386 64.8333 105.499 65.49 105.499 66.23C105.499 66.6033 105.459 66.8567 105.379 66.99C105.299 67.1167 105.146 67.18 104.919 67.18H98.5692ZM109.853 57.14V72H107.383V57.14H109.853ZM114.874 61.74V72H112.394V61.74H114.874ZM115.214 58.75C115.214 58.9633 115.17 59.1633 115.084 59.35C114.997 59.5367 114.88 59.7 114.734 59.84C114.594 59.98 114.427 60.0933 114.234 60.18C114.04 60.26 113.834 60.3 113.614 60.3C113.4 60.3 113.197 60.26 113.004 60.18C112.817 60.0933 112.654 59.98 112.514 59.84C112.374 59.7 112.26 59.5367 112.174 59.35C112.094 59.1633 112.054 58.9633 112.054 58.75C112.054 58.53 112.094 58.3233 112.174 58.13C112.26 57.9367 112.374 57.77 112.514 57.63C112.654 57.49 112.817 57.38 113.004 57.3C113.197 57.2133 113.4 57.17 113.614 57.17C113.834 57.17 114.04 57.2133 114.234 57.3C114.427 57.38 114.594 57.49 114.734 57.63C114.88 57.77 114.997 57.9367 115.084 58.13C115.17 58.3233 115.214 58.53 115.214 58.75ZM126.642 61.74L122.572 72H120.332L116.262 61.74H118.302C118.489 61.74 118.642 61.7833 118.762 61.87C118.889 61.9567 118.972 62.0667 119.012 62.2L120.992 67.68C121.099 68 121.192 68.3133 121.272 68.62C121.352 68.9267 121.422 69.2333 121.482 69.54C121.549 69.2333 121.622 68.9267 121.702 68.62C121.782 68.3133 121.879 68 121.992 67.68L124.012 62.2C124.059 62.0667 124.142 61.9567 124.262 61.87C124.382 61.7833 124.525 61.74 124.692 61.74H126.642ZM134.256 65.69C134.256 65.37 134.209 65.07 134.116 64.79C134.029 64.5033 133.896 64.2533 133.716 64.04C133.536 63.8267 133.306 63.66 133.026 63.54C132.752 63.4133 132.432 63.35 132.066 63.35C131.352 63.35 130.789 63.5533 130.376 63.96C129.969 64.3667 129.709 64.9433 129.596 65.69H134.256ZM129.546 67.18C129.586 67.7067 129.679 68.1633 129.826 68.55C129.972 68.93 130.166 69.2467 130.406 69.5C130.646 69.7467 130.929 69.9333 131.256 70.06C131.589 70.18 131.956 70.24 132.356 70.24C132.756 70.24 133.099 70.1933 133.386 70.1C133.679 70.0067 133.932 69.9033 134.146 69.79C134.366 69.6767 134.556 69.5733 134.716 69.48C134.882 69.3867 135.042 69.34 135.196 69.34C135.402 69.34 135.556 69.4167 135.656 69.57L136.366 70.47C136.092 70.79 135.786 71.06 135.446 71.28C135.106 71.4933 134.749 71.6667 134.376 71.8C134.009 71.9267 133.632 72.0167 133.246 72.07C132.866 72.1233 132.496 72.15 132.136 72.15C131.422 72.15 130.759 72.0333 130.146 71.8C129.532 71.56 128.999 71.21 128.546 70.75C128.092 70.2833 127.736 69.71 127.476 69.03C127.216 68.3433 127.086 67.55 127.086 66.65C127.086 65.95 127.199 65.2933 127.426 64.68C127.652 64.06 127.976 63.5233 128.396 63.07C128.822 62.61 129.339 62.2467 129.946 61.98C130.559 61.7133 131.249 61.58 132.016 61.58C132.662 61.58 133.259 61.6833 133.806 61.89C134.352 62.0967 134.822 62.4 135.216 62.8C135.609 63.1933 135.916 63.68 136.136 64.26C136.362 64.8333 136.476 65.49 136.476 66.23C136.476 66.6033 136.436 66.8567 136.356 66.99C136.276 67.1167 136.122 67.18 135.896 67.18H129.546ZM140.659 63.52C140.979 62.9067 141.359 62.4267 141.799 62.08C142.239 61.7267 142.759 61.55 143.359 61.55C143.833 61.55 144.213 61.6533 144.499 61.86L144.339 63.71C144.306 63.83 144.256 63.9167 144.189 63.97C144.129 64.0167 144.046 64.04 143.939 64.04C143.839 64.04 143.689 64.0233 143.489 63.99C143.296 63.9567 143.106 63.94 142.919 63.94C142.646 63.94 142.403 63.98 142.189 64.06C141.976 64.14 141.783 64.2567 141.609 64.41C141.443 64.5567 141.293 64.7367 141.159 64.95C141.033 65.1633 140.913 65.4067 140.799 65.68V72H138.329V61.74H139.779C140.033 61.74 140.209 61.7867 140.309 61.88C140.409 61.9667 140.476 62.1267 140.509 62.36L140.659 63.52ZM155.11 61.74L149.52 74.82C149.447 74.9933 149.35 75.1233 149.23 75.21C149.117 75.3033 148.94 75.35 148.7 75.35H146.86L148.78 71.23L144.63 61.74H146.8C146.994 61.74 147.144 61.7867 147.25 61.88C147.364 61.9733 147.447 62.08 147.5 62.2L149.68 67.52C149.754 67.7 149.814 67.88 149.86 68.06C149.914 68.24 149.964 68.4233 150.01 68.61C150.07 68.4233 150.13 68.24 150.19 68.06C150.25 67.8733 150.317 67.69 150.39 67.51L152.45 62.2C152.504 62.0667 152.59 61.9567 152.71 61.87C152.837 61.7833 152.977 61.74 153.13 61.74H155.11ZM155.555 74.45C155.435 74.35 155.375 74.2267 155.375 74.08C155.375 74.0267 155.392 73.9667 155.425 73.9C155.465 73.8333 155.512 73.7733 155.565 73.72C155.638 73.64 155.728 73.54 155.835 73.42C155.942 73.3067 156.048 73.1733 156.155 73.02C156.262 72.8733 156.358 72.71 156.445 72.53C156.538 72.3567 156.608 72.17 156.655 71.97C156.442 71.97 156.248 71.9333 156.075 71.86C155.902 71.78 155.752 71.6733 155.625 71.54C155.505 71.4067 155.408 71.25 155.335 71.07C155.268 70.89 155.235 70.6933 155.235 70.48C155.235 70.2933 155.268 70.12 155.335 69.96C155.408 69.7933 155.508 69.65 155.635 69.53C155.762 69.4033 155.915 69.3067 156.095 69.24C156.275 69.1667 156.472 69.13 156.685 69.13C156.938 69.13 157.158 69.1767 157.345 69.27C157.538 69.3567 157.695 69.48 157.815 69.64C157.942 69.7933 158.035 69.9733 158.095 70.18C158.162 70.38 158.195 70.5933 158.195 70.82C158.195 71.14 158.145 71.4767 158.045 71.83C157.952 72.1833 157.812 72.5367 157.625 72.89C157.438 73.2433 157.205 73.5867 156.925 73.92C156.652 74.2533 156.338 74.56 155.985 74.84L155.555 74.45ZM179.326 64.77C179.326 65.83 179.149 66.8133 178.796 67.72C178.449 68.62 177.956 69.4 177.316 70.06C176.676 70.72 175.906 71.2367 175.006 71.61C174.106 71.9767 173.106 72.16 172.006 72.16C170.912 72.16 169.916 71.9767 169.016 71.61C168.116 71.2367 167.342 70.72 166.696 70.06C166.056 69.4 165.559 68.62 165.206 67.72C164.852 66.8133 164.676 65.83 164.676 64.77C164.676 63.71 164.852 62.73 165.206 61.83C165.559 60.9233 166.056 60.14 166.696 59.48C167.342 58.82 168.116 58.3067 169.016 57.94C169.916 57.5667 170.912 57.38 172.006 57.38C172.739 57.38 173.429 57.4667 174.076 57.64C174.722 57.8067 175.316 58.0467 175.856 58.36C176.396 58.6667 176.879 59.0433 177.306 59.49C177.739 59.93 178.106 60.4233 178.406 60.97C178.706 61.5167 178.932 62.11 179.086 62.75C179.246 63.39 179.326 64.0633 179.326 64.77ZM176.576 64.77C176.576 63.9767 176.469 63.2667 176.256 62.64C176.042 62.0067 175.739 61.47 175.346 61.03C174.952 60.59 174.472 60.2533 173.906 60.02C173.346 59.7867 172.712 59.67 172.006 59.67C171.299 59.67 170.662 59.7867 170.096 60.02C169.536 60.2533 169.056 60.59 168.656 61.03C168.262 61.47 167.959 62.0067 167.746 62.64C167.532 63.2667 167.426 63.9767 167.426 64.77C167.426 65.5633 167.532 66.2767 167.746 66.91C167.959 67.5367 168.262 68.07 168.656 68.51C169.056 68.9433 169.536 69.2767 170.096 69.51C170.662 69.7433 171.299 69.86 172.006 69.86C172.712 69.86 173.346 69.7433 173.906 69.51C174.472 69.2767 174.952 68.9433 175.346 68.51C175.739 68.07 176.042 67.5367 176.256 66.91C176.469 66.2767 176.576 65.5633 176.576 64.77ZM190.001 61.74V72H188.491C188.165 72 187.958 71.85 187.871 71.55L187.701 70.73C187.281 71.1567 186.818 71.5033 186.311 71.77C185.805 72.03 185.208 72.16 184.521 72.16C183.961 72.16 183.465 72.0667 183.031 71.88C182.605 71.6867 182.245 71.4167 181.951 71.07C181.658 70.7233 181.435 70.3133 181.281 69.84C181.135 69.36 181.061 68.8333 181.061 68.26V61.74H183.531V68.26C183.531 68.8867 183.675 69.3733 183.961 69.72C184.255 70.06 184.691 70.23 185.271 70.23C185.698 70.23 186.098 70.1367 186.471 69.95C186.845 69.7567 187.198 69.4933 187.531 69.16V61.74H190.001ZM194.78 63.52C195.1 62.9067 195.48 62.4267 195.92 62.08C196.36 61.7267 196.88 61.55 197.48 61.55C197.954 61.55 198.334 61.6533 198.62 61.86L198.46 63.71C198.427 63.83 198.377 63.9167 198.31 63.97C198.25 64.0167 198.167 64.04 198.06 64.04C197.96 64.04 197.81 64.0233 197.61 63.99C197.417 63.9567 197.227 63.94 197.04 63.94C196.767 63.94 196.524 63.98 196.31 64.06C196.097 64.14 195.904 64.2567 195.73 64.41C195.564 64.5567 195.414 64.7367 195.28 64.95C195.154 65.1633 195.034 65.4067 194.92 65.68V72H192.45V61.74H193.9C194.154 61.74 194.33 61.7867 194.43 61.88C194.53 61.9667 194.597 62.1267 194.63 62.36L194.78 63.52ZM209.435 64.81C209.928 64.81 210.358 64.75 210.725 64.63C211.092 64.5033 211.395 64.3267 211.635 64.1C211.882 63.8667 212.065 63.5867 212.185 63.26C212.305 62.9267 212.365 62.5567 212.365 62.15C212.365 61.7633 212.305 61.4133 212.185 61.1C212.065 60.7867 211.885 60.52 211.645 60.3C211.405 60.08 211.102 59.9133 210.735 59.8C210.368 59.68 209.935 59.62 209.435 59.62H207.425V64.81H209.435ZM209.435 57.54C210.402 57.54 211.238 57.6533 211.945 57.88C212.652 58.1067 213.235 58.4233 213.695 58.83C214.155 59.2367 214.495 59.7233 214.715 60.29C214.942 60.8567 215.055 61.4767 215.055 62.15C215.055 62.85 214.938 63.4933 214.705 64.08C214.472 64.66 214.122 65.16 213.655 65.58C213.188 66 212.602 66.3267 211.895 66.56C211.195 66.7933 210.375 66.91 209.435 66.91H207.425V72H204.735V57.54H209.435ZM218.902 63.52C219.222 62.9067 219.602 62.4267 220.042 62.08C220.482 61.7267 221.002 61.55 221.602 61.55C222.075 61.55 222.455 61.6533 222.742 61.86L222.582 63.71C222.548 63.83 222.498 63.9167 222.432 63.97C222.372 64.0167 222.288 64.04 222.182 64.04C222.082 64.04 221.932 64.0233 221.732 63.99C221.538 63.9567 221.348 63.94 221.162 63.94C220.888 63.94 220.645 63.98 220.432 64.06C220.218 64.14 220.025 64.2567 219.852 64.41C219.685 64.5567 219.535 64.7367 219.402 64.95C219.275 65.1633 219.155 65.4067 219.042 65.68V72H216.572V61.74H218.022C218.275 61.74 218.452 61.7867 218.552 61.88C218.652 61.9667 218.718 62.1267 218.752 62.36L218.902 63.52ZM226.593 61.74V72H224.113V61.74H226.593ZM226.933 58.75C226.933 58.9633 226.889 59.1633 226.803 59.35C226.716 59.5367 226.599 59.7 226.453 59.84C226.313 59.98 226.146 60.0933 225.953 60.18C225.759 60.26 225.553 60.3 225.333 60.3C225.119 60.3 224.916 60.26 224.723 60.18C224.536 60.0933 224.373 59.98 224.233 59.84C224.093 59.7 223.979 59.5367 223.893 59.35C223.813 59.1633 223.773 58.9633 223.773 58.75C223.773 58.53 223.813 58.3233 223.893 58.13C223.979 57.9367 224.093 57.77 224.233 57.63C224.373 57.49 224.536 57.38 224.723 57.3C224.916 57.2133 225.119 57.17 225.333 57.17C225.553 57.17 225.759 57.2133 225.953 57.3C226.146 57.38 226.313 57.49 226.453 57.63C226.599 57.77 226.716 57.9367 226.803 58.13C226.889 58.3233 226.933 58.53 226.933 58.75ZM233.651 61.58C234.411 61.58 235.101 61.7033 235.721 61.95C236.347 62.1967 236.881 62.5467 237.321 63C237.767 63.4533 238.111 64.0067 238.351 64.66C238.591 65.3133 238.711 66.0433 238.711 66.85C238.711 67.6633 238.591 68.3967 238.351 69.05C238.111 69.7033 237.767 70.26 237.321 70.72C236.881 71.18 236.347 71.5333 235.721 71.78C235.101 72.0267 234.411 72.15 233.651 72.15C232.884 72.15 232.187 72.0267 231.561 71.78C230.934 71.5333 230.397 71.18 229.951 70.72C229.511 70.26 229.167 69.7033 228.921 69.05C228.681 68.3967 228.561 67.6633 228.561 66.85C228.561 66.0433 228.681 65.3133 228.921 64.66C229.167 64.0067 229.511 63.4533 229.951 63C230.397 62.5467 230.934 62.1967 231.561 61.95C232.187 61.7033 232.884 61.58 233.651 61.58ZM233.651 70.25C234.504 70.25 235.134 69.9633 235.541 69.39C235.954 68.8167 236.161 67.9767 236.161 66.87C236.161 65.7633 235.954 64.92 235.541 64.34C235.134 63.76 234.504 63.47 233.651 63.47C232.784 63.47 232.141 63.7633 231.721 64.35C231.307 64.93 231.101 65.77 231.101 66.87C231.101 67.97 231.307 68.81 231.721 69.39C232.141 69.9633 232.784 70.25 233.651 70.25ZM242.925 63.52C243.245 62.9067 243.625 62.4267 244.065 62.08C244.505 61.7267 245.025 61.55 245.625 61.55C246.098 61.55 246.478 61.6533 246.765 61.86L246.605 63.71C246.572 63.83 246.522 63.9167 246.455 63.97C246.395 64.0167 246.312 64.04 246.205 64.04C246.105 64.04 245.955 64.0233 245.755 63.99C245.562 63.9567 245.372 63.94 245.185 63.94C244.912 63.94 244.668 63.98 244.455 64.06C244.242 64.14 244.048 64.2567 243.875 64.41C243.708 64.5567 243.558 64.7367 243.425 64.95C243.298 65.1633 243.178 65.4067 243.065 65.68V72H240.595V61.74H242.045C242.298 61.74 242.475 61.7867 242.575 61.88C242.675 61.9667 242.742 62.1267 242.775 62.36L242.925 63.52ZM250.616 61.74V72H248.136V61.74H250.616ZM250.956 58.75C250.956 58.9633 250.913 59.1633 250.826 59.35C250.739 59.5367 250.623 59.7 250.476 59.84C250.336 59.98 250.169 60.0933 249.976 60.18C249.783 60.26 249.576 60.3 249.356 60.3C249.143 60.3 248.939 60.26 248.746 60.18C248.559 60.0933 248.396 59.98 248.256 59.84C248.116 59.7 248.003 59.5367 247.916 59.35C247.836 59.1633 247.796 58.9633 247.796 58.75C247.796 58.53 247.836 58.3233 247.916 58.13C248.003 57.9367 248.116 57.77 248.256 57.63C248.396 57.49 248.559 57.38 248.746 57.3C248.939 57.2133 249.143 57.17 249.356 57.17C249.576 57.17 249.783 57.2133 249.976 57.3C250.169 57.38 250.336 57.49 250.476 57.63C250.623 57.77 250.739 57.9367 250.826 58.13C250.913 58.3233 250.956 58.53 250.956 58.75ZM256.554 72.16C255.661 72.16 254.974 71.91 254.494 71.41C254.021 70.9033 253.784 70.2067 253.784 69.32V63.59H252.734C252.601 63.59 252.487 63.5467 252.394 63.46C252.301 63.3733 252.254 63.2433 252.254 63.07V62.09L253.904 61.82L254.424 59.02C254.457 58.8867 254.521 58.7833 254.614 58.71C254.707 58.6367 254.827 58.6 254.974 58.6H256.254V61.83H258.994V63.59H256.254V69.15C256.254 69.47 256.331 69.72 256.484 69.9C256.644 70.08 256.861 70.17 257.134 70.17C257.287 70.17 257.414 70.1533 257.514 70.12C257.621 70.08 257.711 70.04 257.784 70C257.864 69.96 257.934 69.9233 257.994 69.89C258.054 69.85 258.114 69.83 258.174 69.83C258.247 69.83 258.307 69.85 258.354 69.89C258.401 69.9233 258.451 69.9767 258.504 70.05L259.244 71.25C258.884 71.55 258.471 71.7767 258.004 71.93C257.537 72.0833 257.054 72.16 256.554 72.16ZM269.895 61.74L264.305 74.82C264.232 74.9933 264.135 75.1233 264.015 75.21C263.902 75.3033 263.725 75.35 263.485 75.35H261.645L263.565 71.23L259.415 61.74H261.585C261.779 61.74 261.929 61.7867 262.035 61.88C262.149 61.9733 262.232 62.08 262.285 62.2L264.465 67.52C264.539 67.7 264.599 67.88 264.645 68.06C264.699 68.24 264.749 68.4233 264.795 68.61C264.855 68.4233 264.915 68.24 264.975 68.06C265.035 67.8733 265.102 67.69 265.175 67.51L267.235 62.2C267.289 62.0667 267.375 61.9567 267.495 61.87C267.622 61.7833 267.762 61.74 267.915 61.74H269.895Z" fill="white"/>
<path d="M308.667 5.4079V3.97608H317.199V5.4079H313.76V15H312.102V5.4079H308.667ZM319.084 3.97608H321.103L324.613 12.5455H324.742L328.251 3.97608H330.27V15H328.687V7.02273H328.585L325.334 14.9839H324.02L320.769 7.01734H320.667V15H319.084V3.97608Z" fill="white"/>
</svg>
