<svg width="374" height="193" viewBox="0 0 374 193" fill="none" xmlns="http://www.w3.org/2000/svg">
<path d="M269.883 86.0211H225.158V163.117H269.883V86.0211Z" fill="#86B1F2"/>
<path d="M73.7354 100.69H119.915V50.8251H93.1918C82.4463 50.8251 73.7354 59.5361 73.7354 70.2818V100.69Z" fill="#3C413B"/>
<path d="M127.396 170.993H51.2555L50.1774 116.339C50.1587 115.391 50.3113 114.447 50.6282 113.546L66.34 68.9259C67.5588 65.4646 71.0178 63.1257 74.9174 63.1257H127.396V170.993Z" fill="#97B954"/>
<path d="M50.1759 170.993H54.9264C56.6028 170.993 57.9617 169.634 57.9617 167.957V155.5C57.9617 153.824 56.6028 152.465 54.9264 152.465H50.1759V170.993Z" fill="#748828"/>
<path d="M44.4656 94.2324H42.0535V85.7906C42.0535 78.8557 47.6956 73.2136 54.6302 73.2136H75.1323V75.6257H54.6302C49.0254 75.6257 44.4656 80.1856 44.4656 85.7906V94.2324Z" fill="#353535"/>
<path d="M41.5366 111.634H45.499C48.0682 111.634 50.1508 109.551 50.1508 106.982V93.5436C50.1508 90.9744 48.0682 88.892 45.499 88.892H41.5366C38.9674 88.892 36.8848 90.9746 36.8848 93.5436V106.982C36.8848 109.551 38.9676 111.634 41.5366 111.634Z" fill="#353535"/>
<path d="M41.5365 109.467C40.1661 109.467 39.051 108.352 39.051 106.982V93.5433C39.051 92.1726 40.1661 91.0575 41.5365 91.0575H45.499C46.8694 91.0575 47.9848 92.1726 47.9848 93.5433V106.982C47.9848 108.352 46.8697 109.467 45.499 109.467H41.5365Z" fill="white"/>
<path d="M67.0275 113.701H106.688C109.147 113.701 111.14 111.707 111.14 109.248V76.6325C111.14 74.1733 109.147 72.1797 106.688 72.1797H77.0272C75.0707 72.1797 73.3434 73.4569 72.7701 75.3273L62.7701 107.943C61.8926 110.805 64.0333 113.701 67.0275 113.701Z" fill="#353535"/>
<path d="M68.2416 90.0976L62.7704 107.943C61.8928 110.805 64.0336 113.701 67.0275 113.701H106.688C109.147 113.701 111.14 111.707 111.14 109.248V90.0976H68.2416Z" fill="#666666"/>
<path d="M83.9851 192.141C96.1833 192.141 106.072 182.252 106.072 170.054C106.072 157.856 96.1833 147.967 83.9851 147.967C71.7869 147.967 61.8983 157.856 61.8983 170.054C61.8983 182.252 71.7869 192.141 83.9851 192.141Z" fill="#282828"/>
<path d="M262.29 169.713C262.29 181.723 271.759 191.459 283.439 191.459C295.118 191.459 304.587 181.723 304.587 169.713C304.587 157.703 295.119 147.968 283.439 147.968C271.759 147.968 262.29 157.703 262.29 169.713Z" fill="#282828"/>
<path d="M126.141 140.719H344.802C348.24 140.719 351.027 137.931 351.027 134.493V6.24013C351.027 2.80165 348.24 0.0144348 344.802 0.0144348H126.141C122.702 0.0144348 119.915 2.8019 119.915 6.24013V134.493C119.915 137.931 122.702 140.719 126.141 140.719Z" fill="#748828"/>
<path d="M344.802 134.976C345.068 134.976 345.284 134.759 345.284 134.493V6.24013C345.284 5.97402 345.068 5.75751 344.802 5.75751H235.593V134.975L344.802 134.976Z" fill="#7E933D"/>
<path d="M344.802 40.0203C345.068 40.0203 345.284 39.9629 345.284 39.8923V5.84295C345.284 5.77228 345.068 5.71487 344.802 5.71487H235.593V40.0203H344.802Z" fill="#15181E"/>
<path d="M126.141 0.0144348H229.85V140.719H126.141C122.702 140.719 119.915 137.931 119.915 134.493V6.24013C119.915 2.8019 122.702 0.0144348 126.141 0.0144348Z" fill="#7E933D"/>
<path d="M287.227 134.981H333.752V96.2149H287.227V134.981Z" fill="#B4633C"/>
<path d="M235.593 134.976H294.294V88.6277H235.593V134.976Z" fill="#DD934B"/>
<path d="M235.593 88.6277H285.679V44.516L235.593 44.516V88.6277Z" fill="#B4633C"/>
<path d="M128.112 170.993H335.994V140.719H128.112C124.917 140.719 122.327 143.309 122.327 146.504V165.208C122.327 168.403 124.917 170.993 128.112 170.993Z" fill="#282828"/>
<path d="M232.951 167.37H333.926V144.801H232.951V167.37Z" fill="#666666"/>
<path d="M236.279 162.316H265.454V153.357H236.279V162.316Z" fill="#282828"/>
<path d="M236.279 162.316H253.883V153.357H236.279V162.316Z" fill="#CFDBA9"/>
<path d="M298.236 162.316H327.412V153.357H298.236V162.316Z" fill="#282828"/>
<path d="M314.201 162.316H327.412V153.357H314.201V162.316Z" fill="#CFDBA9"/>
<path d="M214.323 191.459C226.003 191.459 235.471 181.723 235.471 169.713C235.471 157.704 226.003 147.968 214.323 147.968C202.643 147.968 193.175 157.704 193.175 169.713C193.175 181.723 202.643 191.459 214.323 191.459Z" fill="#353535"/>
<path d="M207.794 192.141C219.474 192.141 228.942 181.832 228.942 169.116C228.942 156.399 219.474 146.091 207.794 146.091C196.114 146.091 186.646 156.399 186.646 169.116C186.646 181.832 196.114 192.141 207.794 192.141Z" fill="#353535"/>
<path d="M80.3442 192.141C92.0239 192.141 101.492 182.067 101.492 169.639C101.492 157.212 92.0239 147.137 80.3442 147.137C68.6644 147.137 59.196 157.212 59.196 169.639C59.196 182.067 68.6644 192.141 80.3442 192.141Z" fill="#353535"/>
<path d="M80.3442 180.438C86.0874 180.438 90.7431 175.369 90.7431 169.116C90.7431 162.863 86.0874 157.794 80.3442 157.794C74.6011 157.794 69.9453 162.863 69.9453 169.116C69.9453 175.369 74.6011 180.438 80.3442 180.438Z" fill="#282828"/>
<path d="M197.395 169.116C197.395 175.369 202.051 180.438 207.794 180.438C213.537 180.438 218.193 175.369 218.193 169.116C218.193 162.863 213.537 157.794 207.794 157.794C202.051 157.794 197.395 162.863 197.395 169.116Z" fill="#282828"/>
<path d="M298.974 31.1191H279.329C279.329 33.9106 281.592 36.1733 284.384 36.1733H293.92C296.712 36.1733 298.974 33.9106 298.974 31.1191Z" fill="#7E933D"/>
<path d="M169.091 178.65C169.091 178.65 170.745 180.286 170.783 180.887C170.82 181.487 170.929 187.918 170.254 188.519C169.579 189.119 167.596 189.545 168.233 190.22C168.715 190.731 172.422 190.622 174.88 190.484C175.597 190.444 176.496 184.644 176.781 183.791C177.193 182.553 178.679 179.858 178.304 178.995C178.122 178.574 176.764 177.616 175.532 176.809C174.236 175.961 172.996 174.072 172.996 174.072L169.091 178.65Z" fill="#D9BF73"/>
<path d="M146.966 182.669C146.966 182.669 148.446 186.907 148.448 186.918C148.558 187.589 148.991 189.248 148.991 189.859C148.991 192.151 138.789 187.912 141.075 186.896C141.282 186.804 141.931 186.069 141.999 185.289C142.104 184.086 141.14 182.578 141.14 182.578L146.966 182.669Z" fill="#D9BF73"/>
<path d="M132.886 102.203L129.192 111.769C129.192 111.769 126.782 134.599 128.185 148.266C128.772 153.981 141.478 184.577 141.478 184.577L147.789 183.675L139.336 147.443L142.447 133.588L146.848 106.201L132.886 102.203Z" fill="black"/>
<path d="M150.287 102.702L153.456 113.354L158.276 145.505L174.575 175.579C174.575 175.579 172.125 179.342 169.493 179.934L146.358 149.538L133.82 111.485L134.26 103.031L150.287 102.702Z" fill="black"/>
<path d="M114.141 112.328C116.428 111.412 116.492 111.834 116.782 111.709C117.125 111.561 119.867 107.354 119.867 107.354C119.867 107.354 128.028 95.012 128.446 94.3297L130.933 79.1461L138.749 78.3192C138.749 78.3192 135.608 94.7604 135.294 95.5898C134.981 96.4192 122.015 111.786 120.917 113.177C120.917 113.177 120.217 115.33 119.733 116.666C119.25 118.003 118.201 119.048 118.007 119.403C117.979 119.455 117.265 120.598 116.015 121.764C114.937 122.77 115.499 121.313 115.499 121.313C115.499 121.313 117.162 119.084 116.965 118.98C116.812 118.9 115.976 120.173 114.795 121.298C114.491 121.587 114.19 121.872 113.912 122.131C113.181 122.811 112.556 122.548 113.207 121.712C113.437 121.417 113.831 120.936 114.16 120.634C114.516 120.308 114.738 119.891 114.995 119.57C115.505 118.933 115.885 118.475 115.847 118.468C115.798 118.459 115.811 118.259 115.479 118.556C115.08 118.913 114.4 119.863 113.772 120.341C113.417 120.613 112.708 121.226 112.708 121.226C112.708 121.226 111.45 122.093 111.383 122.033C111.021 121.709 111.744 120.828 112.276 120.524C112.514 120.154 113.278 119.53 113.278 119.53C113.278 119.53 114.54 117.916 114.315 117.73C114.13 117.577 110.364 120.847 110.024 120.497C109.746 120.212 110.834 119.176 110.834 119.176C110.834 119.176 111.541 118.601 111.761 118.392C112.019 118.146 112.736 117.351 112.736 117.351C112.736 117.351 115.102 114.465 114.874 114.307C114.647 114.149 113.905 113.978 113.696 114.105C113.488 114.232 113.228 114.668 113.02 114.795C112.812 114.922 112.43 114.906 112.254 114.658C112.078 114.41 112.849 113.404 112.849 113.404C112.849 113.404 113.482 112.592 114.141 112.328Z" fill="#D9BF73"/>
<path d="M129.358 83.8573L138.353 84.7877C138.353 84.7877 138.765 77.3136 138.765 73.7484C138.765 69.4226 138.145 63.9997 137.634 64.1398C136.194 64.535 134.492 65.1171 133.332 66.7323C129.32 72.321 129.358 83.8573 129.358 83.8573Z" fill="black"/>
<path d="M175.452 176.769C175.452 176.769 171.968 187.436 170.476 187.962C170.08 188.101 167.851 188.666 167.492 189.518C167.483 189.539 167.475 189.565 167.469 189.594C167.354 190.134 167.807 190.632 168.359 190.632H175.437C175.437 190.632 176.442 185.839 176.839 183.733C176.839 183.733 178.943 178.587 178.709 178.12C178.475 177.652 175.452 176.769 175.452 176.769Z" fill="#282828"/>
<path d="M149.571 190.615L148.433 186.874C148.433 186.874 145.949 187.926 144.723 187.751C143.496 187.575 141.1 186.874 141.1 186.874C136.204 188.508 132.192 189.301 132.921 190.615H149.571Z" fill="#282828"/>
<path d="M117.698 113.505C116.863 114.231 115.943 114.528 114.874 114.307C115.875 115.058 117.269 114.483 117.698 113.505Z" fill="#FE875E"/>
<path d="M149.143 63.6452C149.143 63.6452 153.904 64.3072 155.157 65.2273C156.568 66.2637 160.939 71.0987 160.939 71.0987C160.939 71.0987 151.842 97.156 152.195 101.792C152.547 106.429 153.544 113.295 153.544 113.295C153.544 113.295 135.879 114.41 129.189 111.769C129.189 111.769 131.302 101.264 131.302 98.5056C131.302 95.7472 132.488 68.1762 133.332 66.7321C134.177 65.288 135.879 64.4666 139.107 63.7619C142.335 63.058 149.143 63.6452 149.143 63.6452Z" fill="#97B954"/>
<path d="M147.843 56.2054L149.021 63.9215C149.021 63.9215 145.477 68.009 142.908 67.2122C140.752 66.5436 141.319 63.5146 141.319 63.5146C141.319 63.5146 142.494 59.1487 142.141 56.9641C141.789 54.7795 147.843 56.2054 147.843 56.2054Z" fill="#D9BF73"/>
<path d="M142.141 56.9644C141.789 54.7796 147.843 56.2056 147.843 56.2056L147.94 56.8456C147.763 57.2739 147.547 57.6402 147.284 57.9211C145.932 59.367 143.818 60.235 141.99 60.3006C142.173 59.1226 142.285 57.86 142.141 56.9644Z" fill="#E5AC7A"/>
<path d="M148.836 45.2891C149.007 45.2274 150.208 54.0774 147.929 56.5126C145.652 58.9478 141.213 59.7444 139.621 57.8267C137.86 55.7052 137.949 46.1937 141.49 43.6886C145.032 41.1838 148.836 45.2891 148.836 45.2891Z" fill="#D9BF73"/>
<path d="M142.839 38.9546C145.576 39.5089 147.349 41.171 148.001 41.8791C149.244 42.025 150.933 42.7076 152.678 45.577C154.823 49.1049 153.239 53.014 150.742 54.9319C148.245 56.8496 148.278 59.0598 148.278 59.0598L147.884 57.9194C147.593 57.0511 147.474 56.1307 147.572 55.2204C147.63 54.6738 147.748 54.0832 147.975 53.5976C148.576 52.3169 146.685 51.4657 146.155 50.4002C145.747 49.5795 145.727 47.7024 145.084 46.346L144.316 45.3106C144.316 45.3106 142.544 43.9407 140.81 44.3273C139.077 44.714 139.326 38.2432 142.839 38.9546Z" fill="#353535"/>
<path d="M146.272 51.9751C146.254 53.0551 146.748 53.9389 147.376 53.9497C148.003 53.9602 148.527 53.0934 148.545 52.0137C148.563 50.9339 148.069 50.0499 147.441 50.0394C146.813 50.0286 146.29 50.8954 146.272 51.9751Z" fill="#D9BF73"/>
<path d="M178.727 93.5932H143.074V124.522H178.727V93.5932Z" fill="#DD934B"/>
<path d="M156.541 93.5932H143.074V124.522H156.541V93.5932Z" fill="#B4633C"/>
<path d="M169.928 119.878C169.531 118.425 168.827 116.136 168.827 116.136C168.915 114.242 170.588 92.7843 170.353 91.8742C170.118 90.9646 162.886 74.8925 162.886 74.8925L156.812 80.6148L163.839 95.1914C163.897 96.0426 164.448 111.831 164.448 111.831C164.448 111.831 164.734 116.697 164.535 117.044C164.366 117.337 163.993 117.507 162.621 119.757C162.225 120.406 162.181 121.507 162.181 121.507C162.181 121.507 162.137 122.861 162.434 122.96C162.731 123.059 163.061 122.828 163.16 122.586C163.259 122.344 163.215 121.804 163.314 121.562C163.413 121.32 164.14 120.99 164.426 120.979C164.599 120.972 164.594 122.628 164.497 124.203C164.458 124.835 164.914 125.364 165.536 125.484C165.804 125.536 165.946 125.291 166.233 125.577C166.643 125.744 167.255 125.603 167.578 125.523C168.004 125.666 168.846 125.716 169.165 125.532C169.227 125.519 169.29 125.506 169.352 125.491C169.782 125.391 170.091 125.014 170.114 124.574C170.154 123.838 170.124 123.361 170.12 123.325C170.069 122.898 170.324 121.331 169.928 119.878Z" fill="#D9BF73"/>
<path d="M166.848 80.4386L158.885 86.6508C158.885 86.6508 155.369 83.2787 153.603 79.5496C151.816 75.7741 152.371 64.2774 154.273 64.7893C158.529 65.9347 166.848 80.4386 166.848 80.4386Z" fill="black"/>
<path d="M70.6126 129.106H60.2493V124.521H75.197C75.197 127.053 73.1445 129.106 70.6126 129.106Z" fill="#CFDBA9"/>
<path d="M149.807 74.4625H143.074V78.3197H149.807V74.4625Z" fill="#97B954"/>
</svg>
