<svg width="292" height="322" viewBox="0 0 292 322" fill="none" xmlns="http://www.w3.org/2000/svg">
<path d="M292 136.181C292 225.959 226.634 298.738 146 298.738C65.3664 298.738 0 225.959 0 136.181C0 46.4029 47.2353 -34.0264 120.358 14.7409C193.481 63.5081 292 46.4029 292 136.181Z" fill="#E4F2BF"/>
<path d="M35.2291 161.954C35.2291 222.54 86.2013 271.655 149.079 271.655C211.956 271.655 265.744 220.394 265.744 159.808C265.744 99.2216 211.956 52.2529 149.079 52.2529C86.2013 52.2529 35.2291 101.368 35.2291 161.954Z" fill="#2B2C2E"/>
<path d="M256.805 135.28C256.873 135.28 256.94 135.273 257.008 135.255C257.428 135.147 257.677 134.733 257.566 134.327C256.341 129.895 254.776 125.497 252.914 121.259C252.744 120.874 252.281 120.698 251.884 120.856C251.484 121.02 251.297 121.464 251.466 121.85C253.3 126.023 254.84 130.352 256.046 134.718C256.139 135.057 256.458 135.28 256.805 135.28Z" fill="#E4F2BF"/>
<path d="M239.408 100.998C239.572 100.998 239.738 100.948 239.88 100.846C240.227 100.594 240.296 100.118 240.035 99.7848C218.941 72.8322 184.964 56.7424 149.146 56.7424C133.849 56.7424 119.053 59.7311 105.171 65.6225C104.774 65.7913 104.594 66.2397 104.769 66.6213C104.943 67.0044 105.408 67.1775 105.805 67.0103C119.486 61.2019 134.069 58.2574 149.146 58.2574C184.474 58.2574 217.981 74.1223 238.779 100.696C238.934 100.894 239.169 100.998 239.408 100.998Z" fill="#E4F2BF"/>
<path d="M50.7185 161.954C50.7185 214.398 94.8406 256.912 149.268 256.912C203.695 256.912 250.255 212.54 250.255 160.096C250.255 107.652 203.695 66.9955 149.268 66.9955C94.8406 66.9955 50.7185 109.51 50.7185 161.954Z" fill="#97B954"/>
<path d="M50.7189 161.954C50.7189 109.51 94.8407 66.9956 149.268 66.9956C178.74 66.9956 205.901 78.9215 224.616 98.1804L148.701 159.045L133.094 255.632C86.3629 248.196 50.7189 209.089 50.7189 161.954Z" fill="#97B954"/>
<path d="M64.1323 155.352C64.1323 202.682 104.779 241.05 154.919 241.05C205.059 241.05 247.951 201.006 247.951 153.676C247.951 106.346 205.059 69.6544 154.919 69.6544C104.779 69.6545 64.1323 108.023 64.1323 155.352Z" fill="#97B954"/>
<path d="M225.07 157.029C225.313 161.06 228.902 164.137 233.085 163.902C237.268 163.668 240.462 160.21 240.219 156.179C239.975 152.149 236.386 149.071 232.203 149.306C228.02 149.54 224.826 152.998 225.07 157.029Z" fill="#7E933D"/>
<path opacity="0.78" d="M61.1524 166.222C61.3956 170.253 64.9845 173.33 69.1675 173.095C73.3509 172.861 76.5447 169.403 76.3012 165.372C76.0578 161.341 72.4691 158.264 68.286 158.499C64.1026 158.733 60.9087 162.191 61.1524 166.222Z" fill="white"/>
<path d="M164.073 231.827C159.951 232.553 157.22 236.361 157.973 240.333C158.726 244.305 162.678 246.937 166.8 246.211C170.922 245.485 173.653 241.677 172.9 237.706C172.147 233.733 168.195 231.102 164.073 231.827Z" fill="#7E933D"/>
<path d="M134.571 76.1901C130.449 76.9155 127.717 80.7235 128.47 84.6954C129.223 88.6675 133.175 91.299 137.297 90.5736C141.419 89.8482 144.151 86.0402 143.398 82.0683C142.645 78.0964 138.693 75.4647 134.571 76.1901Z" fill="#7E933D"/>
<path opacity="0.78" d="M110.133 236.006C109.361 237.88 109.554 239.635 110.563 239.926C111.571 240.217 113.014 238.933 113.785 237.059C114.556 235.184 114.364 233.429 113.355 233.138C112.346 232.847 110.903 234.131 110.133 236.006Z" fill="white"/>
<path d="M176.077 88.384C175.306 90.2584 175.498 92.0135 176.507 92.3041C177.516 92.5949 178.958 91.3108 179.73 89.4366C180.501 87.5621 180.308 85.8068 179.299 85.5162C178.29 85.2258 176.848 86.5098 176.077 88.384Z" fill="#7E933D"/>
<path opacity="0.78" d="M75.701 207.943C74.0321 209.16 73.2508 210.756 73.9564 211.509C74.662 212.262 76.5867 211.887 78.2559 210.671C79.9249 209.454 80.7058 207.858 80.0004 207.105C79.2948 206.352 77.3699 206.727 75.701 207.943Z" fill="white"/>
<path d="M211.606 114.772C209.937 115.988 209.156 117.584 209.862 118.337C210.567 119.091 212.492 118.715 214.161 117.499C215.83 116.283 216.611 114.686 215.906 113.933C215.2 113.18 213.275 113.556 211.606 114.772Z" fill="#7E933D"/>
<path opacity="0.78" d="M71.3764 124.358C69.4871 123.491 67.6568 123.559 67.2884 124.509C66.9198 125.459 68.1525 126.932 70.0418 127.799C71.9312 128.666 73.7616 128.598 74.13 127.648C74.4985 126.698 73.2657 125.225 71.3764 124.358Z" fill="white"/>
<path opacity="0.78" d="M219.82 197.643C217.931 196.776 216.101 196.844 215.732 197.794C215.363 198.745 216.596 200.218 218.486 201.084C220.375 201.951 222.205 201.883 222.574 200.933C222.942 199.983 221.709 198.51 219.82 197.643Z" fill="white"/>
<path d="M102.741 93.1348C101.593 91.4487 99.9925 90.5908 99.1654 91.2187C98.3384 91.8466 98.5984 93.7223 99.7458 95.4085C100.893 97.0944 102.494 97.9522 103.321 97.3244C104.148 96.6965 103.888 94.8206 102.741 93.1348Z" fill="#7E933D"/>
<path d="M190.116 230.034C188.969 228.348 187.368 227.49 186.541 228.118C185.714 228.746 185.974 230.621 187.121 232.308C188.269 233.994 189.87 234.852 190.697 234.224C191.524 233.596 191.264 231.72 190.116 230.034Z" fill="#7E933D"/>
<path d="M152.337 159.011L213.287 188.302C214.468 188.869 215.85 188.017 215.81 186.746L215.57 179.186C215.524 177.716 217.321 176.901 218.467 177.873L262.536 215.26C263.885 216.404 262.776 218.528 261.019 218.166L204.26 206.489C202.902 206.209 202.411 204.587 203.4 203.648L210.045 197.334C210.866 196.553 210.689 195.234 209.69 194.679L150.688 161.973C149.866 161.518 149.572 160.513 150.026 159.711C150.475 158.917 151.496 158.608 152.337 159.011Z" fill="#15181E"/>
<path opacity="0.72" d="M255.684 215.086C256.25 215.086 256.763 214.781 257.022 214.268C257.331 213.653 257.172 212.951 256.626 212.516L246.983 204.834C246.649 204.568 246.152 204.614 245.876 204.936C245.599 205.259 245.647 205.735 245.982 206.003L255.625 213.685C242.776 210.857 212.681 204.538 212.057 204.478C211.635 204.43 211.239 204.737 211.195 205.154C211.152 205.565 211.457 205.932 211.88 205.982C212.782 206.122 235.844 210.951 255.35 215.05C255.462 215.074 255.574 215.086 255.684 215.086Z" fill="white"/>
<path d="M145.979 156.127L146.1 98.7039C146.08 97.4326 144.659 96.6423 143.506 97.2613L136.65 100.944C135.316 101.66 133.738 100.497 134.107 99.0689L148.288 44.1666C148.721 42.4873 151.188 42.4587 151.663 44.1282L167.012 98.0607C167.379 99.3512 166.11 100.518 164.789 100.104L155.914 97.3233C154.817 96.9795 153.683 97.7377 153.632 98.8481L149.467 156.175C149.425 157.088 148.635 157.801 147.687 157.782C146.748 157.763 145.993 157.031 145.979 156.127Z" fill="#15181E"/>
<path opacity="0.72" d="M162.302 92.7954C162.398 92.7954 162.495 92.7791 162.589 92.7437C162.989 92.5927 163.187 92.1622 163.04 91.776C162.754 90.9445 156.595 68.9898 151.4 50.413C151.215 49.756 150.636 49.3241 149.91 49.3404C149.202 49.358 148.626 49.818 148.477 50.4853L145.834 62.2698C145.743 62.6782 146.012 63.0822 146.437 63.1694C146.857 63.2597 147.278 62.9992 147.371 62.5894L150.014 50.8051C153.319 63.1 161.341 91.751 161.571 92.3147C161.692 92.6135 161.988 92.7954 162.302 92.7954Z" fill="white"/>
<path d="M149.777 167.013C154.252 167.013 157.88 163.517 157.88 159.205C157.88 154.893 154.252 151.397 149.777 151.397C145.302 151.397 141.674 154.893 141.674 159.205C141.674 163.517 145.302 167.013 149.777 167.013Z" fill="#15181E"/>
<path d="M65.9112 309.731C71.1488 310.184 80.239 310.919 87.4053 311.235C91.7132 311.424 94.1931 311.002 95.6215 310.431C95.619 310.592 95.6145 310.744 95.6082 310.885C95.5743 311.639 94.9616 312.243 94.1999 312.285C80.6588 313.041 69.8896 312.547 66.0557 312.313C65.2629 312.265 64.7905 311.403 65.1959 310.728C65.3987 310.39 65.6444 310.058 65.9112 309.731Z" fill="black"/>
<path d="M87.4052 311.235C80.2389 310.919 71.1487 310.184 65.9111 309.731C71.0606 303.413 87.4052 299.155 87.4052 299.155H92.0215C95.1965 303.732 95.6563 308.089 95.6215 310.431C94.1931 311.002 91.7131 311.424 87.4052 311.235Z" fill="black"/>
<path d="M92.7989 291.619L92.3669 300.167C92.32 301.093 91.6271 301.871 90.7 302.003C89.7777 302.135 88.5423 302.152 87.2323 301.716C86.4264 301.448 85.8281 300.769 85.6794 299.94L84.1868 291.619H92.7989Z" fill="#D9BF73"/>
<path d="M146.376 319.592C148.648 319.183 149.675 317.658 150.106 316.028C150.109 316.043 150.112 316.057 150.115 316.072C150.449 317.791 149.674 319.574 148.125 320.421C146.253 321.446 144.206 321.621 142.618 321.536C140.913 321.445 139.348 320.533 138.488 319.074L138.475 319.052C140.186 320.146 142.588 320.275 146.376 319.592Z" fill="black"/>
<path d="M135.667 294.253H139.474C145.273 294.099 148.914 309.906 150.106 316.028C149.675 317.658 148.648 319.183 146.376 319.592C142.588 320.275 140.186 320.146 138.475 319.052C135.342 313.724 133.789 305.921 133.043 301.367C132.193 296.187 135.667 294.253 135.667 294.253Z" fill="black"/>
<path d="M138.985 286.318L141.099 294.726C141.358 295.757 140.864 296.823 139.911 297.312C138.729 297.919 137.064 298.557 135.534 298.372C134.814 298.285 134.216 297.778 133.978 297.101L130.875 288.255L138.985 286.318Z" fill="#D9BF73"/>
<path d="M64.6216 175.583C64.6216 175.583 83.5127 293.668 83.2016 294.317C83.2016 294.317 88.4192 296.689 94.1071 294.619C94.1071 294.619 92.3989 231.494 88.396 207.29C88.396 207.29 120.637 263.712 130.875 291.826C130.875 291.826 136.215 291.189 140.635 288.28C140.635 288.28 105.921 186.724 96.6598 173.197L64.6216 175.583Z" fill="black"/>
<path d="M61.6432 93.1298C60.2935 93.2091 58.9622 93.4681 57.686 93.9102C43.8412 98.7078 32.9689 97.5006 24.6106 93.7243C22.6733 96.2961 19.5533 101.645 18.1942 110.637C33.4086 121.961 52.5423 118.977 58.7994 117.578C57.1616 129.731 57.1769 148.957 63.866 177.142C64.0411 177.879 64.6751 178.425 65.4381 178.488C69.7125 178.841 84.0194 179.681 97.7752 176.591C98.3925 176.452 98.7302 175.789 98.4848 175.211L98.3598 174.917C97.2128 172.218 96.7 169.301 96.8645 166.378C97.3635 157.5 99.7523 137.439 104.844 123.69C105.14 124.191 105.416 124.686 105.684 125.177C106.606 116.134 110.069 107.239 112.515 98.2688C92.5942 91.9375 68.9063 92.704 61.6432 93.1298Z" fill="#97B954"/>
<path d="M92.719 76.7112C92.719 76.7112 94.1105 91.4247 95.3359 95.7769C95.5218 96.4372 95.235 97.1334 94.6351 97.4763C92.5555 98.6645 87.568 100.603 80.7457 97.259C79.6405 96.7174 78.976 95.5653 79.0276 94.346L79.6286 80.128L92.719 76.7112Z" fill="#B8A364"/>
<path d="M79.3286 57.8881C79.3286 57.8881 74.8776 68.1125 74.5788 73.4789C74.2799 78.8453 73.1235 82.3276 79.3286 83.4082C85.5336 84.4889 90.7608 81.3978 93.5927 76.0522C93.5927 76.0522 98.0296 67.8151 97.0343 64.4418C96.039 61.0685 79.3286 57.8881 79.3286 57.8881Z" fill="#D9BF73"/>
<path d="M91.4723 72.2086L91.1191 72.0529C90.6694 71.8547 90.477 71.3195 90.7029 70.8829C91.5779 69.1923 93.2836 65.3181 91.08 64.4143C89.0037 63.5629 86.7572 63.0849 84.6226 62.4014C82.6415 61.7672 78.7929 61.1031 77.7598 59.0127C77.461 58.4083 77.7883 57.6953 78.1106 57.1031C78.7136 55.9944 79.3167 54.8858 79.9197 53.7771C80.4295 52.8399 80.9572 51.8803 81.7695 51.1888C83.6291 49.6057 85.848 50.9953 87.9062 51.3751C95.5612 52.7879 100.622 55.8857 100.748 61.1754C100.756 61.5114 101.114 61.6983 101.401 61.5234C101.966 61.179 102.871 61.0173 104.079 62.0337C106.182 63.8015 105.321 68.387 100.713 72.1589C100.494 72.3381 100.495 72.6799 100.733 72.8342C101.568 73.3781 102.814 74.6722 99.5863 76.3974C96.2482 78.1817 93.7555 78.0353 92.7957 77.8769C92.5568 77.8374 92.403 77.6063 92.4551 77.3699L93.4795 72.7208C93.5376 72.4576 93.3372 72.2084 93.0677 72.2084H91.4723V72.2086Z" fill="url(#paint0_linear_279_353)"/>
<path d="M91.2795 73.1897C91.2795 73.1897 92.9776 66.6586 95.9058 68.4898C98.834 70.321 94.3863 75.8077 92.0321 76.0521L91.2795 73.1897Z" fill="#D9BF73"/>
<path d="M75.6477 59.6259C82.9276 38.0434 113.132 51.6491 103.172 70.454C92.7165 65.7193 80.5373 58.1327 75.6477 59.6259Z" fill="#9CBC57"/>
<path d="M93.4488 65.3643L74.4659 67.8587C73.9838 67.9221 73.5023 67.7281 73.2015 67.3461C71.0113 64.5666 68.2184 63.0235 64.9482 62.459C64.5345 62.3876 64.5215 61.7969 64.9304 61.7014L76.3817 59.0263C76.3944 59.0234 76.4074 59.0213 76.4204 59.0201C82.2637 58.5232 87.9385 61.1626 93.5533 64.9169C93.7404 65.0421 93.6721 65.3349 93.4488 65.3643Z" fill="black"/>
<path d="M97.5769 174.343C101.931 174.426 105.505 170.919 105.505 166.565V131.949C105.505 127.401 101.85 123.701 97.3018 123.651C83.653 123.503 55.5031 123.495 32.4702 125.436C29.3272 125.701 26.8824 128.277 26.7684 131.429L24.6157 164.896C24.4558 169.322 27.9555 173.021 32.3843 173.105L97.5769 174.343Z" fill="#DD934B"/>
<path d="M97.5994 135.695C97.6574 138.64 97.57 143.313 97.4983 146.333C97.4611 147.904 96.0819 149.101 94.5213 148.918L83.2888 147.601C81.7924 147.426 80.7382 146.047 80.9615 144.557L82.3402 135.359C82.536 134.053 83.6577 133.087 84.978 133.087H94.9326C96.3831 133.087 97.5708 134.244 97.5994 135.695Z" fill="white"/>
<path opacity="0.37" d="M68.2451 153.126L58.8751 154.136C57.564 154.278 56.4452 153.197 56.5418 151.881L58.5902 124.009C62.5181 123.884 66.3924 123.793 70.1308 123.729V151.025C70.1309 152.104 69.3178 153.01 68.2451 153.126Z" fill="#A34E2C"/>
<path d="M64.4047 148.295C64.3759 148.796 63.9605 149.183 63.4647 149.183C63.4462 149.183 63.4278 149.182 63.4094 149.181C62.8897 149.151 62.4927 148.705 62.5234 148.185L63.9362 123.859C64.5697 123.843 65.1981 123.829 65.8265 123.815L64.4047 148.295Z" fill="white"/>
<path d="M92.4047 144.475C92.5692 144.475 92.7078 144.347 92.7182 144.18L93.2042 136.518C93.2152 136.345 93.0839 136.196 92.9103 136.185C92.728 136.171 92.5882 136.306 92.577 136.479L92.0911 144.141C92.0801 144.314 92.2114 144.463 92.385 144.474C92.3917 144.475 92.3985 144.475 92.4047 144.475Z" fill="url(#paint1_linear_279_353)"/>
<path d="M91.4045 144.475C91.5733 144.475 91.7131 144.341 91.7186 144.171L91.9732 136.362C91.9787 136.189 91.8425 136.043 91.6696 136.038C91.4694 136.028 91.3511 136.168 91.345 136.341L91.0902 144.15C91.0847 144.324 91.221 144.469 91.394 144.475C91.394 144.475 91.4013 144.475 91.4045 144.475Z" fill="url(#paint2_linear_279_353)"/>
<path d="M90.0484 144.474C89.8748 144.466 89.741 144.319 89.7495 144.146C89.8741 141.523 90.1116 136.519 90.1152 136.349C90.1164 136.177 90.257 136.038 90.4293 136.038C90.6029 136.038 90.7436 136.178 90.7436 136.352C90.7436 136.481 90.438 142.892 90.3767 144.176C90.3687 144.344 90.23 144.475 90.0631 144.475C90.0581 144.475 90.0532 144.475 90.0484 144.474Z" fill="url(#paint3_linear_279_353)"/>
<path d="M87.9689 144.789C88.3058 144.789 88.5844 144.522 88.596 144.183C88.8617 136.617 88.8151 136.446 88.7843 136.334C88.6935 135.998 88.345 135.801 88.013 135.892C87.7055 135.976 87.5135 136.275 87.5553 136.582C87.5755 137.037 87.435 141.439 87.3405 144.139C87.3282 144.485 87.5995 144.777 87.9461 144.789C87.9536 144.789 87.9615 144.789 87.9689 144.789Z" fill="url(#paint4_linear_279_353)"/>
<path d="M86.6073 144.475C86.7811 144.475 86.9216 144.334 86.9216 144.161V136.499C86.9216 136.325 86.7811 136.184 86.6073 136.184C86.4337 136.184 86.2932 136.325 86.2932 136.499V144.161C86.2932 144.334 86.4336 144.475 86.6073 144.475Z" fill="url(#paint5_linear_279_353)"/>
<path d="M85.5077 144.475C85.6782 144.475 85.8182 144.339 85.8218 144.168C85.882 141.506 86.0225 137.157 86.1483 136.634C86.2034 136.536 86.2029 136.41 86.1366 136.308C86.0414 136.162 85.847 136.123 85.7015 136.218C85.5303 136.33 85.3677 136.437 85.1934 144.153C85.1898 144.327 85.3271 144.471 85.5003 144.475H85.5077Z" fill="url(#paint6_linear_279_353)"/>
<path d="M94.0952 145.173C94.4272 145.173 94.7045 144.912 94.7223 144.577L95.1414 136.531C95.1592 136.184 94.8929 135.889 94.5462 135.871C94.2174 135.848 93.9043 136.119 93.886 136.466L93.4669 144.512C93.4491 144.858 93.7153 145.154 94.0621 145.172C94.073 145.173 94.0841 145.173 94.0952 145.173Z" fill="url(#paint7_linear_279_353)"/>
<path d="M74.4001 124.937C77.6593 124.999 80.3347 122.374 80.3347 119.115V93.2012C80.3347 89.7967 77.5985 87.0263 74.1942 86.9893C63.9767 86.878 42.9036 86.8725 25.6612 88.3255C23.3084 88.5237 21.4782 90.4522 21.3929 92.8118L19.7814 117.865C19.6616 121.179 22.2815 123.947 25.5969 124.01L74.4001 124.937Z" fill="#B4633C"/>
<path d="M74.4168 96.0048C74.4603 98.2098 74.3948 101.708 74.3412 103.969C74.3133 105.145 73.2809 106.041 72.1126 105.904L63.7039 104.918C62.5838 104.787 61.7945 103.755 61.9617 102.639L62.9937 95.7537C63.1403 94.7762 63.98 94.053 64.9684 94.053H72.4205C73.5063 94.0531 74.3955 94.9192 74.4168 96.0048Z" fill="white"/>
<path opacity="0.37" d="M52.4421 109.054L45.4277 109.81C44.4462 109.916 43.6088 109.107 43.681 108.122L45.2144 87.2567C48.1547 87.1634 51.0551 87.0954 53.8538 87.0477V107.481C53.8539 108.289 53.2452 108.967 52.4421 109.054Z" fill="#DD934B"/>
<path d="M49.5672 105.437C49.5456 105.813 49.2347 106.102 48.8635 106.102C48.8497 106.102 48.8359 106.101 48.8221 106.101C48.433 106.078 48.1359 105.745 48.1588 105.355L49.2164 87.1447C49.6907 87.133 50.1611 87.1225 50.6315 87.112L49.5672 105.437Z" fill="white"/>
<path d="M70.528 102.578C70.6511 102.578 70.755 102.482 70.7628 102.357L71.1266 96.6214C71.1348 96.4919 71.0366 96.3801 70.9065 96.3719C70.77 96.3613 70.6654 96.4624 70.6571 96.592L70.2933 102.328C70.2851 102.457 70.3833 102.569 70.5134 102.577C70.5183 102.578 70.5234 102.578 70.528 102.578Z" fill="url(#paint8_linear_279_353)"/>
<path d="M69.7793 102.578C69.9056 102.578 70.0104 102.478 70.0145 102.35L70.2051 96.5048C70.2091 96.3747 70.1072 96.2659 69.9777 96.2618C69.8278 96.2545 69.7393 96.3597 69.7347 96.4892L69.5441 102.335C69.5399 102.465 69.642 102.574 69.7715 102.578C69.7715 102.578 69.777 102.578 69.7793 102.578Z" fill="url(#paint9_linear_279_353)"/>
<path d="M68.7641 102.577C68.6342 102.571 68.534 102.461 68.5405 102.332C68.6337 100.368 68.8115 96.6224 68.8142 96.4947C68.8151 96.3661 68.9203 96.2618 69.0493 96.2618C69.1793 96.2618 69.2846 96.367 69.2846 96.497C69.2846 96.5939 69.0559 101.393 69.01 102.354C69.004 102.48 68.9001 102.578 68.7751 102.578C68.7714 102.578 68.7677 102.578 68.7641 102.577Z" fill="url(#paint10_linear_279_353)"/>
<path d="M67.2074 102.813C67.4597 102.813 67.6681 102.613 67.6769 102.359C67.8758 96.6953 67.841 96.5676 67.8179 96.4831C67.7499 96.2319 67.489 96.0845 67.2405 96.1529C67.0103 96.2158 66.8666 96.4391 66.8978 96.6692C66.913 97.0096 66.8078 100.305 66.737 102.326C66.7278 102.586 66.9309 102.804 67.1903 102.813C67.1959 102.813 67.2019 102.813 67.2074 102.813Z" fill="url(#paint11_linear_279_353)"/>
<path d="M66.188 102.578C66.3181 102.578 66.4233 102.473 66.4233 102.343V96.6066C66.4233 96.4766 66.3181 96.3715 66.188 96.3715C66.0581 96.3715 65.9529 96.4767 65.9529 96.6066V102.343C65.9529 102.473 66.058 102.578 66.188 102.578Z" fill="url(#paint12_linear_279_353)"/>
<path d="M65.365 102.578C65.4927 102.578 65.5974 102.476 65.6001 102.348C65.6451 100.355 65.7503 97.0995 65.8445 96.7082C65.8858 96.6343 65.8853 96.5406 65.8357 96.4643C65.7645 96.3549 65.6189 96.3256 65.51 96.3968C65.3818 96.4808 65.2601 96.5603 65.1297 102.337C65.127 102.467 65.2298 102.575 65.3593 102.578H65.365Z" fill="url(#paint13_linear_279_353)"/>
<path d="M71.7934 103.1C72.042 103.1 72.2496 102.905 72.263 102.654L72.5766 96.631C72.59 96.3715 72.3905 96.1506 72.1311 96.1368C71.8849 96.1193 71.6506 96.3229 71.6368 96.5823L71.3231 102.605C71.3098 102.865 71.5091 103.086 71.7687 103.1C71.777 103.1 71.7852 103.1 71.7934 103.1Z" fill="url(#paint14_linear_279_353)"/>
<path d="M17.4804 101.971C18.9141 101.62 22.1343 97.2631 22.4769 98.8549C22.8195 100.447 21.8483 102.465 21.9924 103.142C22.1365 103.819 23.2172 107.61 22.3583 109.201C21.7386 110.349 20.5221 113.959 19.8929 115.88C19.6839 116.518 19.514 117.36 18.8471 117.285C18.1802 117.21 17.6637 116.313 17.6016 115.645C17.5767 115.377 16.0467 102.323 17.4804 101.971Z" fill="#D9BF73"/>
<path d="M120.202 107.347C118.436 103.295 112.809 98.3624 112.515 98.2689C110.069 107.239 105.766 114.648 104.844 123.691C110.877 134.773 109.494 147.842 105.726 154.198C107.579 156.95 109.746 160.697 111.623 165.358C134.822 151.472 125.639 119.823 120.202 107.347Z" fill="#1E2024"/>
<path d="M90.405 175.406L70.3195 174.969C70.3195 174.969 87.8345 170.018 88.9213 171.366C88.9213 171.366 99.7771 164.233 105.726 154.198C107.579 156.95 109.746 160.697 111.623 165.358C106.29 168.489 99.2858 173.928 90.405 175.406Z" fill="#D9BF73"/>
<path d="M90.9712 171.928C90.9712 171.928 91.3855 179.931 80.8805 178.769C75.1713 178.137 65.9542 172.814 65.9542 172.814C65.9542 172.814 89.9782 172.75 90.9712 171.928Z" fill="#D9BF73"/>
<defs>
<linearGradient id="paint0_linear_279_353" x1="98.9507" y1="53.5259" x2="75.2534" y2="84.0361" gradientUnits="userSpaceOnUse">
<stop stop-color="#09005D"/>
<stop offset="1" stop-color="#1A0F91"/>
</linearGradient>
<linearGradient id="paint1_linear_279_353" x1="88.8492" y1="134.81" x2="108.956" y2="164.028" gradientUnits="userSpaceOnUse">
<stop stop-color="#09005D"/>
<stop offset="1" stop-color="#1A0F91"/>
</linearGradient>
<linearGradient id="paint2_linear_279_353" x1="88.1263" y1="135.308" x2="108.233" y2="164.525" gradientUnits="userSpaceOnUse">
<stop stop-color="#09005D"/>
<stop offset="1" stop-color="#1A0F91"/>
</linearGradient>
<linearGradient id="paint3_linear_279_353" x1="87.2539" y1="135.908" x2="107.361" y2="165.126" gradientUnits="userSpaceOnUse">
<stop stop-color="#09005D"/>
<stop offset="1" stop-color="#1A0F91"/>
</linearGradient>
<linearGradient id="paint4_linear_279_353" x1="85.7451" y1="136.946" x2="105.852" y2="166.164" gradientUnits="userSpaceOnUse">
<stop stop-color="#09005D"/>
<stop offset="1" stop-color="#1A0F91"/>
</linearGradient>
<linearGradient id="paint5_linear_279_353" x1="84.7503" y1="137.631" x2="104.857" y2="166.849" gradientUnits="userSpaceOnUse">
<stop stop-color="#09005D"/>
<stop offset="1" stop-color="#1A0F91"/>
</linearGradient>
<linearGradient id="paint6_linear_279_353" x1="84.1325" y1="138.056" x2="104.239" y2="167.274" gradientUnits="userSpaceOnUse">
<stop stop-color="#09005D"/>
<stop offset="1" stop-color="#1A0F91"/>
</linearGradient>
<linearGradient id="paint7_linear_279_353" x1="89.8838" y1="134.098" x2="109.991" y2="163.316" gradientUnits="userSpaceOnUse">
<stop stop-color="#09005D"/>
<stop offset="1" stop-color="#1A0F91"/>
</linearGradient>
<linearGradient id="paint8_linear_279_353" x1="67.8664" y1="95.3427" x2="82.9184" y2="117.215" gradientUnits="userSpaceOnUse">
<stop stop-color="#09005D"/>
<stop offset="1" stop-color="#1A0F91"/>
</linearGradient>
<linearGradient id="paint9_linear_279_353" x1="67.3252" y1="95.7152" x2="82.3773" y2="117.588" gradientUnits="userSpaceOnUse">
<stop stop-color="#09005D"/>
<stop offset="1" stop-color="#1A0F91"/>
</linearGradient>
<linearGradient id="paint10_linear_279_353" x1="66.6722" y1="96.1646" x2="81.7243" y2="118.037" gradientUnits="userSpaceOnUse">
<stop stop-color="#09005D"/>
<stop offset="1" stop-color="#1A0F91"/>
</linearGradient>
<linearGradient id="paint11_linear_279_353" x1="65.5426" y1="96.9419" x2="80.5946" y2="118.814" gradientUnits="userSpaceOnUse">
<stop stop-color="#09005D"/>
<stop offset="1" stop-color="#1A0F91"/>
</linearGradient>
<linearGradient id="paint12_linear_279_353" x1="64.7978" y1="97.4544" x2="79.8497" y2="119.327" gradientUnits="userSpaceOnUse">
<stop stop-color="#09005D"/>
<stop offset="1" stop-color="#1A0F91"/>
</linearGradient>
<linearGradient id="paint13_linear_279_353" x1="64.3355" y1="97.7726" x2="79.3874" y2="119.645" gradientUnits="userSpaceOnUse">
<stop stop-color="#09005D"/>
<stop offset="1" stop-color="#1A0F91"/>
</linearGradient>
<linearGradient id="paint14_linear_279_353" x1="68.6409" y1="94.8098" x2="83.6928" y2="116.682" gradientUnits="userSpaceOnUse">
<stop stop-color="#09005D"/>
<stop offset="1" stop-color="#1A0F91"/>
</linearGradient>
</defs>
</svg>
