<svg width="327" height="322" viewBox="0 0 327 322" fill="none" xmlns="http://www.w3.org/2000/svg">
<path d="M327 136.181C327 225.959 261.634 298.738 181 298.738C100.366 298.738 35 225.959 35 136.181C35 46.4029 82.2353 -34.0264 155.358 14.7409C228.481 63.5081 327 46.4029 327 136.181Z" fill="#E4F2BF"/>
<path d="M86 161.954C86 222.54 136.972 271.655 199.849 271.655C262.727 271.655 316.515 220.394 316.515 159.808C316.515 99.2216 262.727 52.2529 199.849 52.2529C136.972 52.2529 86 101.368 86 161.954Z" fill="#2B2C2E"/>
<path d="M307.576 135.28C307.644 135.28 307.711 135.273 307.779 135.255C308.199 135.147 308.448 134.733 308.337 134.327C307.112 129.895 305.547 125.497 303.685 121.259C303.515 120.874 303.052 120.698 302.655 120.856C302.255 121.02 302.068 121.464 302.237 121.85C304.071 126.023 305.611 130.352 306.817 134.718C306.91 135.057 307.229 135.28 307.576 135.28Z" fill="#E4F2BF"/>
<path d="M290.179 100.998C290.343 100.998 290.509 100.948 290.651 100.846C290.998 100.594 291.067 100.118 290.806 99.7848C269.712 72.8322 235.735 56.7424 199.917 56.7424C184.62 56.7424 169.824 59.7311 155.942 65.6225C155.545 65.7913 155.365 66.2397 155.54 66.6213C155.714 67.0044 156.179 67.1775 156.576 67.0103C170.257 61.2019 184.84 58.2574 199.917 58.2574C235.245 58.2574 268.752 74.1223 289.55 100.696C289.705 100.894 289.94 100.998 290.179 100.998Z" fill="#E4F2BF"/>
<path d="M101.489 161.954C101.489 214.398 145.611 256.912 200.039 256.912C254.466 256.912 301.025 212.54 301.025 160.096C301.025 107.652 254.466 66.9955 200.039 66.9955C145.611 66.9955 101.489 109.51 101.489 161.954Z" fill="#97B954"/>
<path d="M101.49 161.954C101.49 109.51 145.612 66.9956 200.039 66.9956C229.511 66.9956 256.672 78.9215 275.387 98.1804L199.472 159.045L183.865 255.632C137.134 248.196 101.49 209.089 101.49 161.954Z" fill="#97B954"/>
<path d="M114.903 155.352C114.903 202.682 155.55 241.05 205.69 241.05C255.83 241.05 298.722 201.006 298.722 153.676C298.722 106.346 255.83 69.6544 205.69 69.6544C155.55 69.6545 114.903 108.023 114.903 155.352Z" fill="#97B954"/>
<path d="M275.841 157.029C276.084 161.06 279.673 164.137 283.856 163.902C288.039 163.668 291.233 160.21 290.99 156.179C290.746 152.149 287.157 149.071 282.974 149.306C278.791 149.54 275.597 152.998 275.841 157.029Z" fill="#7E933D"/>
<path opacity="0.78" d="M111.923 166.222C112.166 170.253 115.755 173.33 119.938 173.095C124.122 172.861 127.316 169.403 127.072 165.372C126.829 161.341 123.24 158.264 119.057 158.499C114.873 158.733 111.68 162.191 111.923 166.222Z" fill="white"/>
<path d="M214.844 231.827C210.722 232.553 207.991 236.361 208.744 240.333C209.497 244.305 213.449 246.937 217.571 246.211C221.693 245.485 224.424 241.677 223.671 237.706C222.918 233.733 218.966 231.102 214.844 231.827Z" fill="#7E933D"/>
<path d="M185.342 76.1901C181.22 76.9155 178.488 80.7235 179.241 84.6954C179.994 88.6675 183.946 91.299 188.068 90.5736C192.19 89.8482 194.922 86.0402 194.169 82.0683C193.416 78.0964 189.464 75.4647 185.342 76.1901Z" fill="#7E933D"/>
<path opacity="0.78" d="M160.904 236.006C160.132 237.88 160.325 239.635 161.334 239.926C162.342 240.217 163.785 238.933 164.556 237.059C165.327 235.184 165.135 233.429 164.126 233.138C163.117 232.847 161.674 234.131 160.904 236.006Z" fill="white"/>
<path d="M226.848 88.384C226.077 90.2584 226.269 92.0135 227.278 92.3041C228.287 92.5949 229.729 91.3108 230.501 89.4366C231.272 87.5621 231.079 85.8068 230.07 85.5162C229.061 85.2258 227.619 86.5098 226.848 88.384Z" fill="#7E933D"/>
<path opacity="0.78" d="M126.472 207.943C124.803 209.16 124.022 210.756 124.727 211.509C125.433 212.262 127.358 211.887 129.027 210.671C130.696 209.454 131.477 207.858 130.771 207.105C130.066 206.352 128.141 206.727 126.472 207.943Z" fill="white"/>
<path d="M262.377 114.772C260.708 115.988 259.927 117.584 260.633 118.337C261.338 119.091 263.263 118.715 264.932 117.499C266.601 116.283 267.382 114.686 266.677 113.933C265.971 113.18 264.046 113.556 262.377 114.772Z" fill="#7E933D"/>
<path opacity="0.78" d="M122.147 124.358C120.258 123.491 118.428 123.559 118.059 124.509C117.691 125.459 118.923 126.932 120.813 127.799C122.702 128.666 124.533 128.598 124.901 127.648C125.269 126.698 124.037 125.225 122.147 124.358Z" fill="white"/>
<path opacity="0.78" d="M270.591 197.643C268.702 196.776 266.872 196.844 266.503 197.794C266.134 198.745 267.367 200.218 269.257 201.084C271.146 201.951 272.976 201.883 273.345 200.933C273.713 199.983 272.48 198.51 270.591 197.643Z" fill="white"/>
<path d="M153.512 93.1348C152.364 91.4487 150.763 90.5908 149.936 91.2187C149.109 91.8466 149.369 93.7223 150.517 95.4085C151.664 97.0944 153.265 97.9522 154.092 97.3244C154.919 96.6965 154.659 94.8206 153.512 93.1348Z" fill="#7E933D"/>
<path d="M240.887 230.034C239.74 228.348 238.139 227.49 237.312 228.118C236.485 228.746 236.745 230.621 237.892 232.308C239.04 233.994 240.641 234.852 241.468 234.224C242.295 233.596 242.035 231.72 240.887 230.034Z" fill="#7E933D"/>
<path d="M201.401 168.216L243.506 188.45C244.322 188.842 245.276 188.253 245.249 187.375L245.083 182.152C245.051 181.137 246.293 180.574 247.085 181.246L277.528 207.073C278.459 207.863 277.693 209.33 276.479 209.08L237.27 201.013C236.332 200.82 235.993 199.7 236.676 199.051L241.266 194.689C241.833 194.15 241.712 193.238 241.021 192.855L200.263 170.262C199.695 169.947 199.492 169.253 199.805 168.699C200.116 168.15 200.821 167.937 201.401 168.216Z" fill="#15181E"/>
<path opacity="0.72" d="M272.794 206.952C273.185 206.952 273.539 206.742 273.718 206.387C273.932 205.963 273.822 205.477 273.445 205.177L266.783 199.87C266.552 199.686 266.209 199.718 266.019 199.941C265.827 200.164 265.86 200.493 266.091 200.678L272.753 205.984C263.877 204.031 243.087 199.666 242.656 199.624C242.365 199.591 242.091 199.803 242.061 200.091C242.031 200.375 242.242 200.629 242.534 200.663C243.157 200.76 259.089 204.096 272.563 206.928C272.641 206.944 272.718 206.952 272.794 206.952Z" fill="white"/>
<path d="M197.009 166.223L197.093 126.555C197.079 125.677 196.098 125.131 195.301 125.559L190.565 128.102C189.644 128.597 188.554 127.794 188.808 126.807L198.604 88.8809C198.904 87.7208 200.608 87.701 200.936 88.8543L211.539 126.111C211.793 127.002 210.916 127.809 210.004 127.522L203.873 125.602C203.115 125.364 202.331 125.888 202.296 126.655L199.419 166.256C199.39 166.887 198.844 167.38 198.189 167.366C197.541 167.353 197.019 166.848 197.009 166.223Z" fill="#15181E"/>
<path opacity="0.72" d="M208.285 122.474C208.352 122.474 208.419 122.462 208.484 122.438C208.76 122.334 208.897 122.036 208.795 121.769C208.598 121.195 204.343 106.029 200.754 93.1959C200.627 92.742 200.226 92.4437 199.725 92.4549C199.236 92.4671 198.838 92.7849 198.735 93.2458L196.909 101.387C196.846 101.669 197.033 101.948 197.326 102.008C197.616 102.07 197.907 101.89 197.971 101.607L199.797 93.4667C202.08 101.96 207.622 121.752 207.78 122.142C207.864 122.348 208.069 122.474 208.285 122.474Z" fill="white"/>
<path d="M199.633 173.744C202.725 173.744 205.231 171.329 205.231 168.35C205.231 165.371 202.725 162.956 199.633 162.956C196.542 162.956 194.035 165.371 194.035 168.35C194.035 171.329 196.542 173.744 199.633 173.744Z" fill="#15181E"/>
<path d="M49.0432 309.731C54.2808 310.184 63.371 310.919 70.5372 311.235C74.8451 311.424 77.3251 311.002 78.7534 310.431C78.751 310.592 78.7465 310.744 78.7402 310.885C78.7063 311.639 78.0936 312.243 77.3319 312.285C63.7907 313.041 53.0216 312.547 49.1876 312.313C48.3949 312.265 47.9225 311.403 48.3278 310.728C48.5307 310.39 48.7763 310.058 49.0432 309.731Z" fill="black"/>
<path d="M70.5371 311.235C63.3709 310.919 54.2807 310.184 49.0431 309.731C54.1926 303.413 70.5371 299.155 70.5371 299.155H75.1534C78.3285 303.732 78.7882 308.089 78.7535 310.431C77.325 311.002 74.845 311.424 70.5371 311.235Z" fill="black"/>
<path d="M75.9309 291.619L75.4988 300.167C75.452 301.093 74.7591 301.871 73.832 302.003C72.9096 302.135 71.6742 302.152 70.3643 301.716C69.5584 301.448 68.96 300.769 68.8114 299.94L67.3187 291.619H75.9309Z" fill="#D9BF73"/>
<path d="M129.508 319.592C131.78 319.183 132.807 317.658 133.238 316.028C133.241 316.043 133.244 316.057 133.246 316.072C133.581 317.791 132.806 319.574 131.257 320.421C129.385 321.446 127.338 321.621 125.749 321.536C124.045 321.445 122.48 320.533 121.62 319.074L121.607 319.052C123.318 320.146 125.72 320.275 129.508 319.592Z" fill="black"/>
<path d="M118.799 294.253H122.606C128.405 294.099 132.046 309.906 133.238 316.028C132.807 317.658 131.78 319.183 129.508 319.592C125.72 320.275 123.318 320.146 121.607 319.052C118.474 313.724 116.921 305.921 116.175 301.367C115.325 296.187 118.799 294.253 118.799 294.253Z" fill="black"/>
<path d="M122.117 286.318L124.231 294.726C124.49 295.757 123.996 296.823 123.043 297.312C121.861 297.919 120.196 298.557 118.666 298.372C117.946 298.285 117.348 297.778 117.11 297.101L114.007 288.255L122.117 286.318Z" fill="#D9BF73"/>
<path d="M47.7535 175.583C47.7535 175.583 66.6446 293.668 66.3336 294.317C66.3336 294.317 71.5511 296.689 77.2391 294.619C77.2391 294.619 75.5308 231.494 71.5279 207.29C71.5279 207.29 103.769 263.712 114.007 291.826C114.007 291.826 119.347 291.189 123.767 288.28C123.767 288.28 89.0532 186.724 79.7917 173.197L47.7535 175.583Z" fill="black"/>
<path d="M44.7752 93.1298C43.4254 93.2091 42.0942 93.4681 40.818 93.9102C26.9732 98.7078 16.1009 97.5006 7.74254 93.7243C5.80522 96.2961 2.6853 101.645 1.32617 110.637C16.5405 121.961 35.6742 118.977 41.9314 117.578C40.2936 129.731 40.3089 148.957 46.998 177.142C47.173 177.879 47.807 178.425 48.5701 178.488C52.8445 178.841 67.1513 179.681 80.9071 176.591C81.5245 176.452 81.8621 175.789 81.6167 175.211L81.4917 174.917C80.3448 172.218 79.832 169.301 79.9965 166.378C80.4955 157.5 82.8843 137.439 87.976 123.69C88.2721 124.191 88.5484 124.686 88.8159 125.177C89.7377 116.134 93.2012 107.239 95.6466 98.2688C75.7261 91.9375 52.0382 92.704 44.7752 93.1298Z" fill="#97B954"/>
<path d="M75.851 76.7112C75.851 76.7112 77.2425 91.4247 78.4678 95.7769C78.6537 96.4372 78.3669 97.1334 77.767 97.4763C75.6875 98.6645 70.7 100.603 63.8777 97.259C62.7725 96.7174 62.108 95.5653 62.1595 94.346L62.7606 80.128L75.851 76.7112Z" fill="#B8A364"/>
<path d="M62.4605 57.8881C62.4605 57.8881 58.0096 68.1125 57.7108 73.4789C57.4118 78.8453 56.2554 82.3276 62.4605 83.4082C68.6656 84.4889 73.8927 81.3978 76.7246 76.0522C76.7246 76.0522 81.1616 67.8151 80.1662 64.4418C79.1709 61.0685 62.4605 57.8881 62.4605 57.8881Z" fill="#D9BF73"/>
<path d="M74.6043 72.2086L74.251 72.0529C73.8013 71.8547 73.6089 71.3195 73.8348 70.8829C74.7098 69.1923 76.4156 65.3181 74.212 64.4143C72.1357 63.5629 69.8892 63.0849 67.7545 62.4014C65.7735 61.7672 61.9249 61.1031 60.8917 59.0127C60.593 58.4083 60.9203 57.6953 61.2425 57.1031C61.8456 55.9944 62.4486 54.8858 63.0517 53.7771C63.5615 52.8399 64.0892 51.8803 64.9015 51.1888C66.7611 49.6057 68.98 50.9953 71.0382 51.3751C78.6932 52.7879 83.7542 55.8857 83.8802 61.1754C83.8882 61.5114 84.2457 61.6983 84.5328 61.5234C85.0981 61.179 86.0025 61.0173 87.2112 62.0337C89.3135 63.8015 88.4532 68.387 83.8446 72.1589C83.6257 72.3381 83.6274 72.6799 83.8645 72.8342C84.7 73.3781 85.9455 74.6722 82.7182 76.3974C79.3801 78.1817 76.8875 78.0353 75.9276 77.8769C75.6888 77.8374 75.535 77.6063 75.5871 77.3699L76.6115 72.7208C76.6695 72.4576 76.4692 72.2084 76.1997 72.2084H74.6043V72.2086Z" fill="url(#paint0_linear_585_353)"/>
<path d="M74.4115 73.1897C74.4115 73.1897 76.1095 66.6586 79.0377 68.4898C81.9659 70.321 77.5183 75.8077 75.1641 76.0521L74.4115 73.1897Z" fill="#D9BF73"/>
<path d="M58.7795 59.6259C66.0594 38.0434 96.2635 51.6491 86.304 70.454C75.8483 65.7193 63.6691 58.1327 58.7795 59.6259Z" fill="#9CBC57"/>
<path d="M76.5808 65.3643L57.5978 67.8587C57.1157 67.9221 56.6343 67.7281 56.3334 67.3461C54.1433 64.5666 51.3503 63.0235 48.0802 62.459C47.6665 62.3876 47.6535 61.7969 48.0623 61.7014L59.5137 59.0263C59.5264 59.0234 59.5393 59.0213 59.5524 59.0201C65.3956 58.5232 71.0704 61.1626 76.6853 64.9169C76.8724 65.0421 76.8041 65.3349 76.5808 65.3643Z" fill="black"/>
<path d="M80.7089 174.343C85.0626 174.426 88.6365 170.919 88.6365 166.565V131.949C88.6365 127.401 84.9815 123.701 80.4338 123.651C66.785 123.503 38.635 123.495 15.6022 125.436C12.4592 125.701 10.0143 128.277 9.90037 131.429L7.74771 164.896C7.58772 169.322 11.0875 173.021 15.5162 173.105L80.7089 174.343Z" fill="#DD934B"/>
<path d="M80.7313 135.695C80.7894 138.64 80.702 143.313 80.6303 146.333C80.593 147.904 79.2139 149.101 77.6533 148.918L66.4208 147.601C64.9244 147.426 63.8701 146.047 64.0935 144.557L65.4722 135.359C65.6679 134.053 66.7897 133.087 68.11 133.087H78.0646C79.5151 133.087 80.7027 134.244 80.7313 135.695Z" fill="white"/>
<path opacity="0.37" d="M51.3771 153.126L42.007 154.136C40.696 154.278 39.5772 153.197 39.6738 151.881L41.7222 124.009C45.65 123.884 49.5243 123.793 53.2627 123.729V151.025C53.2628 152.104 52.4497 153.01 51.3771 153.126Z" fill="#A34E2C"/>
<path d="M47.5367 148.295C47.5079 148.796 47.0925 149.183 46.5966 149.183C46.5782 149.183 46.5597 149.182 46.5414 149.181C46.0217 149.151 45.6246 148.705 45.6554 148.185L47.0682 123.859C47.7017 123.843 48.3301 123.829 48.9584 123.815L47.5367 148.295Z" fill="white"/>
<path d="M75.5366 144.475C75.7011 144.475 75.8397 144.347 75.8502 144.18L76.3361 136.518C76.3471 136.345 76.2159 136.196 76.0422 136.185C75.86 136.171 75.7201 136.306 75.709 136.479L75.2231 144.141C75.212 144.314 75.3433 144.463 75.5169 144.474C75.5237 144.475 75.5304 144.475 75.5366 144.475Z" fill="url(#paint1_linear_585_353)"/>
<path d="M74.5364 144.475C74.7052 144.475 74.8451 144.341 74.8506 144.171L75.1052 136.362C75.1107 136.189 74.9745 136.043 74.8015 136.038C74.6014 136.028 74.483 136.168 74.4769 136.341L74.2222 144.15C74.2167 144.324 74.3529 144.469 74.526 144.475C74.526 144.475 74.5333 144.475 74.5364 144.475Z" fill="url(#paint2_linear_585_353)"/>
<path d="M73.1803 144.474C73.0067 144.466 72.8729 144.319 72.8815 144.146C73.006 141.523 73.2436 136.519 73.2472 136.349C73.2484 136.177 73.3889 136.038 73.5613 136.038C73.7349 136.038 73.8755 136.178 73.8755 136.352C73.8755 136.481 73.5699 142.892 73.5086 144.176C73.5006 144.344 73.3619 144.475 73.1951 144.475C73.1901 144.475 73.1852 144.475 73.1803 144.474Z" fill="url(#paint3_linear_585_353)"/>
<path d="M71.1008 144.789C71.4378 144.789 71.7164 144.522 71.7279 144.183C71.9937 136.617 71.947 136.446 71.9163 136.334C71.8255 135.998 71.4769 135.801 71.1449 135.892C70.8374 135.976 70.6455 136.275 70.6872 136.582C70.7075 137.037 70.567 141.439 70.4724 144.139C70.4602 144.485 70.7315 144.777 71.0781 144.789C71.0855 144.789 71.0935 144.789 71.1008 144.789Z" fill="url(#paint4_linear_585_353)"/>
<path d="M69.7393 144.475C69.913 144.475 70.0535 144.334 70.0535 144.161V136.499C70.0535 136.325 69.913 136.184 69.7393 136.184C69.5657 136.184 69.4252 136.325 69.4252 136.499V144.161C69.4252 144.334 69.5656 144.475 69.7393 144.475Z" fill="url(#paint5_linear_585_353)"/>
<path d="M68.6396 144.475C68.8102 144.475 68.9502 144.339 68.9538 144.168C69.0139 141.506 69.1545 137.157 69.2803 136.634C69.3354 136.536 69.3348 136.41 69.2686 136.308C69.1734 136.162 68.979 136.123 68.8335 136.218C68.6622 136.33 68.4997 136.437 68.3254 144.153C68.3218 144.327 68.4591 144.471 68.6322 144.475H68.6396Z" fill="url(#paint6_linear_585_353)"/>
<path d="M77.2271 145.173C77.5591 145.173 77.8365 144.912 77.8543 144.577L78.2734 136.531C78.2911 136.184 78.0248 135.889 77.6782 135.871C77.3493 135.848 77.0363 136.119 77.018 136.466L76.5989 144.512C76.5811 144.858 76.8473 145.154 77.194 145.172C77.2049 145.173 77.2161 145.173 77.2271 145.173Z" fill="url(#paint7_linear_585_353)"/>
<path d="M57.532 124.937C60.7912 124.999 63.4666 122.374 63.4666 119.115V93.2012C63.4666 89.7967 60.7305 87.0263 57.3261 86.9893C47.1087 86.878 26.0356 86.8725 8.79319 88.3255C6.44036 88.5237 4.61015 90.4522 4.52487 92.8118L2.91338 117.865C2.79355 121.179 5.41347 123.947 8.72883 124.01L57.532 124.937Z" fill="#B4633C"/>
<path d="M57.5488 96.0048C57.5922 98.2098 57.5267 101.708 57.4732 103.969C57.4453 105.145 56.4129 106.041 55.2446 105.904L46.8359 104.918C45.7157 104.787 44.9265 103.755 45.0936 102.639L46.1257 95.7537C46.2723 94.7762 47.112 94.053 48.1004 94.053H55.5524C56.6383 94.0531 57.5274 94.9192 57.5488 96.0048Z" fill="white"/>
<path opacity="0.37" d="M35.574 109.054L28.5597 109.81C27.5781 109.916 26.7407 109.107 26.8129 108.122L28.3463 87.2567C31.2867 87.1634 34.187 87.0954 36.9857 87.0477V107.481C36.9858 108.289 36.3771 108.967 35.574 109.054Z" fill="#DD934B"/>
<path d="M32.6992 105.437C32.6776 105.813 32.3666 106.102 31.9955 106.102C31.9816 106.102 31.9679 106.101 31.954 106.101C31.565 106.078 31.2678 105.745 31.2908 105.355L32.3484 87.1447C32.8226 87.133 33.293 87.1225 33.7634 87.112L32.6992 105.437Z" fill="white"/>
<path d="M53.66 102.578C53.7831 102.578 53.8869 102.482 53.8948 102.357L54.2585 96.6214C54.2668 96.4919 54.1685 96.3801 54.0385 96.3719C53.902 96.3613 53.7974 96.4624 53.789 96.592L53.4253 102.328C53.4171 102.457 53.5153 102.569 53.6453 102.577C53.6503 102.578 53.6554 102.578 53.66 102.578Z" fill="url(#paint8_linear_585_353)"/>
<path d="M52.9113 102.578C53.0375 102.578 53.1424 102.478 53.1464 102.35L53.337 96.5048C53.3411 96.3747 53.2391 96.2659 53.1096 96.2618C52.9598 96.2545 52.8712 96.3597 52.8666 96.4892L52.676 102.335C52.6719 102.465 52.7739 102.574 52.9034 102.578C52.9034 102.578 52.9089 102.578 52.9113 102.578Z" fill="url(#paint9_linear_585_353)"/>
<path d="M51.8961 102.577C51.7661 102.571 51.666 102.461 51.6724 102.332C51.7657 100.368 51.9434 96.6224 51.9461 96.4947C51.947 96.3661 52.0522 96.2618 52.1813 96.2618C52.3112 96.2618 52.4165 96.367 52.4165 96.497C52.4165 96.5939 52.1878 101.393 52.1419 102.354C52.136 102.48 52.0321 102.578 51.9071 102.578C51.9034 102.578 51.8997 102.578 51.8961 102.577Z" fill="url(#paint10_linear_585_353)"/>
<path d="M50.3394 102.813C50.5916 102.813 50.8001 102.613 50.8089 102.359C51.0078 96.6953 50.9729 96.5676 50.9499 96.4831C50.8819 96.2319 50.621 96.0845 50.3724 96.1529C50.1422 96.2158 49.9986 96.4391 50.0297 96.6692C50.0449 97.0096 49.9397 100.305 49.869 102.326C49.8597 102.586 50.0628 102.804 50.3223 102.813C50.3279 102.813 50.3339 102.813 50.3394 102.813Z" fill="url(#paint11_linear_585_353)"/>
<path d="M49.32 102.578C49.45 102.578 49.5552 102.473 49.5552 102.343V96.6066C49.5552 96.4766 49.45 96.3715 49.32 96.3715C49.19 96.3715 49.0848 96.4767 49.0848 96.6066V102.343C49.0848 102.473 49.1899 102.578 49.32 102.578Z" fill="url(#paint12_linear_585_353)"/>
<path d="M48.4969 102.578C48.6246 102.578 48.7294 102.476 48.7321 102.348C48.7771 100.355 48.8823 97.0995 48.9764 96.7082C49.0177 96.6343 49.0173 96.5406 48.9677 96.4643C48.8964 96.3549 48.7508 96.3256 48.6419 96.3968C48.5138 96.4808 48.392 96.5603 48.2616 102.337C48.2589 102.467 48.3618 102.575 48.4913 102.578H48.4969Z" fill="url(#paint13_linear_585_353)"/>
<path d="M54.9254 103.1C55.1739 103.1 55.3815 102.905 55.3949 102.654L55.7086 96.631C55.722 96.3715 55.5225 96.1506 55.263 96.1368C55.0169 96.1193 54.7825 96.3229 54.7688 96.5823L54.4551 102.605C54.4417 102.865 54.6411 103.086 54.9007 103.1C54.909 103.1 54.9172 103.1 54.9254 103.1Z" fill="url(#paint14_linear_585_353)"/>
<path d="M0.612362 101.971C2.04609 101.62 5.26625 97.2631 5.60885 98.8549C5.95144 100.447 4.98025 102.465 5.12437 103.142C5.2685 103.819 6.34917 107.61 5.49026 109.201C4.87055 110.349 3.65408 113.959 3.02481 115.88C2.81588 116.518 2.64599 117.36 1.97903 117.285C1.31218 117.21 0.795638 116.313 0.733532 115.645C0.708667 115.377 -0.821362 102.323 0.612362 101.971Z" fill="#D9BF73"/>
<path d="M103.334 107.347C101.568 103.295 95.9409 98.3624 95.6465 98.2689C93.2011 107.239 88.8976 114.648 87.9758 123.691C94.0093 134.773 92.6261 147.842 88.8581 154.198C90.7111 156.95 92.8779 160.697 94.7552 165.358C117.954 151.472 108.771 119.823 103.334 107.347Z" fill="#1E2024"/>
<path d="M73.5369 175.406L53.4514 174.969C53.4514 174.969 70.9664 170.018 72.0533 171.366C72.0533 171.366 82.9091 164.233 88.8583 154.198C90.7111 156.95 92.8779 160.697 94.7552 165.358C89.4219 168.489 82.4177 173.928 73.5369 175.406Z" fill="#D9BF73"/>
<path d="M74.1032 171.928C74.1032 171.928 74.5174 179.931 64.0124 178.769C58.3033 178.137 49.0862 172.814 49.0862 172.814C49.0862 172.814 73.1101 172.75 74.1032 171.928Z" fill="#D9BF73"/>
<defs>
<linearGradient id="paint0_linear_585_353" x1="82.0826" y1="53.5259" x2="58.3853" y2="84.0361" gradientUnits="userSpaceOnUse">
<stop stop-color="#09005D"/>
<stop offset="1" stop-color="#1A0F91"/>
</linearGradient>
<linearGradient id="paint1_linear_585_353" x1="71.9812" y1="134.81" x2="92.0881" y2="164.028" gradientUnits="userSpaceOnUse">
<stop stop-color="#09005D"/>
<stop offset="1" stop-color="#1A0F91"/>
</linearGradient>
<linearGradient id="paint2_linear_585_353" x1="71.2582" y1="135.308" x2="91.365" y2="164.525" gradientUnits="userSpaceOnUse">
<stop stop-color="#09005D"/>
<stop offset="1" stop-color="#1A0F91"/>
</linearGradient>
<linearGradient id="paint3_linear_585_353" x1="70.3859" y1="135.908" x2="90.4928" y2="165.126" gradientUnits="userSpaceOnUse">
<stop stop-color="#09005D"/>
<stop offset="1" stop-color="#1A0F91"/>
</linearGradient>
<linearGradient id="paint4_linear_585_353" x1="68.877" y1="136.946" x2="88.9838" y2="166.164" gradientUnits="userSpaceOnUse">
<stop stop-color="#09005D"/>
<stop offset="1" stop-color="#1A0F91"/>
</linearGradient>
<linearGradient id="paint5_linear_585_353" x1="67.8822" y1="137.631" x2="87.9891" y2="166.849" gradientUnits="userSpaceOnUse">
<stop stop-color="#09005D"/>
<stop offset="1" stop-color="#1A0F91"/>
</linearGradient>
<linearGradient id="paint6_linear_585_353" x1="67.2644" y1="138.056" x2="87.3711" y2="167.274" gradientUnits="userSpaceOnUse">
<stop stop-color="#09005D"/>
<stop offset="1" stop-color="#1A0F91"/>
</linearGradient>
<linearGradient id="paint7_linear_585_353" x1="73.0158" y1="134.098" x2="93.1226" y2="163.316" gradientUnits="userSpaceOnUse">
<stop stop-color="#09005D"/>
<stop offset="1" stop-color="#1A0F91"/>
</linearGradient>
<linearGradient id="paint8_linear_585_353" x1="50.9984" y1="95.3427" x2="66.0503" y2="117.215" gradientUnits="userSpaceOnUse">
<stop stop-color="#09005D"/>
<stop offset="1" stop-color="#1A0F91"/>
</linearGradient>
<linearGradient id="paint9_linear_585_353" x1="50.4572" y1="95.7152" x2="65.5092" y2="117.588" gradientUnits="userSpaceOnUse">
<stop stop-color="#09005D"/>
<stop offset="1" stop-color="#1A0F91"/>
</linearGradient>
<linearGradient id="paint10_linear_585_353" x1="49.8042" y1="96.1646" x2="64.8563" y2="118.037" gradientUnits="userSpaceOnUse">
<stop stop-color="#09005D"/>
<stop offset="1" stop-color="#1A0F91"/>
</linearGradient>
<linearGradient id="paint11_linear_585_353" x1="48.6746" y1="96.9419" x2="63.7266" y2="118.814" gradientUnits="userSpaceOnUse">
<stop stop-color="#09005D"/>
<stop offset="1" stop-color="#1A0F91"/>
</linearGradient>
<linearGradient id="paint12_linear_585_353" x1="47.9298" y1="97.4544" x2="62.9817" y2="119.327" gradientUnits="userSpaceOnUse">
<stop stop-color="#09005D"/>
<stop offset="1" stop-color="#1A0F91"/>
</linearGradient>
<linearGradient id="paint13_linear_585_353" x1="47.4674" y1="97.7726" x2="62.5193" y2="119.645" gradientUnits="userSpaceOnUse">
<stop stop-color="#09005D"/>
<stop offset="1" stop-color="#1A0F91"/>
</linearGradient>
<linearGradient id="paint14_linear_585_353" x1="51.7729" y1="94.8098" x2="66.8248" y2="116.682" gradientUnits="userSpaceOnUse">
<stop stop-color="#09005D"/>
<stop offset="1" stop-color="#1A0F91"/>
</linearGradient>
</defs>
</svg>
