<svg width="119" height="73" viewBox="0 0 119 73" fill="none" xmlns="http://www.w3.org/2000/svg">
<path d="M1 6.03036V71.4249H25.3133V6.03036H20.283V13.9951H15.6718V7.28795H11.0607V13.9951H6.86874V6.03036H1Z" stroke="white" stroke-opacity="0.3" stroke-width="1.74924"/>
<path d="M94.3853 6.36697V71.8441H118V6.36697H113.114V14.3417H108.636V7.62615H104.157V14.3417H100.085V6.36697H94.3853Z" stroke="white" stroke-opacity="0.3" stroke-width="1.74924"/>
<path d="M36.6316 69.7481V33.2781H82.7431V71.0057M59.2682 69.7481V46.2731M47.5307 71.0057V48.7883L54.2378 41.2428H65.5561L71.844 50.0459V71.0057M44.1771 17.7678V1H50.465V8.96472H56.3338V1H62.6217V8.96472H68.9097V1H75.1976V17.7678" stroke="white" stroke-opacity="0.3" stroke-width="1.74924"/>
<rect x="9.83934" y="34.991" width="6.63468" height="12.5034" stroke="white" stroke-opacity="0.3" stroke-width="1.74924"/>
<rect x="102.901" y="34.991" width="6.63468" height="12.5034" stroke="white" stroke-opacity="0.3" stroke-width="1.74924"/>
<rect x="9.83934" y="58.466" width="6.63468" height="5.79628" stroke="white" stroke-opacity="0.3" stroke-width="1.74924"/>
<rect x="102.901" y="58.466" width="6.63468" height="5.79628" stroke="white" stroke-opacity="0.3" stroke-width="1.74924"/>
<path d="M24.374 18.1743H29.7865V26.2036H36.0317V18.1743H47.273V26.2036H51.8529V18.1743H63.9269V26.2036H70.5885V18.1743H80.9972V26.2036L86.826 24.6184V18.1743H92.2385V71.8441L23.5413 70.9989" stroke="white" stroke-opacity="0.3" stroke-width="1.74924"/>
</svg>
