<svg width="360" height="170" viewBox="0 0 360 170" fill="none" xmlns="http://www.w3.org/2000/svg">
<g clip-path="url(#clip0_279_120)">
<path d="M293.296 0H146.865V123.99H310.931L293.296 0Z" fill="#4E6B14"/>
<path d="M286.885 4.24466H120.929V123.99H304.096L286.885 4.24466Z" fill="#4E6B14"/>
<path d="M215.308 123.99H237.876V101.109H215.308V123.99Z" fill="#E69D43"/>
<path d="M236.936 123.99H247.268V101.109H236.936V123.99Z" fill="#B4633C"/>
<path d="M214.11 101.422H251.534V78.8541H214.11V101.422Z" fill="#E69D43"/>
<path d="M250.595 101.422H260.927V78.8541H250.595V101.422Z" fill="#B4633C"/>
<path d="M56.6129 132.645H8.42186C7.25054 132.645 6.2923 131.687 6.2923 130.516V111.51C6.2923 110.339 7.25054 109.381 8.42186 109.381H56.6129C57.784 109.381 58.7423 110.339 58.7423 111.51V130.516C58.7423 131.687 57.784 132.645 56.6129 132.645Z" fill="#B65615"/>
<path d="M203.84 161.313C215.442 160.83 224.455 151.034 223.972 139.432C223.489 127.831 213.693 118.818 202.091 119.301C190.49 119.784 181.476 129.58 181.959 141.182C182.442 152.783 192.239 161.796 203.84 161.313Z" fill="#040700"/>
<path d="M285.46 161.252C297.015 160.109 305.455 149.814 304.311 138.259C303.168 126.705 292.873 118.265 281.318 119.408C269.763 120.552 261.323 130.846 262.467 142.401C263.611 153.956 273.905 162.396 285.46 161.252Z" fill="#040700"/>
<path d="M49.3444 155.194C57.5552 146.983 57.5553 133.671 49.3446 125.46C41.1339 117.249 27.8216 117.249 19.6108 125.46C11.4001 133.671 11.4 146.983 19.6107 155.194C27.8214 163.405 41.1337 163.404 49.3444 155.194Z" fill="#040700"/>
<path d="M34.4803 150.94C40.341 150.94 45.092 146.189 45.092 140.329C45.092 134.468 40.341 129.717 34.4803 129.717C28.6196 129.717 23.8685 134.468 23.8685 140.329C23.8685 146.189 28.6196 150.94 34.4803 150.94Z" fill="#D36E2A"/>
<path d="M34.4803 150.94C40.341 150.94 45.092 146.189 45.092 140.329C45.092 134.468 40.341 129.717 34.4803 129.717C28.6196 129.717 23.8685 134.468 23.8685 140.329C23.8685 146.189 28.6196 150.94 34.4803 150.94Z" fill="#4E6B14"/>
<path d="M41.5439 132.412C42.1401 133.738 42.4743 135.207 42.4743 136.756C42.4743 142.616 37.7233 147.368 31.8626 147.368C29.1494 147.368 26.6754 146.348 24.799 144.673C26.4593 148.367 30.1679 150.94 34.4803 150.94C40.341 150.94 45.092 146.189 45.092 140.329C45.092 137.181 43.7204 134.355 41.5439 132.412Z" fill="#97B954"/>
<path d="M34.4803 143.618C36.2971 143.618 37.7699 142.145 37.7699 140.329C37.7699 138.512 36.2971 137.039 34.4803 137.039C32.6635 137.039 31.1907 138.512 31.1907 140.329C31.1907 142.145 32.6635 143.618 34.4803 143.618Z" fill="#97B954"/>
<path d="M28.8826 147.239C29.5859 147.239 30.156 146.669 30.156 145.966C30.156 145.263 29.5859 144.693 28.8826 144.693C28.1793 144.693 27.6092 145.263 27.6092 145.966C27.6092 146.669 28.1793 147.239 28.8826 147.239Z" fill="#97B954"/>
<path d="M27.3969 137.782C28.1002 137.782 28.6704 137.212 28.6704 136.508C28.6704 135.805 28.1002 135.235 27.3969 135.235C26.6937 135.235 26.1235 135.805 26.1235 136.508C26.1235 137.212 26.6937 137.782 27.3969 137.782Z" fill="#97B954"/>
<path d="M41.4045 137.782C42.1077 137.782 42.6779 137.212 42.6779 136.508C42.6779 135.805 42.1077 135.235 41.4045 135.235C40.7012 135.235 40.131 135.805 40.131 136.508C40.131 137.212 40.7012 137.782 41.4045 137.782Z" fill="#97B954"/>
<path d="M40.3433 147.239C41.0466 147.239 41.6167 146.669 41.6167 145.966C41.6167 145.263 41.0466 144.693 40.3433 144.693C39.64 144.693 39.0699 145.263 39.0699 145.966C39.0699 146.669 39.64 147.239 40.3433 147.239Z" fill="#97B954"/>
<path d="M34.4803 133.494C35.1836 133.494 35.7537 132.924 35.7537 132.22C35.7537 131.517 35.1836 130.947 34.4803 130.947C33.777 130.947 33.2069 131.517 33.2069 132.22C33.2069 132.924 33.777 133.494 34.4803 133.494Z" fill="#97B954"/>
<path d="M202.57 150.94C208.431 150.94 213.182 146.189 213.182 140.329C213.182 134.468 208.431 129.717 202.57 129.717C196.71 129.717 191.958 134.468 191.958 140.329C191.958 146.189 196.71 150.94 202.57 150.94Z" fill="#D36E2A"/>
<path d="M202.57 150.94C208.431 150.94 213.182 146.189 213.182 140.329C213.182 134.468 208.431 129.717 202.57 129.717C196.71 129.717 191.958 134.468 191.958 140.329C191.958 146.189 196.71 150.94 202.57 150.94Z" fill="#97B954"/>
<path d="M202.57 143.618C204.387 143.618 205.86 142.145 205.86 140.329C205.86 138.512 204.387 137.039 202.57 137.039C200.753 137.039 199.281 138.512 199.281 140.329C199.281 142.145 200.753 143.618 202.57 143.618Z" fill="#97B954"/>
<path d="M196.973 147.239C197.676 147.239 198.246 146.669 198.246 145.966C198.246 145.263 197.676 144.693 196.973 144.693C196.269 144.693 195.699 145.263 195.699 145.966C195.699 146.669 196.269 147.239 196.973 147.239Z" fill="#97B954"/>
<path d="M195.487 137.782C196.19 137.782 196.76 137.212 196.76 136.508C196.76 135.805 196.19 135.235 195.487 135.235C194.784 135.235 194.213 135.805 194.213 136.508C194.213 137.212 194.784 137.782 195.487 137.782Z" fill="#97B954"/>
<path d="M209.494 137.782C210.198 137.782 210.768 137.212 210.768 136.508C210.768 135.805 210.198 135.235 209.494 135.235C208.791 135.235 208.221 135.805 208.221 136.508C208.221 137.212 208.791 137.782 209.494 137.782Z" fill="#B65615"/>
<path d="M208.433 147.239C209.136 147.239 209.707 146.669 209.707 145.966C209.707 145.263 209.136 144.693 208.433 144.693C207.73 144.693 207.16 145.263 207.16 145.966C207.16 146.669 207.73 147.239 208.433 147.239Z" fill="#97B954"/>
<path d="M202.57 133.494C203.273 133.494 203.844 132.924 203.844 132.22C203.844 131.517 203.273 130.947 202.57 130.947C201.867 130.947 201.297 131.517 201.297 132.22C201.297 132.924 201.867 133.494 202.57 133.494Z" fill="#B65615"/>
<path d="M95.1306 161.343C106.732 160.842 115.731 151.032 115.231 139.43C114.73 127.829 104.92 118.83 93.3183 119.33C81.7168 119.831 72.7177 129.641 73.2181 141.243C73.7186 152.844 83.5292 161.843 95.1306 161.343Z" fill="#040700"/>
<path d="M34.2473 26.8014C34.2473 26.8014 45.6559 9.59343 58.8446 9.45123L57.6682 28.0699L34.2473 26.8014Z" fill="#4E6B14"/>
<path d="M101.454 105.418H10.1446L17.7445 43.7413C18.9797 33.7162 27.4956 26.1853 37.5967 26.1853H101.454V105.418Z" fill="#5A7328"/>
<path d="M48.3765 67.7156H22.7715L26.163 43.3623C26.8615 38.3472 31.1503 34.6144 36.2138 34.6144H49.1694L48.3765 67.7156Z" fill="#97B954"/>
<path d="M46.4832 65.884H29.625C27.0809 65.884 25.1188 63.6439 25.4535 61.1219L27.6905 44.272C28.2813 39.8212 31.9097 36.5086 36.1935 36.5086H47.1539L46.4832 65.884Z" fill="#E0EEC4"/>
<path d="M225.649 123.99H50.0216L57.8558 0H215.27L225.649 123.99Z" fill="#97B954"/>
<path d="M218.776 119.288H56.4709L63.7107 4.70334H209.183L216.958 97.5823L218.776 119.288Z" fill="#97B954"/>
<path d="M65.8596 105.418H10.1446C5.23816 105.745 4.76382 108.171 4.76382 108.171L0 131.213C0 132.001 0.723931 132.645 1.60853 132.645H15.6169C16.5017 132.645 17.1399 131.997 17.5172 131.176C17.5172 131.176 19.6727 128.513 21.1186 127.56C24.7402 125.172 28.6721 123.607 34.4803 123.607C41.6218 123.607 47.9305 125.879 51.7305 129.35H65.8596C67.5651 129.35 68.9604 128.46 68.9604 127.372V107.396C68.9604 106.309 67.5651 105.418 65.8596 105.418Z" fill="#4E6B14"/>
<path d="M231.288 150.653H213.631C213.224 148.514 212.457 146.629 211.418 144.967C206.08 136.412 193.597 133.797 186.486 132.998C183.37 132.647 181.284 132.645 181.284 132.645H211.637C219.576 133.721 224.451 138.051 227.357 142.196C230.396 146.526 231.288 150.653 231.288 150.653Z" fill="#4E6B14"/>
<path d="M310.931 150.653H293.274C292.812 148.218 291.88 146.111 290.617 144.291C282.553 132.66 260.927 132.645 260.927 132.645H291.281C297.92 133.545 302.414 136.721 305.41 140.16C309.737 145.132 310.931 150.653 310.931 150.653Z" fill="#4E6B14"/>
<path d="M227.357 142.196C227.357 142.196 215.736 139.744 211.418 144.968C206.08 136.412 193.597 133.797 186.486 132.998C186.341 132.879 186.198 132.762 186.057 132.645H211.636C219.576 133.721 224.451 138.051 227.357 142.196Z" fill="#4E6B14"/>
<path d="M305.41 140.16C305.41 140.162 305.41 140.162 305.41 140.162C305.41 140.162 295.69 139.944 290.617 144.292C282.553 132.661 260.927 132.645 260.927 132.645H291.281C297.92 133.545 302.414 136.721 305.41 140.16Z" fill="#4E6B14"/>
<path d="M54.0014 136.015H312.929C314.229 136.015 315.293 134.952 315.293 133.651V126.354C315.293 125.054 314.229 123.99 312.929 123.99H54.0014C52.7012 123.99 51.6375 125.054 51.6375 126.354V133.651C51.6375 134.952 52.7012 136.015 54.0014 136.015Z" fill="#4E6B14"/>
<path d="M112.965 153.646H65.0718C63.8186 153.646 62.7935 152.621 62.7935 151.367V129.29C62.7935 128.037 63.8188 127.011 65.0718 127.011H112.965C114.218 127.011 115.243 128.037 115.243 129.29V151.367C115.243 152.621 114.218 153.646 112.965 153.646Z" fill="#4E6B14"/>
<path d="M218.987 119.288H56.6827L63.9225 4.70312H92.2707C101.146 30.8787 131.165 92.9336 217.169 97.5821L218.987 119.288Z" fill="#97B954"/>
<path d="M11.8057 55.7797C11.8057 55.7797 9.52309 68.0462 9.63621 70.0463C9.74954 72.0464 11.6378 73.0221 13.0729 73.0221L11.8057 55.7797Z" fill="#97B954"/>
<path d="M18.736 73.022H13.1884C12.3772 73.022 11.7134 72.3584 11.7134 71.5472V56.2311C11.7134 55.4199 12.377 54.7563 13.1884 54.7563H18.736C19.5472 54.7563 20.211 55.4199 20.211 56.2311V71.5472C20.211 72.3584 19.5472 73.022 18.736 73.022Z" fill="#97B954"/>
<path d="M18.3103 72.134H13.9164C13.2241 72.134 12.6577 71.5676 12.6577 70.8753V57.0382C12.6577 56.3459 13.2241 55.7794 13.9164 55.7794H18.3103C19.0026 55.7794 19.5689 56.3459 19.5689 57.0382V70.8753C19.5691 71.5676 19.0026 72.134 18.3103 72.134Z" fill="#E0EEC4"/>
<path d="M15.9623 55.0895C15.8059 55.0895 15.679 54.9405 15.679 54.7563V49.6005C15.679 49.5867 15.6796 49.5727 15.6811 49.5591C15.6843 49.5294 16.0345 46.5946 19.1232 46.6894C21.948 46.7767 23.1647 46.6907 23.1768 46.6899C23.3333 46.6782 23.4674 46.8181 23.4772 47.0019C23.4869 47.1857 23.3683 47.3438 23.2123 47.3552C23.1624 47.3591 21.9584 47.4444 19.1083 47.3559C16.6207 47.2799 16.2758 49.3863 16.2455 49.6236V54.7567C16.2455 54.9405 16.1188 55.0895 15.9623 55.0895Z" fill="#97B954"/>
<path d="M46.0038 75.653H40.8373C40.1138 75.653 39.5219 75.061 39.5219 74.3375C39.5219 73.614 40.1138 73.0221 40.8373 73.0221H46.0038C46.7273 73.0221 47.3192 73.614 47.3192 74.3375C47.3192 75.061 46.7273 75.653 46.0038 75.653Z" fill="#E0EEC4"/>
<path d="M252.767 123.99H275.335V101.422H252.767V123.99Z" fill="#E69D43"/>
<path d="M274.396 123.99H284.728V101.422H274.396V123.99Z" fill="#B4633C"/>
<path d="M324.584 161.233H312.841C312.963 160.812 313.359 160.088 314.658 159.877C316.47 159.582 319.611 158.53 320.311 156.212C320.333 156.137 320.353 156.061 320.371 155.983C320.927 153.506 324.972 156.742 324.972 156.742C324.972 156.742 324.984 156.842 325.001 157.011C325.095 157.915 325.333 160.816 324.584 161.233Z" fill="#040700"/>
<path d="M315.139 94.9788C315.139 94.9788 315.754 102.643 316.476 111.856C317.457 124.371 318.637 139.743 318.754 142.656C318.955 147.713 319.766 155.801 319.766 155.801C319.766 155.801 321.686 157.723 325.529 156.913C325.529 156.913 328.954 145.366 329.932 133.148C329.948 132.948 329.963 132.746 329.978 132.544C330.888 120.107 332.303 93.9166 332.303 93.9166L315.139 94.9788Z" fill="#040700"/>
<path d="M315.139 94.9788C315.139 94.9788 315.754 102.643 316.476 111.856L329.932 133.148C329.948 132.948 329.963 132.746 329.978 132.545C330.888 120.107 332.303 93.9168 332.303 93.9168L315.139 94.9788Z" fill="#040700"/>
<path d="M317.945 95.8887C317.945 95.8887 329.017 123.646 336.298 136.69C343.578 149.734 345.853 153.375 345.853 153.375C345.853 153.375 350.024 151.706 350.404 150.568C350.404 150.568 347.619 125.386 342.744 119.247C339.989 115.778 336.753 105.368 336.601 101.728C336.449 98.0881 335.615 90.8831 335.615 90.8831L317.945 95.8887Z" fill="#040700"/>
<path d="M332.513 53.1132C332.513 53.1132 325.021 56.7842 320.702 55.4221C320.702 55.4221 321.765 54.0602 323.626 53.0468C323.476 52.1664 323.36 51.4022 323.294 50.7542C323.111 49.2592 323.111 48.412 323.111 48.412L326.001 46.1033L328.742 43.8937C328.526 50.1065 332.513 53.1132 332.513 53.1132Z" fill="#FFB27D"/>
<path d="M336.461 92.3051C336.477 92.7701 335.497 93.3018 335.066 93.5013C331.859 94.9296 328.869 95.9265 325.481 96.2588C321.477 96.674 316.743 95.7603 315.115 95.7936C314.949 95.7936 314.8 95.7272 314.667 95.6111C314.55 95.5277 314.467 90.6276 314.55 84.4647C314.55 84.2154 314.55 83.9662 314.567 83.7173V83.6343C314.6 81.2254 314.683 78.7007 314.8 76.1755C315.032 70.627 315.464 65.2781 316.195 62.3214C317.075 58.8329 319.069 56.5241 320.879 54.8463L322.374 53.5171C323.869 53.8163 325.447 53.7334 327.026 52.9528C328.753 52.1055 330.643 51.1549 330.942 51.3873C333.202 53.0652 334.7 56.8727 335.514 61.6901C335.979 64.4642 336.212 67.5706 336.195 70.8265C336.195 72.0227 336.162 73.252 336.095 74.4647C335.697 81.0427 336.095 86.7569 336.328 90.0624C336.394 91.0262 336.444 91.7735 336.461 92.3051Z" fill="#97B954"/>
<path d="M336.328 90.0624C300.032 90.013 329.633 63.0025 329.633 63.0025L335.514 61.69C335.979 64.4642 336.212 67.5706 336.195 70.8265C336.195 72.0227 336.162 73.252 336.095 74.4647C335.697 81.0427 336.095 86.7569 336.328 90.0624Z" fill="#97B954"/>
<path d="M291.677 89.8864H314.245V67.3185H291.677V89.8864Z" fill="#E69D43"/>
<path d="M313.305 89.8864H323.637V67.3185H313.305V89.8864Z" fill="#D57912"/>
<path d="M310.854 78.9352L309.51 78.5041C309.51 78.5041 308.57 75.3936 305.392 76.7859C305.392 76.7859 304.101 77.4701 304.67 78.2798C305.238 79.0893 305.134 78.6631 305.911 79.8291C306.688 80.9956 307.917 81.5488 308.897 81.1078L310.013 81.1399L310.854 78.9352Z" fill="#FFB27D"/>
<path d="M332.514 53.1052C332.514 53.1052 340.734 66.1776 331.978 81.2836C329.245 85.9992 308.601 81.5175 308.601 81.5175C308.601 81.5175 307.797 80.0636 309.951 78.5324C309.951 78.5324 323.696 76.2059 325.334 75.8158C326.787 75.4696 325.818 62.1113 327.479 58.2353C329.141 54.359 332.514 53.1052 332.514 53.1052Z" fill="black"/>
<path d="M328.792 46.2693C328.792 46.2693 326.898 49.7744 323.293 50.7543C323.111 49.2593 323.111 48.412 323.111 48.412L326.001 46.1033L328.792 46.2693Z" fill="#ED985F"/>
<path d="M321.793 48.3108C321.793 48.3108 328.94 49.4981 329.611 45.036C330.281 40.574 331.656 37.722 327.121 36.7752C322.586 35.8284 321.442 37.3975 320.856 38.8324C320.269 40.2675 319.951 47.887 321.793 48.3108Z" fill="#FFB27D"/>
<path d="M329.563 45.3439C329.563 45.3439 329.419 39.3667 322.907 38.4074C318.447 37.7504 318.818 34.5191 319.328 33.9289C319.328 33.9289 325.093 33.9768 328.557 34.8495C333.797 36.1699 330.338 44.4551 329.563 45.3439Z" fill="black"/>
<path d="M350.403 151.504L350.057 151.058L346.121 153.264C346.084 154.017 346.064 154.887 346.106 155.65C346.135 156.168 346.105 156.696 346.012 157.195C345.93 157.586 345.513 159.253 344.294 159.69C342.911 160.187 342.8 161.25 345.161 161.233C345.584 161.23 345.999 161.228 346.394 161.227C347.868 161.222 349.127 160.22 349.529 158.802C349.686 158.245 349.979 157.618 350.485 156.951C351.105 156.225 351.836 155.585 352.072 154.79C352.477 153.425 350.403 151.504 350.403 151.504Z" fill="#233862"/>
</g>
<path d="M89.0862 63.8073H93.6093V66.2214C93.6093 67.2026 93.4148 68.0611 93.0259 68.797C92.643 69.5269 92.1016 70.0953 91.4016 70.5021C90.7076 70.9029 89.8909 71.1034 88.9516 71.1034C88.0063 71.1034 87.1807 70.9149 86.4747 70.538C85.7688 70.1551 85.2184 69.6196 84.8235 68.9316C84.4346 68.2376 84.2402 67.4299 84.2402 66.5086V62.6586C84.2402 61.6774 84.4346 60.8219 84.8235 60.092C85.2124 59.3621 85.7538 58.7967 86.4478 58.3958C87.1418 57.989 87.9585 57.7856 88.8978 57.7856C89.6756 57.7856 90.3815 57.9471 91.0157 58.2702C91.6559 58.5933 92.1913 59.045 92.6221 59.6253C93.0588 60.2056 93.352 60.8847 93.5016 61.6625H91.1862C91.0367 61.112 90.7405 60.6903 90.2978 60.3971C89.861 60.098 89.3944 59.9484 88.8978 59.9484C88.1559 59.9484 87.5606 60.1967 87.1119 60.6932C86.6692 61.1898 86.4478 61.8449 86.4478 62.6586V66.5086C86.4478 67.2444 86.6752 67.8337 87.1299 68.2765C87.5905 68.7192 88.1978 68.9406 88.9516 68.9406C89.6935 68.9406 90.2858 68.7042 90.7285 68.2316C91.1772 67.759 91.4016 67.1009 91.4016 66.2573V65.8624H89.0862V63.8073ZM98.3566 57.9202V68.2316C98.3566 68.453 98.4135 68.6265 98.5272 68.7521C98.6408 68.8778 98.8024 68.9406 99.0118 68.9406H99.6489V70.9957H98.4823C97.7643 70.9957 97.2049 70.7803 96.8041 70.3495C96.4092 69.9188 96.2118 69.3115 96.2118 68.5278V57.9202H98.3566ZM105.204 71.1034C103.954 71.1034 102.984 70.7504 102.296 70.0444C101.614 69.3324 101.273 68.3333 101.273 67.047V65.5304C101.273 64.256 101.614 63.2688 102.296 62.5689C102.984 61.8689 103.954 61.5189 105.204 61.5189C106.454 61.5189 107.421 61.8689 108.103 62.5689C108.791 63.2688 109.135 64.256 109.135 65.5304V67.0739C109.135 68.3543 108.791 69.3474 108.103 70.0534C107.421 70.7534 106.454 71.1034 105.204 71.1034ZM105.204 69.0483C105.772 69.0483 106.212 68.8748 106.523 68.5278C106.834 68.1808 106.99 67.6961 106.99 67.0739V65.5304C106.99 64.9081 106.834 64.4265 106.523 64.0855C106.212 63.7445 105.772 63.574 105.204 63.574C104.642 63.574 104.202 63.7445 103.885 64.0855C103.574 64.4265 103.418 64.9081 103.418 65.5304V67.0739C103.418 67.6961 103.574 68.1808 103.885 68.5278C104.202 68.8748 104.642 69.0483 105.204 69.0483ZM115.955 71.1034C115.393 71.1034 114.905 70.9658 114.492 70.6905C114.08 70.4094 113.774 70.0145 113.577 69.5059L113.703 67.4688C113.703 67.8218 113.765 68.1239 113.891 68.3752C114.017 68.6205 114.199 68.8089 114.438 68.9406C114.678 69.0722 114.968 69.138 115.309 69.138C115.841 69.138 116.254 68.9705 116.547 68.6354C116.841 68.2944 116.987 67.8188 116.987 67.2085V65.4586C116.987 64.8304 116.841 64.3458 116.547 64.0047C116.254 63.6577 115.841 63.4842 115.309 63.4842C114.968 63.4842 114.678 63.55 114.438 63.6817C114.199 63.8073 114.017 63.9958 113.891 64.247C113.765 64.4923 113.703 64.7945 113.703 65.1534L113.514 63.224C113.783 62.6795 114.133 62.2607 114.564 61.9676C114.995 61.6684 115.474 61.5189 116 61.5189C116.999 61.5189 117.771 61.8629 118.315 62.5509C118.86 63.233 119.132 64.1992 119.132 65.4496V67.2085C119.132 68.447 118.854 69.4072 118.297 70.0893C117.747 70.7653 116.966 71.1034 115.955 71.1034ZM111.558 70.9688V57.9202H113.703V70.9688H111.558ZM125.459 71.1034C124.137 71.1034 123.111 70.7414 122.381 70.0175C121.651 69.2936 121.286 68.2645 121.286 66.9303V65.8804C121.286 64.4923 121.636 63.4184 122.336 62.6586C123.036 61.8988 124.023 61.5189 125.297 61.5189C126.5 61.5189 127.43 61.9616 128.088 62.8471C128.746 63.7265 129.075 64.968 129.075 66.5714V67.1816H122.749V65.6111H127.083L127.074 65.5124C127.014 64.8663 126.832 64.3637 126.527 64.0047C126.222 63.6398 125.812 63.4573 125.297 63.4573C124.657 63.4573 124.158 63.6607 123.799 64.0676C123.446 64.4684 123.269 65.0398 123.269 65.7816V66.9662C123.269 67.6722 123.461 68.2166 123.843 68.5995C124.226 68.9765 124.765 69.1649 125.459 69.1649C125.812 69.1649 126.159 69.0991 126.5 68.9675C126.847 68.8299 127.158 68.6414 127.433 68.4021L128.833 69.7124C128.361 70.1551 127.828 70.4991 127.236 70.7444C126.649 70.9837 126.057 71.1034 125.459 71.1034ZM132.62 65.9073V63.8522H136.793C137.314 63.8522 137.733 63.6757 138.05 63.3227C138.373 62.9637 138.534 62.4971 138.534 61.9227C138.534 61.3304 138.376 60.8578 138.059 60.5048C137.742 60.1518 137.32 59.9753 136.793 59.9753H132.62V57.9202H136.731C137.538 57.9202 138.241 58.0877 138.839 58.4228C139.438 58.7518 139.904 59.2155 140.239 59.8138C140.574 60.412 140.742 61.115 140.742 61.9227C140.742 62.7244 140.574 63.4244 140.239 64.0227C139.904 64.621 139.435 65.0846 138.83 65.4137C138.232 65.7427 137.532 65.9073 136.731 65.9073H132.62ZM131.588 70.9688V57.9202H133.733V70.9688H131.588ZM145.714 71.1034C144.463 71.1034 143.494 70.7504 142.806 70.0444C142.124 69.3324 141.783 68.3333 141.783 67.047V65.5304C141.783 64.256 142.124 63.2688 142.806 62.5689C143.494 61.8689 144.463 61.5189 145.714 61.5189C146.964 61.5189 147.93 61.8689 148.612 62.5689C149.3 63.2688 149.644 64.256 149.644 65.5304V67.0739C149.644 68.3543 149.3 69.3474 148.612 70.0534C147.93 70.7534 146.964 71.1034 145.714 71.1034ZM145.714 69.0483C146.282 69.0483 146.722 68.8748 147.033 68.5278C147.344 68.1808 147.5 67.6961 147.5 67.0739V65.5304C147.5 64.9081 147.344 64.4265 147.033 64.0855C146.722 63.7445 146.282 63.574 145.714 63.574C145.151 63.574 144.712 63.7445 144.395 64.0855C144.083 64.4265 143.928 64.9081 143.928 65.5304V67.0739C143.928 67.6961 144.083 68.1808 144.395 68.5278C144.712 68.8748 145.151 69.0483 145.714 69.0483ZM152.067 70.9688V61.6535H154.302V70.9688H152.067ZM157.255 64.0496C157.111 63.8941 156.935 63.7774 156.725 63.6996C156.516 63.6159 156.273 63.574 155.998 63.574C155.46 63.574 155.041 63.7355 154.742 64.0586C154.449 64.3757 154.302 64.8184 154.302 65.3868L154.114 63.2778C154.383 62.7274 154.733 62.2966 155.164 61.9855C155.6 61.6744 156.079 61.5189 156.599 61.5189C157.006 61.5189 157.374 61.5817 157.703 61.7073C158.032 61.827 158.32 62.0065 158.565 62.2458L157.255 64.0496ZM162.424 71.0136C161.628 71.0136 161.051 70.8012 160.692 70.3764C160.333 69.9517 160.153 69.3414 160.153 68.5457V58.9433H162.298V68.2496C162.298 68.4709 162.343 68.6444 162.433 68.7701C162.522 68.8957 162.654 68.9585 162.828 68.9585H163.572V71.0136H162.424ZM159.193 63.5291V61.6535H163.572V63.5291H159.193ZM169.81 71.1034C168.487 71.1034 167.461 70.7414 166.731 70.0175C166.001 69.2936 165.637 68.2645 165.637 66.9303V65.8804C165.637 64.4923 165.987 63.4184 166.687 62.6586C167.387 61.8988 168.374 61.5189 169.648 61.5189C170.851 61.5189 171.781 61.9616 172.439 62.8471C173.097 63.7265 173.426 64.968 173.426 66.5714V67.1816H167.099V65.6111H171.434L171.425 65.5124C171.365 64.8663 171.183 64.3637 170.877 64.0047C170.572 63.6398 170.163 63.4573 169.648 63.4573C169.008 63.4573 168.508 63.6607 168.149 64.0676C167.796 64.4684 167.62 65.0398 167.62 65.7816V66.9662C167.62 67.6722 167.811 68.2166 168.194 68.5995C168.577 68.9765 169.116 69.1649 169.81 69.1649C170.163 69.1649 170.51 69.0991 170.851 68.9675C171.198 68.8299 171.509 68.6414 171.784 68.4021L173.184 69.7124C172.711 70.1551 172.179 70.4991 171.586 70.7444C171 70.9837 170.408 71.1034 169.81 71.1034ZM175.759 70.9688V61.6535H177.994V70.9688H175.759ZM180.947 64.0496C180.803 63.8941 180.627 63.7774 180.417 63.6996C180.208 63.6159 179.965 63.574 179.69 63.574C179.152 63.574 178.733 63.7355 178.434 64.0586C178.141 64.3757 177.994 64.8184 177.994 65.3868L177.806 63.2778C178.075 62.7274 178.425 62.2966 178.856 61.9855C179.292 61.6744 179.771 61.5189 180.291 61.5189C180.698 61.5189 181.066 61.5817 181.395 61.7073C181.724 61.827 182.012 62.0065 182.257 62.2458L180.947 64.0496Z" fill="white"/>
<path d="M183.695 70.2067L185.964 60.6614L195.645 56.4664L193.176 65.4545L183.695 70.2067Z" fill="white"/>
<path d="M192.306 64.7293L186.829 61.3335L185.193 68.0726L192.306 64.7293Z" fill="#51B848"/>
<defs>
<clipPath id="clip0_279_120">
<rect width="359.313" height="170" fill="white"/>
</clipPath>
</defs>
</svg>
