<svg width="89" height="107" viewBox="0 0 89 107" fill="none" xmlns="http://www.w3.org/2000/svg">
<path d="M87.4146 57.1433H85.7408V50.6211C86.4591 49.2767 86.8387 47.774 86.8387 46.2397C86.8387 42.7484 84.9115 39.5807 81.8096 37.9732C80.6836 37.389 79.7436 36.537 79.0658 35.4991V30.6183C79.0658 29.7713 78.3792 29.0847 77.5321 29.0847C76.6851 29.0847 75.9985 29.7713 75.9985 30.6183V35.4984C75.3223 36.5316 74.3731 37.3885 73.2281 37.9871C70.1306 39.6045 68.2138 42.7796 68.2256 46.2732C68.231 47.7877 68.6102 49.2741 69.3232 50.607V57.1438H64.6732V50.4732C66.6809 46.968 67.7405 42.9926 67.7405 38.9309C67.7405 30.2121 62.9275 22.3013 55.1798 18.2858C51.362 16.3056 48.2096 13.3537 46.034 9.7369V1.53363C46.034 0.686595 45.3474 0 44.5003 0C43.6533 0 42.9667 0.686595 42.9667 1.53363V9.7362C40.8024 13.3322 37.6261 16.2964 33.7534 18.3205C26.0177 22.3601 21.2304 30.2892 21.2599 39.0137C21.2736 43.0212 22.3325 46.9515 24.327 50.4288V57.1433H19.6765V50.6216C20.3945 49.2772 20.7744 47.7742 20.7744 46.2397C20.7744 42.7484 18.8472 39.5806 15.7455 37.9729C14.6193 37.389 13.6793 36.5367 13.0017 35.4988V30.6183C13.0017 29.7713 12.3151 29.0847 11.4681 29.0847C10.621 29.0847 9.93442 29.7713 9.93442 30.6183V35.4986C9.25821 36.5318 8.30901 37.3885 7.16398 37.9871C4.06651 39.6045 2.14971 42.7796 2.16151 46.2732C2.1667 47.7879 2.5461 49.2741 3.25912 50.6067V57.1436H1.58557C0.738536 57.1436 0.0519409 57.8301 0.0519409 58.6772V105.467C0.0519409 106.314 0.738536 107 1.58557 107H87.4146C88.2617 107 88.9483 106.314 88.9483 105.467V58.6769C88.9483 57.8299 88.2614 57.1433 87.4146 57.1433ZM74.6482 40.7054C75.7442 40.1325 76.717 39.3886 77.5303 38.5085C78.3421 39.3909 79.3102 40.1318 80.3974 40.6959C82.4785 41.7744 83.7714 43.8986 83.7714 46.2397C83.7714 47.1134 83.5886 47.9715 83.2391 48.7619H71.8313C71.4807 47.9767 71.2955 47.1261 71.2926 46.2623C71.2848 43.9196 72.5703 41.7905 74.6482 40.7054ZM72.3905 51.8289H82.6736V57.1431H72.3905V51.8289ZM44.4989 12.9915C45.441 14.3128 46.5075 15.5392 47.6801 16.6604H41.3045C42.4856 15.5357 43.5563 14.3092 44.4989 12.9915ZM35.1735 21.0391C35.9462 20.6351 36.693 20.1963 37.4152 19.7277H51.5666C52.2766 20.1866 53.0101 20.6153 53.7679 21.0084C60.4947 24.4947 64.6735 31.362 64.6735 38.9304C64.6735 42.3695 63.7984 45.7362 62.1392 48.722H26.8862C25.2224 45.7506 24.3388 42.4089 24.327 39.0031C24.3015 31.4295 28.4574 24.5461 35.1735 21.0391ZM27.394 51.7893H61.6057V57.1433H27.394V51.7893ZM8.58412 40.7054C9.68007 40.1325 10.6529 39.3886 11.4659 38.5085C12.278 39.3912 13.2461 40.1318 14.3333 40.6959C16.4144 41.7744 17.7071 43.8986 17.7071 46.2397C17.7071 47.1134 17.5242 47.9715 17.175 48.7619H5.76719C5.41658 47.9769 5.23137 47.1264 5.22853 46.2623C5.22075 43.9196 6.50617 41.7905 8.58412 40.7054ZM6.32638 51.8289H16.6095V57.1431H6.32638V51.8289ZM3.1192 60.2106H24.327V103.933H3.1192V60.2106ZM54.9028 103.933H34.0974V80.9243C34.0974 77.6121 36.0455 74.5864 39.0607 73.2155L44.5001 70.7426L49.9393 73.2155C52.9544 74.5864 54.9026 77.6121 54.9026 80.9243V103.933H54.9028ZM57.9701 103.933V80.9243C57.9701 76.4123 55.3162 72.2906 51.2091 70.4234L45.135 67.6619C44.7316 67.4783 44.2689 67.4786 43.8656 67.6619L37.7913 70.4234C33.684 72.2906 31.0301 76.4126 31.0301 80.9243V103.933H27.394V60.2106H61.6057V103.933H57.9701ZM85.881 103.933H64.6732V60.2106H85.881V103.933Z" fill="white"/>
<path d="M16.4356 66.0044L14.3576 65.0597C13.9542 64.8763 13.4915 64.8763 13.088 65.0597L11.0103 66.0042C9.24591 66.8061 8.10583 68.5769 8.10583 70.5149V78.2786C8.10583 79.1257 8.79243 79.8123 9.63947 79.8123H17.8059C18.653 79.8123 19.3396 79.1257 19.3396 78.2786V70.5149C19.3398 68.5769 18.1997 66.8064 16.4356 66.0044ZM16.2725 76.745H11.1733V70.5149C11.1733 69.7767 11.6077 69.1021 12.2799 68.7963L13.7229 68.1402L15.1662 68.7963C15.8384 69.1018 16.2725 69.7764 16.2725 70.5147V76.745Z" fill="white"/>
<path d="M16.4356 84.408L14.3576 83.4632C13.9542 83.2799 13.4915 83.2799 13.088 83.4632L11.0103 84.4077C9.24591 85.2097 8.10583 86.9804 8.10583 88.9185V96.6822C8.10583 97.5292 8.79243 98.2158 9.63947 98.2158H17.8059C18.653 98.2158 19.3396 97.5292 19.3396 96.6822V88.9185C19.3398 86.9804 18.1997 85.2099 16.4356 84.408ZM16.2725 95.1486H11.1733V88.9185C11.1733 88.1802 11.6077 87.5056 12.2799 87.1999L13.7229 86.5437L15.1662 87.1999C15.8384 87.5054 16.2725 88.18 16.2725 88.9182V95.1486Z" fill="white"/>
<path d="M71.1935 79.8123H79.36C80.207 79.8123 80.8936 79.1257 80.8936 78.2786V70.5149C80.8936 68.5769 79.7538 66.8061 77.9894 66.0041L75.9115 65.0594C75.5082 64.8761 75.0451 64.8761 74.6418 65.0594L72.5641 66.0039C70.7995 66.8059 69.6594 68.5764 69.6594 70.5147V78.2784C69.6599 79.1257 70.3467 79.8123 71.1935 79.8123ZM72.7272 70.5149C72.7272 69.7766 73.1615 69.1021 73.8337 68.7963L75.2768 68.1401L76.7198 68.7963C77.392 69.1018 77.8261 69.7764 77.8261 70.5149V76.745H72.7269V70.5149H72.7272Z" fill="white"/>
<path d="M71.1935 98.2158H79.36C80.207 98.2158 80.8936 97.5292 80.8936 96.6822V88.9185C80.8936 86.9804 79.7538 85.2097 77.9894 84.4077L75.9115 83.463C75.5082 83.2797 75.0451 83.2797 74.6418 83.463L72.5641 84.4075C70.7995 85.2094 69.6594 86.98 69.6594 88.9182V96.6819C69.6599 97.5292 70.3467 98.2158 71.1935 98.2158ZM72.7272 88.9185C72.7272 88.1802 73.1615 87.5056 73.8337 87.1999L75.2768 86.5437L76.7198 87.1999C77.392 87.5054 77.8261 88.18 77.8261 88.9185V95.1486H72.7269V88.9185H72.7272Z" fill="white"/>
</svg>
